<svg width="98" height="128" viewBox="0 0 98 128" fill="none" xmlns="http://www.w3.org/2000/svg">
<g clip-path="url(#clip0_1332_10116)">
<path d="M56.0488 27.7818C57.1842 30.9821 60.1988 32.1442 65.996 30.775C68.8047 30.1098 72.1829 29.2182 74.8986 30.5084C77.0983 31.5578 78.149 35.7654 73.2239 38.2179C68.1502 40.7462 60.0265 38.2997 52.0215 40.2284C44.7384 41.9856 40.7347 46.6064 43.5256 50.4577C45.6363 53.3708 48.5664 52.5011 49.7139 51.4899C50.4846 50.81 50.9992 49.8037 52.4368 48.4781C54.23 46.8264 62.4035 46.8253 67.6132 46.5684C73.9223 46.2618 83.2638 41.5647 83.1241 34.4614C82.9966 28.0153 78.8956 24.5358 73.1775 24.3541C67.9958 24.1915 62.6552 26.9832 62.0408 25.199C61.2805 23.0004 67.6735 20.962 71.2681 18.136C74.9251 15.2658 74.6812 13.3571 74.2235 12.7049C73.5541 11.7541 72.3395 14.1104 69.4573 15.6318C64.3935 18.306 60.9537 18.5753 57.4304 21.8983C55.9626 23.2995 55.2526 25.5396 56.0488 27.7818V27.7818Z" fill="#EC7FAC"/>
<path d="M67.7574 17.9918C68.1123 18.5687 68.5627 19.1619 68.9871 19.6699C69.8026 19.1852 70.5873 18.6779 71.2706 18.139C71.5567 17.9164 71.8072 17.6992 72.0478 17.4891C71.7398 17.1452 71.3931 16.7399 71.1687 16.4304C70.8535 15.993 70.5459 15.5107 70.3128 15.1333C70.0465 15.3074 69.7634 15.4786 69.4621 15.638C68.6792 16.0496 67.8823 16.4338 67.0728 16.7902C67.2559 17.1388 67.4843 17.5441 67.7574 17.9918V17.9918ZM57.3215 24.0324C59.8144 22.6786 61.3999 23.4533 62.0996 24.3284C62.3926 23.6914 63.3052 22.975 64.1724 22.424C63.7251 22.0161 63.2114 21.5073 62.7739 20.974C62.4534 20.5847 61.8663 19.7432 61.4688 19.1619C60.0783 19.8374 58.7645 20.6558 57.4375 21.9078C56.5638 22.7347 55.7528 23.9908 55.7219 25.6998C55.9829 25.1497 56.5938 24.4253 57.3215 24.0324V24.0324ZM76.1242 26.7135C77.158 25.9802 78.0048 25.8038 78.6137 25.8208C77.0848 24.9172 75.2384 24.4214 73.18 24.3571C72.6403 24.3403 72.0948 24.3572 71.5577 24.3929C71.1747 24.8126 70.6385 25.5728 70.5432 26.6417C70.4365 27.8126 71.2337 29.1661 71.6978 29.8482C72.782 29.8537 73.8386 30.0218 74.8129 30.4704C74.6568 29.7079 74.4865 27.8751 76.1242 26.7135V26.7135Z" fill="#FEA8A7"/>
<path d="M64.3021 31.1132C63.7627 30.5683 62.9303 29.5061 62.7809 28.0088C62.678 27.0014 63.1703 26.228 63.5441 25.7951C62.7506 25.8449 62.2151 25.7019 62.0422 25.2078C62.0153 25.1282 62.0522 25.2846 62.0422 25.2078C61.2353 24.6406 59.898 23.9514 57.8598 25.0074C56.6036 25.6567 56.096 26.8258 56.0794 27.8735C57.1207 30.6769 59.6538 31.8696 64.3021 31.1132ZM69.4096 26.9427C69.4598 25.7824 69.8904 24.9985 70.2488 24.537C68.1603 24.8197 66.2066 25.3619 64.7196 25.6372C64.3407 26.0835 63.8351 26.9009 63.9564 28.0038C64.108 29.386 65.0345 30.421 65.5279 30.8801C65.6809 30.8455 65.833 30.8165 65.995 30.7806C67.3933 30.4498 68.9306 30.0648 70.4593 29.9178C70.0572 29.2953 69.3615 28.0572 69.4096 26.9427ZM67.0581 18.7937C66.7365 18.2917 66.4246 17.699 66.1686 17.185C64.8041 17.7582 63.5551 18.2297 62.3732 18.7474C62.7143 19.2701 63.2022 19.9649 63.7148 20.5484C64.1189 21.0068 64.6651 21.4777 65.1279 21.845C66.0403 21.3162 67.0618 20.7742 68.0745 20.1989C67.741 19.7843 67.381 19.3046 67.0581 18.7937V18.7937ZM71.0852 14.5954C71.3636 14.9948 71.7198 15.497 71.9764 15.8379C72.1925 16.1286 72.4977 16.4893 72.7703 16.8041C74.8377 14.6766 74.6123 13.2529 74.2282 12.7114C73.6998 11.9664 72.8297 13.2643 71.0852 14.5954V14.5954ZM76.8067 27.5023C75.6339 28.5265 75.6442 30.231 75.7716 31.1618C76.3188 31.7455 76.6875 32.5643 76.7262 33.4742C77.2397 33.2037 78.3953 32.7047 79.6758 32.8965C81.4094 33.1567 82.5234 34.3447 83.1044 35.1708C83.1211 34.937 83.1265 34.7013 83.1241 34.4613C83.0567 31.0558 81.879 28.4774 79.9374 26.7764C79.139 26.6175 77.8739 26.5726 76.8067 27.5023V27.5023ZM79.5191 34.31C78.4929 34.0316 77.1962 34.4777 76.5751 34.7357C76.3159 35.6152 75.7278 36.5109 74.6914 37.3101C75.1593 37.5455 75.9816 38.1067 76.9035 39.4064C77.8183 40.6962 78.1377 42.0088 78.2461 42.7459C80.3589 41.2177 82.0412 39.2844 82.7517 37.0243C82.2574 36.2649 81.0777 34.7338 79.5191 34.31V34.31ZM55.4071 43.3323C55.091 42.1703 54.0623 40.6505 53.532 39.9167C53.0289 40.0072 52.5238 40.1089 52.0182 40.2307C44.7361 41.9822 40.4544 46.9136 43.2487 50.7626C45.3593 53.6757 48.5664 52.501 49.7138 51.4898C50.4846 50.8099 50.9992 49.8036 52.4368 48.478C52.9566 48.0008 54.0163 47.6586 55.3801 47.4115C55.5899 46.6362 55.8744 45.0482 55.4071 43.3323V43.3323ZM75.7677 40.2811C74.8766 39.1569 73.995 38.4009 73.5153 38.0654C73.4197 38.1184 73.3208 38.1737 73.2173 38.2225C68.8282 40.4083 62.1542 38.8721 55.2509 39.6693C55.7574 40.2374 56.5211 41.4322 57.0703 43.8201C57.3234 44.9281 57.1266 46.4588 57.0077 47.1746C60.2566 46.7891 64.4694 46.7263 67.6122 46.5739C70.4674 46.4332 73.9429 45.3937 76.8787 43.6418C76.8153 42.8778 76.5764 41.296 75.7677 40.2811V40.2811Z" fill="#FEA8A7"/>
<path d="M48.2069 46.575C47.949 46.1107 47.3998 45.9233 46.9801 46.1564C46.5605 46.3894 46.4294 46.9548 46.6873 47.4191C46.9452 47.8834 47.4945 48.0708 47.9141 47.8377C48.3337 47.6047 48.4648 47.0393 48.2069 46.575Z" fill="black"/>
<path d="M45.1689 49.7844C45.5311 49.4695 45.5422 48.8892 45.1937 48.4885C44.8452 48.0877 44.2691 48.0181 43.9068 48.333C43.5446 48.648 43.5335 49.2282 43.882 49.629C44.2305 50.0298 44.8066 50.0994 45.1689 49.7844Z" fill="black"/>
<path d="M47.2562 49.7012C47.8273 49.2961 47.8314 48.6272 48.3754 48.7544C49.0522 48.9156 48.5583 50.0207 47.833 50.5352C46.9698 51.1474 45.8768 50.9904 46.0182 50.3622C46.1312 49.8677 46.6097 50.1597 47.2562 49.7012V49.7012Z" fill="black"/>
<path d="M60.4159 42.8823C60.5106 45.1091 59.677 46.3959 60.1616 47.0931C60.5485 47.6524 61.8639 47.6221 65.6545 47.3605C69.6902 47.0829 70.5558 46.5923 70.8666 45.9525C71.0785 45.521 71.5222 44.4565 71.406 42.6791C71.2796 40.7066 70.5336 39.0011 69.1332 38.9881C68.2599 38.981 67.5288 38.9865 65.2409 39.0159C62.2131 39.0522 60.2777 38.8414 59.7924 39.2004C59.2307 39.6186 60.3296 40.8272 60.4159 42.8823V42.8823Z" fill="#EC7FAC"/>
</g>
<g clip-path="url(#clip1_1332_10116)">
<path d="M25.0139 91.1263C25.9591 93.7904 28.4685 94.7577 33.2942 93.618C35.6322 93.0642 38.4443 92.3221 40.705 93.396C42.536 94.2696 43.4106 97.7721 39.3109 99.8136C35.0874 101.918 28.325 99.8817 21.6615 101.487C15.5989 102.95 12.266 106.796 14.5893 110.002C16.3463 112.427 18.7853 111.703 19.7405 110.862C20.3821 110.296 20.8105 109.458 22.0071 108.355C23.4998 106.98 30.3037 106.979 34.6404 106.765C39.8923 106.51 47.6684 102.6 47.552 96.6866C47.446 91.3207 44.0322 88.4242 39.2723 88.273C34.9589 88.1377 30.5132 90.4615 30.0018 88.9764C29.3689 87.1462 34.6906 85.4494 37.6828 83.097C40.727 80.7077 40.524 79.1188 40.143 78.576C39.5857 77.7845 38.5747 79.7459 36.1755 81.0124C31.9602 83.2385 29.0968 83.4626 26.1639 86.2287C24.9421 87.3952 24.3511 89.2598 25.0139 91.1263V91.1263Z" fill="#EC7FAC"/>
<path d="M34.7597 82.9768C35.0552 83.4571 35.43 83.9509 35.7834 84.3737C36.4622 83.9703 37.1154 83.548 37.6842 83.0994C37.9223 82.9141 38.1308 82.7333 38.3312 82.5584C38.0747 82.2721 37.7861 81.9347 37.5993 81.6771C37.3369 81.313 37.0809 80.9115 36.8868 80.5974C36.6652 80.7423 36.4296 80.8848 36.1788 81.0175C35.527 81.3601 34.8637 81.6799 34.1898 81.9766C34.3423 82.2668 34.5323 82.6042 34.7597 82.9768V82.9768ZM26.0726 88.0052C28.1477 86.8782 29.4675 87.5231 30.0499 88.2516C30.2939 87.7213 31.0536 87.125 31.7754 86.6663C31.4031 86.3267 30.9754 85.9033 30.6113 85.4593C30.3445 85.1353 29.8558 84.4348 29.5249 83.9508C28.3674 84.5132 27.2737 85.1944 26.1691 86.2366C25.4419 86.925 24.7668 87.9705 24.741 89.3932C24.9583 88.9352 25.4668 88.3322 26.0726 88.0052V88.0052ZM41.7244 90.237C42.585 89.6266 43.2899 89.4798 43.7968 89.4939C42.5241 88.7418 40.987 88.329 39.2736 88.2755C38.8243 88.2615 38.3703 88.2756 37.9232 88.3053C37.6043 88.6546 37.1579 89.2874 37.0787 90.1773C36.9898 91.152 37.6535 92.2786 38.0398 92.8465C38.9423 92.851 39.8218 92.991 40.6328 93.3643C40.5029 92.7296 40.3612 91.204 41.7244 90.237V90.237Z" fill="#FEA8A7"/>
<path d="M31.8834 93.8988C31.4344 93.4453 30.7415 92.5611 30.6171 91.3147C30.5315 90.4761 30.9413 89.8323 31.2524 89.472C30.5919 89.5134 30.1461 89.3943 30.0022 88.9831C29.9799 88.9168 30.0106 89.047 30.0022 88.9831C29.3306 88.5109 28.2173 87.9372 26.5207 88.8162C25.475 89.3567 25.0524 90.3299 25.0386 91.202C25.9055 93.5357 28.0141 94.5285 31.8834 93.8988ZM36.1351 90.4273C36.1768 89.4614 36.5353 88.8088 36.8336 88.4247C35.0951 88.66 33.4688 89.1113 32.231 89.3405C31.9155 89.7121 31.4947 90.3925 31.5956 91.3105C31.7219 92.4611 32.4931 93.3226 32.9038 93.7048C33.0312 93.676 33.1578 93.6519 33.2927 93.622C34.4566 93.3466 35.7363 93.0261 37.0088 92.9038C36.6741 92.3856 36.095 91.355 36.1351 90.4273ZM34.1776 83.6438C33.9099 83.2259 33.6502 82.7325 33.4371 82.3047C32.3013 82.7818 31.2616 83.1744 30.2778 83.6053C30.5617 84.0403 30.9679 84.6187 31.3946 85.1045C31.7309 85.486 32.1856 85.8781 32.5708 86.1838C33.3304 85.7436 34.1807 85.2924 35.0237 84.8136C34.746 84.4684 34.4464 84.0691 34.1776 83.6438V83.6438ZM37.5299 80.149C37.7616 80.4815 38.0581 80.8995 38.2717 81.1833C38.4516 81.4253 38.7056 81.7256 38.9325 81.9876C40.6536 80.2166 40.4659 79.0315 40.1462 78.5807C39.7063 77.9606 38.982 79.041 37.5299 80.149V80.149ZM42.2926 90.893C41.3163 91.7456 41.3249 93.1645 41.431 93.9393C41.8865 94.4252 42.1934 95.1068 42.2255 95.8643C42.653 95.6391 43.615 95.2237 44.6809 95.3833C46.124 95.5999 47.0513 96.5889 47.535 97.2765C47.5488 97.0819 47.5534 96.8857 47.5513 96.6859C47.4953 93.8511 46.5149 91.7048 44.8987 90.2888C44.2341 90.1565 43.1809 90.1192 42.2926 90.893V90.893ZM44.5505 96.56C43.6962 96.3282 42.6168 96.6996 42.0998 96.9144C41.884 97.6465 41.3944 98.392 40.5317 99.0573C40.9212 99.2533 41.6058 99.7205 42.3731 100.802C43.1347 101.876 43.4005 102.969 43.4908 103.582C45.2495 102.31 46.6499 100.701 47.2413 98.8194C46.8299 98.1873 45.8479 96.9127 44.5505 96.56V96.56ZM24.479 104.07C24.2159 103.103 23.3596 101.838 22.9181 101.227C22.4993 101.302 22.0789 101.387 21.658 101.488C15.5962 102.947 12.032 107.052 14.358 110.256C16.115 112.68 18.7846 111.703 19.7398 110.861C20.3814 110.295 20.8097 109.457 22.0064 108.354C22.4391 107.957 23.3212 107.672 24.4565 107.466C24.6312 106.821 24.868 105.499 24.479 104.07V104.07ZM41.4277 101.53C40.6859 100.595 39.9521 99.9654 39.5527 99.686C39.4732 99.7302 39.3909 99.7762 39.3047 99.8168C35.6511 101.636 30.0955 100.358 24.3489 101.021C24.7706 101.494 25.4063 102.489 25.8635 104.476C26.0742 105.399 25.9103 106.673 25.8114 107.269C28.5158 106.948 32.0227 106.896 34.6389 106.769C37.0156 106.652 39.9087 105.786 42.3525 104.328C42.2997 103.692 42.1008 102.375 41.4277 101.53V101.53Z" fill="#FEA8A7"/>
<path d="M18.4856 106.77C18.2709 106.384 17.8137 106.228 17.4644 106.422C17.1151 106.616 17.006 107.087 17.2207 107.473C17.4353 107.86 17.8925 108.016 18.2418 107.822C18.5911 107.628 18.7003 107.157 18.4856 106.77Z" fill="black"/>
<path d="M15.9559 109.441C16.2574 109.179 16.2667 108.696 15.9766 108.363C15.6865 108.029 15.2069 107.971 14.9053 108.233C14.6038 108.495 14.5945 108.978 14.8846 109.312C15.1747 109.646 15.6543 109.704 15.9559 109.441Z" fill="black"/>
<path d="M17.694 109.372C18.1694 109.035 18.1728 108.479 18.6256 108.584C19.189 108.719 18.7779 109.638 18.1741 110.067C17.4556 110.576 16.5457 110.446 16.6635 109.923C16.7575 109.511 17.1558 109.754 17.694 109.372V109.372Z" fill="black"/>
<path d="M28.6484 103.696C28.7272 105.55 28.0333 106.621 28.4367 107.202C28.7587 107.667 29.8537 107.642 33.0091 107.424C36.3685 107.193 37.089 106.785 37.3478 106.252C37.5242 105.893 37.8935 105.007 37.7968 103.527C37.6916 101.885 37.0706 100.466 35.9049 100.455C35.1779 100.449 34.5693 100.453 32.6649 100.478C30.1444 100.508 28.5334 100.333 28.1294 100.631C27.6618 100.98 28.5766 101.986 28.6484 103.696V103.696Z" fill="#EC7FAC"/>
</g>
<defs>
<clipPath id="clip0_1332_10116">
<rect width="51.5037" height="51.5037" fill="white" transform="translate(26 29.7969) rotate(-35.3484)"/>
</clipPath>
<clipPath id="clip1_1332_10116">
<rect width="42.873" height="42.873" fill="white" transform="translate(0 92.8037) rotate(-35.3484)"/>
</clipPath>
</defs>
</svg>
