<svg width="92" height="158" viewBox="0 0 92 158" fill="none" xmlns="http://www.w3.org/2000/svg">
<g clip-path="url(#clip0_1332_10117)">
<path d="M47.0488 27.7818C48.1842 30.9821 51.1988 32.1442 56.996 30.775C59.8047 30.1098 63.1829 29.2182 65.8986 30.5084C68.0983 31.5578 69.149 35.7654 64.2239 38.2179C59.1502 40.7462 51.0265 38.2997 43.0215 40.2284C35.7384 41.9856 31.7347 46.6064 34.5256 50.4577C36.6363 53.3708 39.5664 52.5011 40.7139 51.4899C41.4846 50.81 41.9992 49.8037 43.4368 48.4781C45.23 46.8264 53.4035 46.8253 58.6132 46.5684C64.9223 46.2618 74.2638 41.5647 74.1241 34.4614C73.9966 28.0153 69.8956 24.5358 64.1775 24.3541C58.9958 24.1915 53.6552 26.9832 53.0408 25.199C52.2805 23.0004 58.6735 20.962 62.2681 18.136C65.9251 15.2658 65.6812 13.3571 65.2235 12.7049C64.5541 11.7541 63.3395 14.1104 60.4573 15.6318C55.3935 18.306 51.9537 18.5753 48.4304 21.8983C46.9626 23.2995 46.2526 25.5396 47.0488 27.7818Z" fill="#EC7FAC"/>
<path d="M58.7574 17.9918C59.1123 18.5687 59.5627 19.1619 59.9871 19.6699C60.8026 19.1852 61.5873 18.6779 62.2706 18.139C62.5567 17.9164 62.8072 17.6992 63.0478 17.4891C62.7398 17.1452 62.3931 16.7399 62.1687 16.4304C61.8535 15.993 61.5459 15.5107 61.3128 15.1333C61.0465 15.3074 60.7634 15.4786 60.4621 15.638C59.6792 16.0495 58.8823 16.4338 58.0728 16.7902C58.2559 17.1388 58.4843 17.5441 58.7574 17.9918ZM48.3215 24.0324C50.8144 22.6786 52.3999 23.4533 53.0995 24.3284C53.3926 23.6914 54.3052 22.975 55.1724 22.424C54.7251 22.0161 54.2114 21.5073 53.7739 20.974C53.4534 20.5847 52.8663 19.7432 52.4688 19.1619C51.0783 19.8374 49.7645 20.6558 48.4375 21.9078C47.5638 22.7347 46.7528 23.9908 46.7219 25.6998C46.9829 25.1497 47.5938 24.4253 48.3215 24.0324ZM67.1242 26.7135C68.158 25.9802 69.0048 25.8038 69.6137 25.8208C68.0848 24.9172 66.2384 24.4214 64.18 24.3571C63.6403 24.3403 63.0948 24.3572 62.5577 24.3929C62.1747 24.8126 61.6385 25.5728 61.5432 26.6417C61.4365 27.8126 62.2337 29.1661 62.6978 29.8482C63.782 29.8537 64.8386 30.0218 65.8129 30.4704C65.6568 29.7079 65.4865 27.8751 67.1242 26.7135Z" fill="#FEA8A7"/>
<path d="M55.3021 31.1132C54.7627 30.5683 53.9303 29.5061 53.7809 28.0088C53.678 27.0014 54.1703 26.228 54.5441 25.7951C53.7506 25.8449 53.2151 25.7019 53.0422 25.2078C53.0153 25.1282 53.0522 25.2846 53.0422 25.2078C52.2353 24.6406 50.898 23.9514 48.8598 25.0074C47.6036 25.6567 47.096 26.8258 47.0794 27.8735C48.1207 30.6769 50.6538 31.8696 55.3021 31.1132ZM60.4096 26.9427C60.4598 25.7824 60.8904 24.9985 61.2488 24.537C59.1603 24.8197 57.2066 25.3619 55.7196 25.6372C55.3407 26.0835 54.8351 26.9009 54.9564 28.0038C55.108 29.386 56.0345 30.421 56.5279 30.8801C56.6809 30.8455 56.833 30.8165 56.995 30.7806C58.3933 30.4498 59.9306 30.0648 61.4593 29.9178C61.0572 29.2953 60.3615 28.0572 60.4096 26.9427ZM58.0581 18.7937C57.7365 18.2917 57.4246 17.699 57.1686 17.185C55.8041 17.7582 54.5551 18.2297 53.3732 18.7474C53.7143 19.2701 54.2022 19.9649 54.7148 20.5484C55.1189 21.0068 55.6651 21.4777 56.1279 21.845C57.0403 21.3162 58.0618 20.7742 59.0745 20.1989C58.741 19.7844 58.381 19.3046 58.0581 18.7937ZM62.0852 14.5954C62.3636 14.9948 62.7198 15.497 62.9764 15.8379C63.1925 16.1286 63.4977 16.4893 63.7703 16.8041C65.8377 14.6766 65.6123 13.2529 65.2282 12.7114C64.6998 11.9664 63.8297 13.2643 62.0852 14.5954ZM67.8067 27.5023C66.6339 28.5265 66.6442 30.231 66.7716 31.1618C67.3188 31.7455 67.6875 32.5643 67.7262 33.4742C68.2397 33.2037 69.3953 32.7047 70.6758 32.8965C72.4094 33.1567 73.5234 34.3447 74.1044 35.1708C74.1211 34.937 74.1265 34.7013 74.1241 34.4613C74.0567 31.0558 72.879 28.4774 70.9374 26.7764C70.139 26.6175 68.8739 26.5726 67.8067 27.5023ZM70.5191 34.31C69.4929 34.0316 68.1962 34.4777 67.5751 34.7357C67.3159 35.6152 66.7278 36.5109 65.6914 37.3101C66.1593 37.5455 66.9816 38.1067 67.9035 39.4064C68.8183 40.6962 69.1377 42.0088 69.2461 42.7459C71.3589 41.2177 73.0412 39.2844 73.7517 37.0243C73.2574 36.2649 72.0777 34.7338 70.5191 34.31ZM46.4071 43.3323C46.091 42.1703 45.0623 40.6505 44.532 39.9167C44.0289 40.0072 43.5238 40.1089 43.0182 40.2307C35.7361 41.9822 31.4544 46.9136 34.2487 50.7626C36.3593 53.6757 39.5664 52.501 40.7138 51.4898C41.4846 50.8099 41.9992 49.8036 43.4368 48.478C43.9566 48.0008 45.0163 47.6586 46.3801 47.4115C46.5899 46.6362 46.8744 45.0482 46.4071 43.3323ZM66.7677 40.2811C65.8766 39.1569 64.995 38.4009 64.5153 38.0654C64.4197 38.1184 64.3208 38.1737 64.2173 38.2225C59.8282 40.4083 53.1542 38.8721 46.2509 39.6693C46.7574 40.2374 47.5211 41.4322 48.0703 43.8201C48.3234 44.9281 48.1266 46.4588 48.0077 47.1746C51.2566 46.7891 55.4694 46.7263 58.6122 46.5739C61.4674 46.4332 64.9429 45.3937 67.8787 43.6418C67.8153 42.8778 67.5764 41.296 66.7677 40.2811Z" fill="#FEA8A7"/>
<path d="M39.2069 46.575C38.949 46.1107 38.3998 45.9233 37.9801 46.1564C37.5605 46.3894 37.4294 46.9548 37.6873 47.4191C37.9452 47.8834 38.4945 48.0708 38.9141 47.8377C39.3337 47.6047 39.4648 47.0393 39.2069 46.575Z" fill="black"/>
<path d="M36.1689 49.7844C36.5311 49.4695 36.5422 48.8892 36.1937 48.4885C35.8452 48.0877 35.2691 48.0181 34.9068 48.333C34.5446 48.648 34.5335 49.2282 34.882 49.629C35.2305 50.0298 35.8066 50.0994 36.1689 49.7844Z" fill="black"/>
<path d="M38.2562 49.7012C38.8273 49.2961 38.8314 48.6272 39.3754 48.7544C40.0522 48.9156 39.5583 50.0207 38.833 50.5352C37.9698 51.1474 36.8768 50.9904 37.0182 50.3622C37.1312 49.8677 37.6097 50.1597 38.2562 49.7012Z" fill="black"/>
<path d="M51.4159 42.8823C51.5106 45.1091 50.677 46.3959 51.1616 47.0931C51.5485 47.6524 52.8639 47.6221 56.6545 47.3605C60.6902 47.0829 61.5558 46.5923 61.8666 45.9525C62.0785 45.521 62.5222 44.4565 62.406 42.6791C62.2796 40.7066 61.5336 39.0011 60.1332 38.9881C59.2599 38.981 58.5288 38.9865 56.2409 39.0159C53.2131 39.0522 51.2777 38.8414 50.7924 39.2004C50.2307 39.6186 51.3296 40.8272 51.4159 42.8823Z" fill="#EC7FAC"/>
</g>
<g clip-path="url(#clip1_1332_10117)">
<path d="M25.0139 121.126C25.9591 123.79 28.4685 124.758 33.2942 123.618C35.6322 123.064 38.4443 122.322 40.705 123.396C42.536 124.27 43.4106 127.772 39.3109 129.814C35.0874 131.918 28.325 129.882 21.6615 131.487C15.5989 132.95 12.266 136.796 14.5893 140.002C16.3463 142.427 18.7853 141.703 19.7405 140.862C20.3821 140.296 20.8105 139.458 22.0071 138.355C23.4998 136.98 30.3037 136.979 34.6404 136.765C39.8923 136.51 47.6684 132.6 47.552 126.687C47.446 121.321 44.0322 118.424 39.2723 118.273C34.9589 118.138 30.5132 120.462 30.0018 118.976C29.3689 117.146 34.6906 115.449 37.6828 113.097C40.727 110.708 40.524 109.119 40.143 108.576C39.5857 107.784 38.5747 109.746 36.1755 111.012C31.9602 113.238 29.0968 113.463 26.1639 116.229C24.9421 117.395 24.3511 119.26 25.0139 121.126Z" fill="#EC7FAC"/>
<path d="M34.7597 112.977C35.0552 113.457 35.43 113.951 35.7834 114.374C36.4622 113.97 37.1154 113.548 37.6842 113.099C37.9223 112.914 38.1308 112.733 38.3312 112.558C38.0747 112.272 37.7861 111.935 37.5993 111.677C37.3369 111.313 37.0809 110.911 36.8868 110.597C36.6652 110.742 36.4296 110.885 36.1788 111.018C35.527 111.36 34.8637 111.68 34.1898 111.977C34.3423 112.267 34.5323 112.604 34.7597 112.977ZM26.0726 118.005C28.1477 116.878 29.4675 117.523 30.0499 118.252C30.2939 117.721 31.0536 117.125 31.7754 116.666C31.4031 116.327 30.9754 115.903 30.6113 115.459C30.3445 115.135 29.8558 114.435 29.5249 113.951C28.3674 114.513 27.2737 115.194 26.1691 116.237C25.4419 116.925 24.7668 117.971 24.741 119.393C24.9583 118.935 25.4668 118.332 26.0726 118.005ZM41.7244 120.237C42.585 119.627 43.2899 119.48 43.7968 119.494C42.5241 118.742 40.987 118.329 39.2736 118.275C38.8243 118.262 38.3703 118.276 37.9232 118.305C37.6043 118.655 37.1579 119.287 37.0787 120.177C36.9898 121.152 37.6535 122.279 38.0398 122.846C38.9423 122.851 39.8218 122.991 40.6328 123.364C40.5029 122.73 40.3612 121.204 41.7244 120.237Z" fill="#FEA8A7"/>
<path d="M31.8834 123.899C31.4344 123.445 30.7415 122.561 30.6171 121.315C30.5315 120.476 30.9413 119.832 31.2524 119.472C30.5919 119.513 30.1461 119.394 30.0022 118.983C29.9799 118.917 30.0106 119.047 30.0022 118.983C29.3306 118.511 28.2173 117.937 26.5207 118.816C25.475 119.357 25.0524 120.33 25.0386 121.202C25.9055 123.536 28.0141 124.529 31.8834 123.899ZM36.1351 120.427C36.1768 119.461 36.5353 118.809 36.8336 118.425C35.0951 118.66 33.4688 119.111 32.231 119.34C31.9155 119.712 31.4947 120.392 31.5956 121.311C31.7219 122.461 32.4931 123.323 32.9038 123.705C33.0312 123.676 33.1578 123.652 33.2927 123.622C34.4566 123.347 35.7363 123.026 37.0088 122.904C36.6741 122.386 36.095 121.355 36.1351 120.427ZM34.1776 113.644C33.9099 113.226 33.6502 112.733 33.4371 112.305C32.3013 112.782 31.2616 113.174 30.2778 113.605C30.5617 114.04 30.9679 114.619 31.3946 115.105C31.7309 115.486 32.1856 115.878 32.5708 116.184C33.3304 115.744 34.1807 115.292 35.0237 114.814C34.746 114.468 34.4464 114.069 34.1776 113.644ZM37.5299 110.149C37.7616 110.482 38.0581 110.9 38.2717 111.183C38.4516 111.425 38.7056 111.726 38.9325 111.988C40.6536 110.217 40.4659 109.032 40.1462 108.581C39.7063 107.961 38.982 109.041 37.5299 110.149ZM42.2926 120.893C41.3163 121.746 41.3249 123.165 41.431 123.939C41.8865 124.425 42.1934 125.107 42.2255 125.864C42.653 125.639 43.615 125.224 44.6809 125.383C46.124 125.6 47.0513 126.589 47.535 127.277C47.5488 127.082 47.5534 126.886 47.5513 126.686C47.4953 123.851 46.5149 121.705 44.8987 120.289C44.2341 120.157 43.1809 120.119 42.2926 120.893ZM44.5505 126.56C43.6962 126.328 42.6168 126.7 42.0998 126.914C41.884 127.646 41.3944 128.392 40.5317 129.057C40.9212 129.253 41.6058 129.72 42.3731 130.802C43.1347 131.876 43.4005 132.969 43.4908 133.582C45.2495 132.31 46.6499 130.701 47.2413 128.819C46.8299 128.187 45.8479 126.913 44.5505 126.56ZM24.479 134.07C24.2159 133.103 23.3596 131.838 22.9181 131.227C22.4993 131.302 22.0789 131.387 21.658 131.488C15.5962 132.947 12.032 137.052 14.358 140.256C16.115 142.68 18.7846 141.703 19.7398 140.861C20.3814 140.295 20.8097 139.457 22.0064 138.354C22.4391 137.957 23.3212 137.672 24.4565 137.466C24.6312 136.821 24.868 135.499 24.479 134.07ZM41.4277 131.53C40.6859 130.595 39.9521 129.965 39.5527 129.686C39.4732 129.73 39.3909 129.776 39.3047 129.817C35.6511 131.636 30.0955 130.358 24.3489 131.021C24.7706 131.494 25.4063 132.489 25.8635 134.476C26.0742 135.399 25.9103 136.673 25.8114 137.269C28.5159 136.948 32.0227 136.896 34.6389 136.769C37.0156 136.652 39.9087 135.786 42.3525 134.328C42.2997 133.692 42.1008 132.375 41.4277 131.53Z" fill="#FEA8A7"/>
<path d="M18.4856 136.77C18.2709 136.384 17.8137 136.228 17.4644 136.422C17.1151 136.616 17.006 137.087 17.2207 137.473C17.4353 137.86 17.8925 138.016 18.2418 137.822C18.5911 137.628 18.7003 137.157 18.4856 136.77Z" fill="black"/>
<path d="M15.9559 139.441C16.2574 139.179 16.2667 138.696 15.9766 138.363C15.6865 138.029 15.2069 137.971 14.9053 138.233C14.6038 138.495 14.5945 138.978 14.8846 139.312C15.1747 139.646 15.6543 139.704 15.9559 139.441Z" fill="black"/>
<path d="M17.694 139.372C18.1694 139.035 18.1728 138.479 18.6256 138.584C19.189 138.719 18.7779 139.638 18.1741 140.067C17.4556 140.576 16.5457 140.446 16.6635 139.923C16.7575 139.511 17.1558 139.754 17.694 139.372Z" fill="black"/>
<path d="M28.6484 133.696C28.7272 135.55 28.0333 136.621 28.4367 137.202C28.7587 137.667 29.8537 137.642 33.0091 137.424C36.3685 137.193 37.089 136.785 37.3478 136.252C37.5242 135.893 37.8935 135.007 37.7968 133.527C37.6916 131.885 37.0706 130.466 35.9049 130.455C35.1779 130.449 34.5693 130.453 32.6649 130.478C30.1444 130.508 28.5334 130.333 28.1294 130.631C27.6618 130.98 28.5766 131.986 28.6484 133.696Z" fill="#EC7FAC"/>
</g>
<g clip-path="url(#clip2_1332_10117)">
<path d="M57.0139 74.1263C57.9591 76.7904 60.4685 77.7577 65.2942 76.618C67.6322 76.0642 70.4443 75.3221 72.705 76.396C74.536 77.2696 75.4106 80.7721 71.3109 82.8136C67.0874 84.9182 60.325 82.8817 53.6615 84.4872C47.5989 85.9499 44.266 89.7964 46.5893 93.0023C48.3463 95.4273 50.7853 94.7033 51.7405 93.8616C52.3821 93.2956 52.8105 92.4579 54.0071 91.3545C55.4998 89.9795 62.3037 89.9786 66.6404 89.7648C71.8923 89.5096 79.6684 85.5995 79.552 79.6866C79.446 74.3207 76.0322 71.4242 71.2723 71.273C66.9589 71.1377 62.5132 73.4615 62.0018 71.9764C61.3689 70.1462 66.6906 68.4494 69.6828 66.097C72.727 63.7077 72.524 62.1188 72.143 61.576C71.5857 60.7845 70.5747 62.7459 68.1755 64.0124C63.9602 66.2385 61.0968 66.4626 58.1639 69.2287C56.9421 70.3952 56.3511 72.2598 57.0139 74.1263Z" fill="#EC7FAC"/>
<path d="M66.7597 65.9768C67.0552 66.4571 67.43 66.9509 67.7834 67.3737C68.4622 66.9703 69.1154 66.548 69.6842 66.0994C69.9223 65.9141 70.1308 65.7333 70.3312 65.5584C70.0747 65.2721 69.7861 64.9347 69.5993 64.6771C69.3369 64.313 69.0809 63.9115 68.8868 63.5974C68.6652 63.7423 68.4296 63.8848 68.1788 64.0175C67.527 64.3601 66.8637 64.6799 66.1898 64.9766C66.3423 65.2668 66.5323 65.6042 66.7597 65.9768ZM58.0726 71.0052C60.1477 69.8782 61.4675 70.5231 62.0499 71.2516C62.2939 70.7213 63.0536 70.125 63.7754 69.6663C63.4031 69.3267 62.9754 68.9033 62.6113 68.4593C62.3445 68.1353 61.8558 67.4348 61.5249 66.9508C60.3674 67.5132 59.2737 68.1944 58.1691 69.2366C57.4419 69.925 56.7668 70.9705 56.741 72.3932C56.9583 71.9352 57.4668 71.3322 58.0726 71.0052ZM73.7244 73.237C74.585 72.6266 75.2899 72.4798 75.7968 72.4939C74.5241 71.7418 72.987 71.329 71.2736 71.2755C70.8243 71.2615 70.3703 71.2756 69.9232 71.3053C69.6043 71.6546 69.1579 72.2874 69.0787 73.1773C68.9898 74.152 69.6535 75.2786 70.0398 75.8465C70.9423 75.851 71.8218 75.991 72.6328 76.3643C72.5029 75.7296 72.3612 74.204 73.7244 73.237Z" fill="#FEA8A7"/>
<path d="M63.8834 76.8988C63.4344 76.4453 62.7415 75.5611 62.6171 74.3147C62.5315 73.4761 62.9413 72.8323 63.2524 72.472C62.5919 72.5134 62.1461 72.3943 62.0022 71.9831C61.9799 71.9168 62.0106 72.047 62.0022 71.9831C61.3306 71.5109 60.2173 70.9372 58.5207 71.8162C57.475 72.3567 57.0524 73.3299 57.0386 74.202C57.9055 76.5357 60.0141 77.5285 63.8834 76.8988ZM68.1351 73.4273C68.1768 72.4614 68.5353 71.8088 68.8336 71.4247C67.0951 71.66 65.4688 72.1113 64.231 72.3405C63.9155 72.7121 63.4947 73.3925 63.5956 74.3105C63.7219 75.4611 64.4931 76.3226 64.9038 76.7048C65.0312 76.676 65.1578 76.6519 65.2927 76.622C66.4566 76.3466 67.7363 76.0261 69.0088 75.9038C68.6741 75.3856 68.095 74.355 68.1351 73.4273ZM66.1776 66.6438C65.9099 66.2259 65.6502 65.7325 65.4371 65.3047C64.3013 65.7818 63.2616 66.1744 62.2778 66.6053C62.5617 67.0403 62.9679 67.6187 63.3946 68.1045C63.7309 68.486 64.1856 68.8781 64.5708 69.1838C65.3304 68.7436 66.1807 68.2924 67.0237 67.8136C66.746 67.4684 66.4464 67.0691 66.1776 66.6438ZM69.5299 63.149C69.7616 63.4815 70.0581 63.8995 70.2717 64.1833C70.4516 64.4253 70.7056 64.7256 70.9325 64.9876C72.6536 63.2166 72.4659 62.0315 72.1462 61.5807C71.7063 60.9606 70.982 62.041 69.5299 63.149ZM74.2926 73.893C73.3163 74.7456 73.3249 76.1645 73.431 76.9393C73.8865 77.4252 74.1934 78.1068 74.2255 78.8643C74.653 78.6391 75.615 78.2237 76.6809 78.3833C78.124 78.5999 79.0513 79.5889 79.535 80.2765C79.5488 80.0819 79.5534 79.8857 79.5513 79.6859C79.4953 76.8511 78.5149 74.7048 76.8987 73.2888C76.2341 73.1565 75.1809 73.1192 74.2926 73.893ZM76.5505 79.56C75.6962 79.3282 74.6168 79.6996 74.0998 79.9144C73.884 80.6465 73.3944 81.392 72.5317 82.0573C72.9212 82.2533 73.6058 82.7205 74.3731 83.8023C75.1347 84.876 75.4005 85.9687 75.4908 86.5822C77.2495 85.3101 78.6499 83.7008 79.2413 81.8194C78.8299 81.1873 77.8479 79.9127 76.5505 79.56ZM56.479 87.0704C56.2159 86.1031 55.3596 84.8379 54.9181 84.2271C54.4993 84.3024 54.0789 84.3871 53.658 84.4885C47.5962 85.9465 44.032 90.0515 46.358 93.2555C48.115 95.6805 50.7846 94.7027 51.7398 93.8609C52.3814 93.2949 52.8097 92.4572 54.0064 91.3538C54.4391 90.9565 55.3212 90.6717 56.4565 90.466C56.6312 89.8206 56.868 88.4987 56.479 87.0704ZM73.4277 84.5305C72.6859 83.5947 71.9521 82.9654 71.5527 82.686C71.4732 82.7302 71.3909 82.7762 71.3047 82.8168C67.6511 84.6364 62.0955 83.3576 56.3489 84.0212C56.7706 84.4941 57.4063 85.4887 57.8635 87.4764C58.0742 88.3987 57.9103 89.673 57.8114 90.2688C60.5159 89.9479 64.0227 89.8956 66.6389 89.7688C69.0156 89.6516 71.9087 88.7863 74.3525 87.328C74.2997 86.692 74.1008 85.3753 73.4277 84.5305Z" fill="#FEA8A7"/>
<path d="M50.4856 89.7704C50.2709 89.3839 49.8137 89.2279 49.4644 89.4219C49.1151 89.6159 49.006 90.0865 49.2207 90.473C49.4353 90.8595 49.8925 91.0156 50.2418 90.8215C50.5911 90.6275 50.7003 90.1569 50.4856 89.7704Z" fill="black"/>
<path d="M47.9559 92.4415C48.2574 92.1793 48.2667 91.6963 47.9766 91.3627C47.6865 91.029 47.2069 90.9711 46.9053 91.2333C46.6038 91.4955 46.5945 91.9785 46.8846 92.3121C47.1747 92.6457 47.6543 92.7037 47.9559 92.4415Z" fill="black"/>
<path d="M49.694 92.3725C50.1694 92.0353 50.1728 91.4785 50.6256 91.5844C51.189 91.7186 50.7779 92.6385 50.1741 93.0668C49.4556 93.5764 48.5457 93.4457 48.6635 92.9228C48.7575 92.5111 49.1558 92.7542 49.694 92.3725Z" fill="black"/>
<path d="M60.6484 86.6964C60.7272 88.55 60.0333 89.6212 60.4367 90.2015C60.7587 90.6671 61.8537 90.6419 65.0091 90.4242C68.3685 90.1931 69.089 89.7847 69.3478 89.2521C69.5242 88.8929 69.8935 88.0068 69.7968 86.5272C69.6916 84.8853 69.0706 83.4656 67.9049 83.4547C67.1779 83.4488 66.5693 83.4534 64.6649 83.4779C62.1444 83.5081 60.5334 83.3326 60.1294 83.6315C59.6618 83.9796 60.5766 84.9856 60.6484 86.6964Z" fill="#EC7FAC"/>
</g>
<defs>
<clipPath id="clip0_1332_10117">
<rect width="51.5037" height="51.5037" fill="white" transform="translate(17 29.7969) rotate(-35.3484)"/>
</clipPath>
<clipPath id="clip1_1332_10117">
<rect width="42.873" height="42.873" fill="white" transform="translate(0 122.804) rotate(-35.3484)"/>
</clipPath>
<clipPath id="clip2_1332_10117">
<rect width="42.873" height="42.873" fill="white" transform="translate(32 75.8037) rotate(-35.3484)"/>
</clipPath>
</defs>
</svg>
