<svg width="146" height="157" viewBox="0 0 146 157" fill="none" xmlns="http://www.w3.org/2000/svg">
<path d="M132.069 48.2775L101.105 14.9804C99.9651 13.762 98.4233 13.0781 96.8161 13.0781C95.209 13.0781 93.6672 13.762 92.5274 14.9804C91.9572 15.5885 91.5046 16.312 91.1958 17.1092C90.887 17.9064 90.728 18.7614 90.728 19.625C90.728 20.4886 90.887 21.3436 91.1958 22.1407C91.5046 22.9379 91.9572 23.6614 92.5274 24.2696L103.417 36.2408L70.4449 71.9583L64.3616 65.4166C62.6661 63.5871 60.6514 62.1354 58.4331 61.1449C56.2148 60.1544 53.8364 59.6445 51.4345 59.6445C49.0325 59.6445 46.6542 60.1544 44.4359 61.1449C42.2176 62.1354 40.2029 63.5871 38.5074 65.4166L17.5199 87.7891C15.8175 89.6175 14.4681 91.7899 13.5493 94.1812C12.6306 96.5725 12.1607 99.1356 12.1666 101.723V124.292C12.1666 129.497 14.0893 134.488 17.5119 138.169C20.9344 141.849 25.5764 143.917 30.4166 143.917H51.4041C53.8101 143.923 56.1936 143.418 58.4174 142.43C60.6411 141.442 62.6613 139.991 64.3616 138.16L85.1666 115.722C86.8679 113.899 88.2179 111.732 89.139 109.347C90.0601 106.961 90.5343 104.404 90.5343 101.821C90.5343 99.2381 90.0601 96.6806 89.139 94.2951C88.2179 91.9097 86.8679 89.7432 85.1666 87.92L79.0832 81.3783L112.298 45.7916L123.431 57.7629C123.996 58.376 124.669 58.8627 125.41 59.1948C126.152 59.5269 126.947 59.6979 127.75 59.6979C128.553 59.6979 129.348 59.5269 130.089 59.1948C130.831 58.8627 131.504 58.376 132.069 57.7629C132.667 57.1518 133.144 56.4162 133.469 55.6008C133.795 54.7855 133.963 53.9075 133.963 53.0202C133.963 52.1329 133.795 51.2549 133.469 50.4395C133.144 49.6242 132.667 48.8886 132.069 48.2775ZM76.6499 106.433L55.7232 128.936C55.1548 129.543 54.4807 130.022 53.7395 130.348C52.9983 130.673 52.2047 130.838 51.4041 130.833H30.4166C28.8032 130.833 27.2558 130.144 26.115 128.917C24.9741 127.691 24.3332 126.027 24.3332 124.292V101.723C24.3286 100.862 24.482 100.009 24.7848 99.2115C25.0875 98.4145 25.5336 97.6896 26.0974 97.0783L47.0241 74.575C48.1638 73.3566 49.7057 72.6727 51.3128 72.6727C52.9199 72.6727 54.4618 73.3566 55.6016 74.575L61.6849 81.1166L56.2707 87.0042C55.1377 88.2298 54.5017 89.8878 54.5017 91.616C54.5017 93.3442 55.1377 95.0022 56.2707 96.2279C56.8677 96.8664 57.5815 97.3648 58.3668 97.6913C59.1522 98.0179 59.992 98.1655 60.8332 98.125C62.4291 98.1178 63.9585 97.4364 65.0916 96.2279L70.5666 90.4058L76.6499 96.9475C77.2481 97.5586 77.7245 98.2942 78.05 99.1095C78.3755 99.9249 78.5433 100.803 78.5433 101.69C78.5433 102.577 78.3755 103.456 78.05 104.271C77.7245 105.086 77.2481 105.822 76.6499 106.433Z" fill="black"/>
<path d="M18 100L51.5 68L85 100L51.5 132.5H18V100Z" fill="black" stroke="black"/>
</svg>
