<svg width="128" height="128" viewBox="0 0 128 128" fill="none" xmlns="http://www.w3.org/2000/svg">
<g clip-path="url(#clip0_681_11830)">
<path d="M97.7041 107.11C98.0133 108.26 97.4653 109.494 96.3541 110.021C95.1031 110.606 93.6236 110.072 93.0314 108.834C92.9608 108.687 88.5598 99.8367 77.2244 95.7726C76.9147 95.6627 76.6298 95.4927 76.386 95.2723C76.1423 95.052 75.9444 94.7856 75.8039 94.4886C75.6633 94.1915 75.5828 93.8696 75.567 93.5414C75.5512 93.2132 75.6004 92.8851 75.7118 92.5759C76.181 91.2794 77.6024 90.5966 78.9085 91.0632C92.3166 95.864 97.3491 106.253 97.5511 106.696C97.6164 106.823 97.6651 106.966 97.7041 107.11Z" fill="#424242"/>
<path d="M60.65 15.8996C64.25 12.6696 69.24 11.6796 74 13.2696C76.04 13.9396 77.83 14.9396 79.34 16.2496C91.98 27.2396 85.16 47.6996 79 64.1296C78.96 64.2296 76.19 72.5996 73.21 73.2496C70.78 73.7796 67.96 70.1596 67.96 70.1596C67.83 70.0396 64.83 66.1796 64.5 65.6596C59.15 57.8396 55.58 49.1496 53.86 39.8196C53.48 37.7496 53.3 35.4596 53.39 33.0696C53.42 32.1496 53.49 31.2196 53.62 30.2896C53.73 29.4196 53.88 28.5496 54.07 27.6896C55.01 23.5396 56.93 19.4696 60.26 16.2596L60.65 15.8996Z" fill="#BDBDBD"/>
<path d="M111.835 66.43L122.655 65.05L115.945 73.45L111.835 66.43ZM23.9449 42.26C23.1449 42.26 22.3649 41.88 21.8749 41.17C12.1049 26.82 1.94487 31.32 1.84487 31.37C0.594866 31.95 -0.895134 31.41 -1.47513 30.16C-1.75429 29.5592 -1.78367 28.8722 -1.55682 28.2497C-1.32996 27.6273 -0.865414 27.1203 -0.265134 26.84C-0.125134 26.78 13.8749 20.54 26.0049 38.36C26.2607 38.7348 26.4094 39.1722 26.435 39.6252C26.4606 40.0782 26.3621 40.5296 26.1502 40.9308C25.9383 41.332 25.621 41.6678 25.2323 41.902C24.8437 42.1363 24.3986 42.26 23.9449 42.26ZM39.5449 36.46C38.3049 36.46 37.2249 35.54 37.0649 34.27C34.9149 17.33 24.3849 17.01 23.9349 17C22.5649 16.98 21.4449 15.86 21.4549 14.49C21.4549 13.12 22.5549 12.01 23.9249 12C24.1749 12 39.2949 12.21 42.0249 33.63C42.1949 35 41.2349 36.25 39.8549 36.43C39.7549 36.46 39.6549 36.46 39.5449 36.46Z" fill="#424242"/>
<path d="M108.124 93.3805C117.512 88.9704 120.663 75.9049 115.164 64.1979C109.664 52.4908 97.5954 46.5755 88.2078 50.9855C78.8201 55.3956 75.6683 68.4611 81.168 80.1682C86.6677 91.8752 98.7363 97.7906 108.124 93.3805Z" fill="#424242"/>
<path d="M99.5848 96.6334C108.972 92.2234 112.124 79.1578 106.625 67.4508C101.125 55.7437 89.0563 49.8284 79.6687 54.2385C70.2811 58.6486 67.1293 71.7141 72.629 83.4211C78.1286 95.1282 90.1972 101.044 99.5848 96.6334Z" fill="#FFD55D"/>
<path d="M89.6239 101.8C99.0115 97.3904 102.163 84.3248 96.6636 72.6178C91.164 60.9107 79.0954 54.9954 69.7078 59.4055C60.3201 63.8155 57.1683 76.8811 62.668 88.5881C68.1677 100.295 80.2363 106.211 89.6239 101.8Z" fill="#424242"/>
<path d="M79.9139 105.721C89.3016 101.311 92.4534 88.2457 86.9537 76.5387C81.454 64.8316 69.3854 58.9163 59.9978 63.3264C50.6102 67.7364 47.4584 80.802 52.9581 92.509C58.4578 104.216 70.5263 110.131 79.9139 105.721Z" fill="#FFD55D"/>
<path d="M99.0098 18.1295C104.37 17.4995 109.55 19.8095 112.87 24.3195C114.3 26.2395 115.28 28.3095 115.82 30.4695C120.28 48.5995 100.91 62.8695 84.7298 73.8795C84.6298 73.9495 76.7298 79.7995 73.5898 78.4695C71.0398 77.3895 70.7898 72.2695 70.7898 72.2695C70.7498 72.0795 70.4998 66.6295 70.5298 65.9495C70.6798 55.3895 73.0098 45.1695 77.4398 35.5695C78.4198 33.4395 79.7298 31.2295 81.3498 29.1195C81.9698 28.2995 82.6298 27.4995 83.3498 26.7295C84.0098 26.0095 84.6998 25.3095 85.4298 24.6495C88.9498 21.4695 93.3198 18.9995 98.4198 18.2095L99.0098 18.1295Z" fill="#ECEFF1"/>
<path d="M30.1872 100.646C27.7272 100.646 26.1872 100.356 26.0172 100.326C25.3663 100.197 24.7932 99.8153 24.4238 99.2641C24.0545 98.7128 23.919 98.0375 24.0472 97.3864C24.177 96.738 24.5578 96.1672 25.1066 95.7982C25.6554 95.4292 26.3277 95.292 26.9772 95.4165C27.1372 95.4465 36.8772 97.1564 46.8772 90.4264C48.0172 89.6564 49.5772 89.9564 50.3472 91.1064C51.1172 92.2564 50.8172 93.8064 49.6672 94.5764C42.0472 99.7064 34.6372 100.646 30.1872 100.646Z" fill="#424242"/>
<path d="M39.4987 110.908C38.3087 110.908 37.2587 110.058 37.0387 108.848C36.7987 107.488 37.6987 106.198 39.0487 105.948C39.2087 105.918 48.8987 103.968 55.7687 94.078C55.9554 93.8075 56.1936 93.5766 56.4697 93.3984C56.7459 93.2203 57.0545 93.0984 57.3778 93.0399C57.7012 92.9814 58.0329 92.9873 58.354 93.0573C58.6751 93.1273 58.9791 93.2601 59.2487 93.448C60.3787 94.238 60.6687 95.788 59.8787 96.928C51.7587 108.628 40.4187 110.788 39.9387 110.868C39.7987 110.898 39.6487 110.908 39.4987 110.908Z" fill="#424242"/>
<path d="M115.98 98.9143C116.478 99.9951 116.145 101.304 115.138 102.011C114.003 102.798 112.455 102.52 111.663 101.399C111.569 101.266 105.743 93.2812 93.8856 91.1803C93.5619 91.124 93.2525 91.0042 92.9751 90.828C92.6977 90.6518 92.4579 90.4224 92.2695 90.1533C92.081 89.8841 91.9475 89.5803 91.8768 89.2594C91.806 88.9385 91.7994 88.6068 91.8572 88.2833C92.1018 86.9264 93.3882 86.0144 94.7542 86.2548C108.778 88.7336 115.486 98.129 115.759 98.5315C115.845 98.6461 115.917 98.7781 115.98 98.9143Z" fill="#424242"/>
<path d="M75.8816 67.3432C75.081 66.3358 76.7986 63.2328 75.8379 62.4134C74.8481 61.5806 71.6604 63.4746 70.5251 62.8567C69.3752 62.2253 69.6809 58.7462 68.4291 58.3298C67.1773 57.9134 64.9939 60.7612 63.6694 60.5597C62.3594 60.3582 61.3114 57 59.9722 57C58.6477 57 57.6288 60.3716 56.3042 60.5865C55.0088 60.788 52.84 57.9268 51.5591 58.3298C50.3219 58.7194 50.4965 62.2119 49.2884 62.803C48.124 63.3671 45.1109 61.2447 44.0193 61.9836C42.9276 62.7224 44.2231 66.0134 43.306 66.8731C42.3454 67.7597 38.7792 66.5641 38.0078 67.5447C37.2072 68.5522 39.5361 71.3194 38.9394 72.394C38.328 73.5089 34.5436 73.4015 34.136 74.5701C33.7284 75.7522 36.9016 77.6731 36.7269 78.8821C36.5522 80.1044 32.9424 81.1925 33.0007 82.4149C33.0589 83.6507 36.756 84.403 37.0617 85.5985C37.3673 86.794 34.4708 89.0238 35.0384 90.1522C35.5916 91.2537 39.3178 90.6492 40.1184 91.6567C40.9189 92.6642 39.2014 95.7671 40.162 96.5865C41.1518 97.4194 44.3395 95.5253 45.4748 96.1432C46.6247 96.7746 46.3191 100.254 47.5709 100.67C48.8226 101.087 51.006 98.2388 52.3305 98.4403C53.6405 98.6418 54.6886 102 56.0277 102C57.3522 102 58.3711 98.6283 59.6957 98.4134C60.9912 98.2119 63.1599 101.073 64.4408 100.67C65.6781 100.281 65.5034 96.788 66.7115 96.197C67.876 95.6328 70.889 97.7552 71.9807 97.0164C73.0723 96.2776 71.7769 92.9865 72.6939 92.1268C73.6546 91.2403 77.2207 92.4358 77.9921 91.4552C78.7927 90.4477 76.4638 87.6806 77.0606 86.6059C77.6719 85.491 81.4564 85.5985 81.8639 84.4298C82.2715 83.2477 79.0984 81.3268 79.273 80.1179C79.4477 78.8955 83.0575 77.8074 82.9993 76.585C82.941 75.3492 79.2439 74.597 78.9382 73.4015C78.6326 72.2059 81.5291 69.9761 80.9615 68.8477C80.4084 67.7328 76.6821 68.3507 75.8816 67.3432Z" fill="#F8B551"/>
<path d="M50.1237 89.4407C66.244 85.1598 76.1578 69.8114 72.2668 55.159C68.3757 40.5067 52.1534 32.0989 36.0331 36.3797C19.9128 40.6606 9.99903 56.009 13.8901 70.6613C17.7811 85.3137 34.0035 93.7215 50.1237 89.4407Z" fill="#FFD55E"/>
<path d="M45.3903 81.0096C42.5003 81.0096 40.1703 79.9796 39.8203 79.8196C39.2201 79.5393 38.7555 79.0323 38.5287 78.4098C38.3018 77.7874 38.3312 77.1004 38.6103 76.4996C38.748 76.2026 38.9429 75.9357 39.1838 75.7141C39.4248 75.4926 39.707 75.3206 40.0145 75.2083C40.3219 75.0959 40.6485 75.0452 40.9755 75.0592C41.3025 75.0731 41.6236 75.1514 41.9203 75.2896C42.0003 75.3196 45.0303 76.6496 47.5403 75.6296C48.8903 75.0796 49.8903 73.9196 50.6003 72.0796C50.7187 71.7726 50.8965 71.492 51.1236 71.2539C51.3506 71.0157 51.6225 70.8248 51.9235 70.6919C52.2245 70.5591 52.5487 70.4869 52.8777 70.4797C53.2066 70.4724 53.5338 70.5301 53.8403 70.6496C55.1303 71.1496 55.7703 72.5996 55.2703 73.8896C54.0403 77.0496 52.0603 79.1996 49.3903 80.2796C48.0103 80.8096 46.6503 81.0096 45.3903 81.0096ZM53.8103 55.7896C54.5103 55.5196 55.2303 55.4896 55.9403 55.6196C57.0203 55.8196 58.0603 56.4296 58.8803 57.3696C59.3803 57.9596 59.8103 58.6596 60.1103 59.4596C60.3403 60.1196 60.4503 60.7796 60.4803 61.4296C60.5403 62.6996 60.2203 63.8896 59.5903 64.8296C59.1103 65.5596 58.4503 66.1496 57.6203 66.4696C55.2103 67.3696 52.4003 65.7396 51.3403 62.7896C50.2803 59.8596 51.4003 56.7096 53.8103 55.7896ZM33.1703 73.5596C30.6203 73.9296 28.1003 71.7496 27.5703 68.6496C27.0503 65.5796 28.7003 62.7496 31.2703 62.3796C33.8203 61.9896 36.3403 64.1896 36.8503 67.2796C37.3803 70.3596 35.7203 73.1596 33.1703 73.5596ZM115.1 -86.3104L125.91 -87.6904L119.21 -79.2904L115.1 -86.3104Z" fill="#424242"/>
<circle cx="30.5" cy="69.5" r="2.5" fill="white"/>
<circle cx="53.5" cy="62.5" r="2.5" fill="white"/>
</g>
<defs>
<clipPath id="clip0_681_11830">
<rect width="128" height="128" fill="white"/>
</clipPath>
</defs>
</svg>
