<svg width="128" height="128" viewBox="0 0 128 128" fill="none" xmlns="http://www.w3.org/2000/svg">
<g clip-path="url(#clip0_681_9518)">
<path d="M97.7041 107.111C98.0133 108.261 97.4653 109.495 96.3541 110.022C95.1031 110.607 93.6236 110.073 93.0314 108.835C92.9608 108.688 88.5598 99.8377 77.2244 95.7736C76.9147 95.6637 76.6298 95.4936 76.386 95.2733C76.1423 95.0529 75.9444 94.7866 75.8039 94.4895C75.6633 94.1925 75.5828 93.8706 75.567 93.5424C75.5512 93.2142 75.6004 92.886 75.7118 92.5769C76.181 91.2804 77.6024 90.5976 78.9085 91.0642C92.3166 95.865 97.3491 106.254 97.5511 106.697C97.6164 106.824 97.6651 106.967 97.7041 107.111Z" fill="#424242"/>
<path d="M60.65 15.9006C64.25 12.6706 69.24 11.6806 74 13.2706C76.04 13.9406 77.83 14.9406 79.34 16.2506C91.98 27.2406 85.16 47.7006 79 64.1306C78.96 64.2306 76.19 72.6006 73.21 73.2506C70.78 73.7806 67.96 70.1606 67.96 70.1606C67.83 70.0406 64.83 66.1806 64.5 65.6606C59.15 57.8406 55.58 49.1506 53.86 39.8206C53.48 37.7506 53.3 35.4606 53.39 33.0706C53.42 32.1506 53.49 31.2206 53.62 30.2906C53.73 29.4206 53.88 28.5506 54.07 27.6906C55.01 23.5406 56.93 19.4706 60.26 16.2606L60.65 15.9006Z" fill="#BDBDBD"/>
<path d="M111.834 66.43L122.654 65.05L115.944 73.45L111.834 66.43ZM23.9439 42.26C23.1439 42.26 22.3639 41.88 21.8739 41.17C12.1039 26.82 1.94389 31.32 1.84389 31.37C0.593889 31.95 -0.896111 31.41 -1.47611 30.16C-1.75527 29.5592 -1.78465 28.8722 -1.55779 28.2497C-1.33094 27.6273 -0.86639 27.1203 -0.266111 26.84C-0.126111 26.78 13.8739 20.54 26.0039 38.36C26.2597 38.7348 26.4084 39.1722 26.434 39.6252C26.4596 40.0782 26.3612 40.5296 26.1493 40.9308C25.9373 41.332 25.62 41.6678 25.2314 41.902C24.8428 42.1363 24.3976 42.26 23.9439 42.26ZM39.5439 36.46C38.3039 36.46 37.2239 35.54 37.0639 34.27C34.9139 17.33 24.3839 17.01 23.9339 17C22.5639 16.98 21.4439 15.86 21.4539 14.49C21.4539 13.12 22.5539 12.01 23.9239 12C24.1739 12 39.2939 12.21 42.0239 33.63C42.1939 35 41.2339 36.25 39.8539 36.43C39.7539 36.46 39.6539 36.46 39.5439 36.46Z" fill="#424242"/>
<path d="M108.123 93.3805C117.511 88.9704 120.662 75.9049 115.163 64.1979C109.663 52.4908 97.5944 46.5755 88.2068 50.9855C78.8192 55.3956 75.6674 68.4611 81.167 80.1682C86.6667 91.8752 98.7353 97.7906 108.123 93.3805Z" fill="#424242"/>
<path d="M99.5858 96.6325C108.973 92.2224 112.125 79.1569 106.626 67.4498C101.126 55.7428 89.0573 49.8274 79.6697 54.2375C70.2821 58.6476 67.1303 71.7131 72.6299 83.4201C78.1296 95.1272 90.1982 101.043 99.5858 96.6325Z" fill="#FFD55D"/>
<path d="M89.6249 101.8C99.0125 97.3904 102.164 84.3248 96.6646 72.6178C91.1649 60.9107 79.0964 54.9954 69.7087 59.4055C60.3211 63.8155 57.1693 76.8811 62.669 88.5881C68.1687 100.295 80.2372 106.211 89.6249 101.8Z" fill="#424242"/>
<path d="M79.9139 105.72C89.3016 101.31 92.4534 88.2448 86.9537 76.5377C81.454 64.8307 69.3854 58.9153 59.9978 63.3254C50.6102 67.7355 47.4584 80.801 52.9581 92.508C58.4578 104.215 70.5263 110.13 79.9139 105.72Z" fill="#FFD55D"/>
<path d="M99.0098 18.1295C104.37 17.4995 109.55 19.8095 112.87 24.3195C114.3 26.2395 115.28 28.3095 115.82 30.4695C120.28 48.5995 100.91 62.8695 84.7298 73.8795C84.6298 73.9495 76.7298 79.7995 73.5898 78.4695C71.0398 77.3895 70.7898 72.2695 70.7898 72.2695C70.7498 72.0795 70.4998 66.6295 70.5298 65.9495C70.6798 55.3895 73.0098 45.1695 77.4398 35.5695C78.4198 33.4395 79.7298 31.2295 81.3498 29.1195C81.9698 28.2995 82.6298 27.4995 83.3498 26.7295C84.0098 26.0095 84.6998 25.3095 85.4298 24.6495C88.9498 21.4695 93.3198 18.9995 98.4198 18.2095L99.0098 18.1295Z" fill="#ECEFF1"/>
<path d="M30.1872 100.646C27.7272 100.646 26.1872 100.356 26.0172 100.326C25.3663 100.197 24.7932 99.8153 24.4238 99.2641C24.0545 98.7128 23.919 98.0375 24.0472 97.3864C24.177 96.738 24.5578 96.1672 25.1066 95.7982C25.6554 95.4292 26.3277 95.292 26.9772 95.4165C27.1372 95.4465 36.8772 97.1564 46.8772 90.4264C48.0172 89.6564 49.5772 89.9564 50.3472 91.1064C51.1172 92.2564 50.8172 93.8064 49.6672 94.5764C42.0472 99.7064 34.6372 100.646 30.1872 100.646Z" fill="#424242"/>
<path d="M39.4987 110.908C38.3087 110.908 37.2587 110.058 37.0387 108.848C36.7987 107.488 37.6987 106.198 39.0487 105.948C39.2087 105.918 48.8987 103.968 55.7687 94.078C55.9554 93.8075 56.1936 93.5766 56.4697 93.3984C56.7459 93.2203 57.0545 93.0984 57.3778 93.0399C57.7012 92.9814 58.0329 92.9873 58.354 93.0573C58.6751 93.1273 58.9791 93.2601 59.2487 93.448C60.3787 94.238 60.6687 95.788 59.8787 96.928C51.7587 108.628 40.4187 110.788 39.9387 110.868C39.7987 110.898 39.6487 110.908 39.4987 110.908Z" fill="#424242"/>
<path d="M115.979 98.9143C116.477 99.9951 116.144 101.304 115.137 102.011C114.002 102.798 112.454 102.52 111.662 101.399C111.568 101.266 105.742 93.2812 93.8847 91.1803C93.5609 91.124 93.2515 91.0042 92.9741 90.828C92.6968 90.6518 92.457 90.4224 92.2685 90.1533C92.08 89.8841 91.9466 89.5803 91.8758 89.2594C91.8051 88.9385 91.7984 88.6068 91.8562 88.2833C92.1008 86.9264 93.3872 86.0144 94.7532 86.2548C108.777 88.7336 115.485 98.129 115.758 98.5315C115.844 98.6461 115.916 98.7781 115.979 98.9143Z" fill="#424242"/>
<path d="M75.8816 67.3432C75.081 66.3358 76.7986 63.2328 75.8379 62.4134C74.8481 61.5806 71.6604 63.4746 70.5251 62.8567C69.3752 62.2253 69.6809 58.7462 68.4291 58.3298C67.1773 57.9134 64.9939 60.7612 63.6694 60.5597C62.3594 60.3582 61.3114 57 59.9722 57C58.6477 57 57.6288 60.3716 56.3042 60.5865C55.0088 60.788 52.84 57.9268 51.5591 58.3298C50.3219 58.7194 50.4965 62.2119 49.2884 62.803C48.124 63.3671 45.1109 61.2447 44.0193 61.9836C42.9276 62.7224 44.2231 66.0134 43.306 66.8731C42.3454 67.7597 38.7792 66.5641 38.0078 67.5447C37.2072 68.5522 39.5361 71.3194 38.9394 72.394C38.328 73.5089 34.5436 73.4015 34.136 74.5701C33.7284 75.7522 36.9016 77.6731 36.7269 78.8821C36.5522 80.1044 32.9424 81.1925 33.0007 82.4149C33.0589 83.6507 36.756 84.403 37.0617 85.5985C37.3673 86.794 34.4708 89.0238 35.0384 90.1522C35.5916 91.2537 39.3178 90.6492 40.1184 91.6567C40.9189 92.6642 39.2014 95.7671 40.162 96.5865C41.1518 97.4194 44.3395 95.5253 45.4748 96.1432C46.6247 96.7746 46.3191 100.254 47.5709 100.67C48.8226 101.087 51.006 98.2388 52.3305 98.4403C53.6405 98.6418 54.6886 102 56.0277 102C57.3522 102 58.3711 98.6283 59.6957 98.4134C60.9912 98.2119 63.1599 101.073 64.4408 100.67C65.6781 100.281 65.5034 96.788 66.7115 96.197C67.876 95.6328 70.889 97.7552 71.9807 97.0164C73.0723 96.2776 71.7769 92.9865 72.6939 92.1268C73.6546 91.2403 77.2207 92.4358 77.9921 91.4552C78.7927 90.4477 76.4638 87.6806 77.0606 86.6059C77.6719 85.491 81.4564 85.5985 81.8639 84.4298C82.2715 83.2477 79.0984 81.3268 79.273 80.1179C79.4477 78.8955 83.0575 77.8074 82.9993 76.585C82.941 75.3492 79.2439 74.597 78.9382 73.4015C78.6326 72.2059 81.5291 69.9761 80.9615 68.8477C80.4084 67.7328 76.6821 68.3507 75.8816 67.3432Z" fill="#F8B551"/>
<path d="M50.1247 89.4407C66.245 85.1598 76.1588 69.8114 72.2677 55.159C68.3767 40.5067 52.1543 32.0989 36.0341 36.3797C19.9138 40.6606 10 56.009 13.891 70.6613C17.7821 85.3137 34.0044 93.7215 50.1247 89.4407Z" fill="#FFD55E"/>
<path d="M45.3903 81.0106C42.5003 81.0106 40.1703 79.9806 39.8203 79.8206C39.2201 79.5403 38.7555 79.0332 38.5287 78.4108C38.3018 77.7884 38.3312 77.1013 38.6103 76.5005C38.748 76.2036 38.9429 75.9367 39.1838 75.7151C39.4248 75.4935 39.707 75.3216 40.0145 75.2092C40.3219 75.0969 40.6485 75.0462 40.9755 75.0602C41.3025 75.0741 41.6236 75.1524 41.9203 75.2906C42.0003 75.3206 45.0303 76.6506 47.5403 75.6306C48.8903 75.0806 49.8903 73.9205 50.6003 72.0806C50.7187 71.7736 50.8965 71.493 51.1236 71.2549C51.3506 71.0167 51.6225 70.8258 51.9235 70.6929C52.2245 70.56 52.5487 70.4879 52.8777 70.4807C53.2066 70.4734 53.5338 70.5311 53.8403 70.6505C55.1303 71.1505 55.7703 72.6006 55.2703 73.8905C54.0403 77.0506 52.0603 79.2005 49.3903 80.2805C48.0103 80.8105 46.6503 81.0106 45.3903 81.0106ZM53.8103 55.7906C54.5103 55.5206 55.2303 55.4905 55.9403 55.6205C57.0203 55.8205 58.0603 56.4305 58.8803 57.3705C59.3803 57.9605 59.8103 58.6605 60.1103 59.4605C60.3403 60.1205 60.4503 60.7805 60.4803 61.4305C60.5403 62.7005 60.2203 63.8905 59.5903 64.8306C59.1103 65.5605 58.4503 66.1505 57.6203 66.4706C55.2103 67.3705 52.4003 65.7406 51.3403 62.7906C50.2803 59.8606 51.4003 56.7106 53.8103 55.7906ZM33.1703 73.5605C30.6203 73.9305 28.1003 71.7505 27.5703 68.6505C27.0503 65.5805 28.7003 62.7505 31.2703 62.3806C33.8203 61.9906 36.3403 64.1906 36.8503 67.2805C37.3803 70.3605 35.7203 73.1606 33.1703 73.5605ZM115.1 -86.3094L125.91 -87.6895L119.21 -79.2895L115.1 -86.3094Z" fill="#424242"/>
<circle cx="30.5" cy="69.5" r="2.5" fill="#DAEDF1"/>
<circle cx="53.5" cy="62.5" r="2.5" fill="#DAEDF1"/>
</g>
<defs>
<clipPath id="clip0_681_9518">
<rect width="128" height="128" fill="white"/>
</clipPath>
</defs>
</svg>
