<svg width="146" height="148" viewBox="0 0 146 148" fill="none" xmlns="http://www.w3.org/2000/svg">
<path d="M80.937 83.0204C68.6228 80.6509 54.6687 77.7398 50.6284 76.7083C43.3317 74.8512 31.9036 71.2033 27.537 60.3131L81.8521 69.31" stroke="black" stroke-width="2" stroke-miterlimit="10" stroke-linecap="round" stroke-linejoin="round"/>
<path d="M80.9374 83.0194C91.0318 84.9604 100.97 86.7078 102.745 86.6476C105.768 86.5464 110.037 85.9539 113.096 83.5314C116.21 81.02 118.215 77.3346 118.674 73.2774C119.134 69.2202 118.01 65.1197 115.548 61.8683C113.086 58.617 109.485 56.4781 105.529 55.9171C101.572 55.3561 97.5812 56.4185 94.4238 58.873C92.6919 60.2424 91.2782 61.9882 90.2819 63.9879C89.2857 65.9876 88.7311 68.1927 88.657 70.4484L80.006 68.999M59.1194 58.4094L43.7312 37.1392C55.0996 36.132 63.4923 44.9364 68.4496 50.7741C70.0698 52.6834 72.5134 55.5985 76.9205 61.2928M103.484 62.8995C104.477 62.8914 105.464 63.0839 106.389 63.4662C107.314 63.8485 108.159 64.413 108.875 65.1275C109.592 65.842 110.167 66.6925 110.566 67.6305C110.965 68.5684 111.182 69.5754 111.203 70.594C111.224 71.6126 111.05 72.6228 110.689 73.5669C110.329 74.5111 109.79 75.3707 109.103 76.0967C108.417 76.8227 107.595 77.4008 106.687 77.7981C105.778 78.1954 104.799 78.4041 103.807 78.4122C101.802 78.4286 99.8631 77.6271 98.4155 76.1841C96.968 74.7411 96.1307 72.7748 96.088 70.7177C96.0452 68.6606 96.8004 66.6812 98.1875 65.215C99.5746 63.7488 101.48 62.9159 103.484 62.8995ZM80.006 88.8855C78.246 90.016 76.7392 91.5128 75.5813 93.2809C74.4234 95.049 73.6397 97.0498 73.2799 99.1562C72.9362 101.158 72.9811 103.215 73.4119 105.209C73.8428 107.204 74.6512 109.097 75.791 110.781C78.0929 114.181 81.6048 116.522 85.5543 117.288C89.5037 118.054 93.5671 117.183 96.8505 114.867C100.134 112.55 102.368 108.977 103.062 104.934C103.736 101.012 102.28 96.8253 100.976 94.005C100.762 93.5424 100.178 92.6223 99.3106 91.3515L80.006 88.8855ZM94.3885 98.7696C94.8383 99.6837 95.1094 100.677 95.1863 101.694C95.2633 102.71 95.1445 103.73 94.8368 104.694C94.5292 105.658 94.0386 106.548 93.3932 107.313C92.7477 108.078 91.9601 108.703 91.0751 109.153C90.1902 109.602 89.2253 109.867 88.2356 109.932C87.2459 109.998 86.2508 109.862 85.307 109.534C84.3632 109.205 83.4892 108.69 82.735 108.017C81.9807 107.344 81.361 106.528 80.9112 105.614C80.0028 103.768 79.8415 101.636 80.4629 99.6893C81.0843 97.7421 82.4374 96.1383 84.2246 95.2307C86.0118 94.3231 88.0866 94.1861 89.9927 94.8498C91.8989 95.5135 93.4801 96.9235 94.3885 98.7696Z" stroke="black" stroke-width="2" stroke-miterlimit="10" stroke-linecap="round" stroke-linejoin="round"/>
<circle cx="80.5" cy="75.5" r="1.5" fill="black"/>
</svg>
