<svg width="50" height="50" viewBox="0 0 50 50" fill="none" xmlns="http://www.w3.org/2000/svg">
<path d="M12.5 9.375C10.8424 9.375 9.25268 10.0335 8.08058 11.2056C6.90848 12.3777 6.25 13.9674 6.25 15.625V16.2531L25 26.35L43.75 16.2563V15.625C43.75 13.9674 43.0915 12.3777 41.9194 11.2056C40.7473 10.0335 39.1576 9.375 37.5 9.375H12.5ZM43.75 19.8031L25.7406 29.5C25.513 29.6225 25.2585 29.6867 25 29.6867C24.7415 29.6867 24.487 29.6225 24.2594 29.5L6.25 19.8031V34.375C6.25 36.0326 6.90848 37.6223 8.08058 38.7944C9.25268 39.9665 10.8424 40.625 12.5 40.625H37.5C39.1576 40.625 40.7473 39.9665 41.9194 38.7944C43.0915 37.6223 43.75 36.0326 43.75 34.375V19.8031Z" fill="black"/>
</svg>
