<svg width="380" height="119" viewBox="0 0 380 119" fill="none" xmlns="http://www.w3.org/2000/svg">
<path d="M143.627 0V19.7785H91.4663V0H71.8137V19.7785H17.9663V0H0V118.671H17.9663V98.8927H71.8137V118.671H91.4663V98.8927H143.627V118.671H161.966V98.8927H215.441V118.671H234.966V98.8927H287.255V118.671H306.466V98.8927H359.068V118.671H379.966V0H359.068V19.7785H306.466V0H287.255V19.7785H234.966V0H215.441V19.7785H161.966V0H143.627ZM17.9663 36.502H71.8137V82.1709H17.9663V36.502ZM91.4663 36.502H143.627V82.1709H91.4663V36.502ZM161.966 36.502H215.441V82.1709H161.966V36.502ZM234.966 36.502H287.255V82.1709H234.966V36.502ZM306.466 36.502H359.068V82.1709H306.466V36.502Z" fill="white"/>
</svg>
