<svg width="380" height="169" viewBox="0 0 380 169" fill="none" xmlns="http://www.w3.org/2000/svg">
<path d="M143.627 50V69.7785H91.4663V50H71.8137V69.7785H17.9663V50H0V168.671H17.9663V148.893H71.8137V168.671H91.4663V148.893H143.627V168.671H161.966V148.893H215.441V168.671H234.966V148.893H287.255V168.671H306.466V148.893H359.068V168.671H379.966V50H359.068V69.7785H306.466V50H287.255V69.7785H234.966V50H215.441V69.7785H161.966V50H143.627ZM17.9663 86.502H71.8137V132.171H17.9663V86.502ZM91.4663 86.502H143.627V132.171H91.4663V86.502ZM161.966 86.502H215.441V132.171H161.966V86.502ZM234.966 86.502H287.255V132.171H234.966V86.502ZM306.466 86.502H359.068V132.171H306.466V86.502Z" fill="white"/>
<rect width="18" height="52" fill="white"/>
<rect x="359" width="21" height="52" fill="white"/>
</svg>
