<svg width="50" height="49" viewBox="0 0 50 49" fill="none" xmlns="http://www.w3.org/2000/svg">
<path d="M8.26424 2V1C7.81418 1 7.41957 1.30066 7.30011 1.73457L8.26424 2ZM39.2403 47L39.0217 47.9758C39.3004 48.0382 39.5925 47.9785 39.8243 47.8118L39.2403 47ZM3.02539 43.5L3.89962 43.9855L3.96882 43.8609L4.00045 43.7219L3.02539 43.5ZM8.26424 23.3996L9.2393 23.6215L9.27459 23.4665L9.26006 23.3082L8.26424 23.3996ZM7.02539 9.89955L6.91835 8.9053L5.93962 9.01066L6.02957 9.99093L7.02539 9.89955ZM20.0254 8.5L20.1324 9.49425C20.6317 9.4405 21.0137 9.02476 21.0251 8.5227C21.0365 8.02064 20.6738 7.58799 20.1774 7.51163L20.0254 8.5ZM7.02539 6.5L6.06126 6.23457L5.76311 7.31757L6.87333 7.48837L7.02539 6.5ZM44.1571 2L45.1362 2.20316C45.1974 1.90858 45.1226 1.60214 44.9327 1.36879C44.7428 1.13545 44.4579 1 44.1571 1V2ZM42.5181 9.89955L41.5389 9.69639L41.4963 9.90198L41.5399 10.1074L42.5181 9.89955ZM45.3861 23.3996L46.382 23.3089L46.3766 23.2498L46.3643 23.1917L45.3861 23.3996ZM47.025 41.3996L47.609 42.2113C47.8963 42.0046 48.053 41.6614 48.0209 41.3089L47.025 41.3996ZM39.4589 46.0242C38.1575 45.7326 35.1276 45.4953 31.4621 45.2679C27.7607 45.0384 23.2628 44.8121 18.9872 44.5623C14.694 44.3114 10.6104 44.0359 7.67107 43.7061C6.19265 43.5402 5.04888 43.3651 4.32206 43.1836C3.94014 43.0882 3.7662 43.0127 3.72043 42.9851C3.69098 42.9674 3.80959 43.0265 3.904 43.2028C4.03876 43.4545 4.02654 43.757 3.89962 43.9855L2.15116 43.0145C1.95803 43.3622 1.94506 43.7812 2.1408 44.1468C2.29619 44.437 2.53749 44.6074 2.68875 44.6985C3.00438 44.8885 3.42383 45.0207 3.83741 45.124C4.7016 45.3398 5.95733 45.5263 7.44801 45.6936C10.4469 46.0302 14.5798 46.3081 18.8706 46.5589C23.1789 46.8106 27.6323 47.0343 31.3383 47.2641C35.0804 47.4962 37.9142 47.7277 39.0217 47.9758L39.4589 46.0242ZM4.00045 43.7219C4.79439 40.234 5.69771 36.9885 6.60818 33.718C7.51711 30.453 8.43318 27.163 9.2393 23.6215L7.28918 23.1776C6.49525 26.6656 5.59192 29.9111 4.68145 33.1816C3.77253 36.4466 2.85646 39.7366 2.05033 43.2781L4.00045 43.7219ZM9.26006 23.3082L8.02121 9.80817L6.02957 9.99093L7.26843 23.4909L9.26006 23.3082ZM7.13243 10.8938L20.1324 9.49425L19.9184 7.50575L6.91835 8.9053L7.13243 10.8938ZM20.1774 7.51163L7.17745 5.51163L6.87333 7.48837L19.8733 9.48837L20.1774 7.51163ZM7.98952 6.76543L9.22837 2.26543L7.30011 1.73457L6.06126 6.23457L7.98952 6.76543ZM8.26424 3H44.1571V1H8.26424V3ZM43.1779 1.79684L41.5389 9.69639L43.4972 10.1027L45.1362 2.20316L43.1779 1.79684ZM41.5399 10.1074L44.4079 23.6074L46.3643 23.1917L43.4962 9.69174L41.5399 10.1074ZM44.3902 23.4902L46.0291 41.4902L48.0209 41.3089L46.382 23.3089L44.3902 23.4902ZM46.441 40.5878L38.6563 46.1882L39.8243 47.8118L47.609 42.2113L46.441 40.5878Z" fill="black"/>
<path d="M42.496 10L43.4579 9.72652L41.4973 9.94904L42.496 10ZM41.6724 26.1379L42.669 26.2206L42.6703 26.2048L42.6711 26.1889L41.6724 26.1379ZM40.0254 46L39.0288 45.9174L38.8602 47.9505L40.5705 46.8384L40.0254 46ZM47.0254 41.4483L47.5705 42.2866C47.8754 42.0884 48.0487 41.7402 48.0229 41.3774L47.0254 41.4483ZM45.7901 24.069L46.7876 23.9981L46.7831 23.9354L46.7709 23.8738L45.7901 24.069ZM44.143 15.7931L45.1238 15.5979L45.1159 15.5584L45.1049 15.5196L44.143 15.7931ZM41.4973 9.94904L40.6737 26.087L42.6711 26.1889L43.4947 10.051L41.4973 9.94904ZM40.6759 26.0553L39.0288 45.9174L41.022 46.0826L42.669 26.2206L40.6759 26.0553ZM40.5705 46.8384L47.5705 42.2866L46.4803 40.6099L39.4803 45.1617L40.5705 46.8384ZM48.0229 41.3774L46.7876 23.9981L44.7926 24.1399L46.0279 41.5192L48.0229 41.3774ZM46.7709 23.8738L45.1238 15.5979L43.1623 15.9883L44.8093 24.2642L46.7709 23.8738ZM45.1049 15.5196L43.4579 9.72652L41.5341 10.2735L43.1812 16.0666L45.1049 15.5196Z" fill="black"/>
<path d="M27.5749 19.44C27.5749 20.9801 26.7069 22.3364 25.3879 23.1307V23.88C25.3879 24.494 24.8993 24.99 24.2945 24.99H21.0141C20.4092 24.99 19.9206 24.494 19.9206 23.88V23.1307C18.6016 22.3364 17.7337 20.9801 17.7337 19.44C17.7337 16.9879 19.9377 15 22.6543 15C25.3708 15 27.5749 16.9879 27.5749 19.44ZM20.7407 21.105C21.3455 21.105 21.8342 20.609 21.8342 19.995C21.8342 19.381 21.3455 18.885 20.7407 18.885C20.1359 18.885 19.6472 19.381 19.6472 19.995C19.6472 20.609 20.1359 21.105 20.7407 21.105ZM24.5678 18.885C23.963 18.885 23.4744 19.381 23.4744 19.995C23.4744 20.609 23.963 21.105 24.5678 21.105C25.1726 21.105 25.6613 20.609 25.6613 19.995C25.6613 19.381 25.1726 18.885 24.5678 18.885ZM15.1154 24.494C15.3854 23.9459 16.0422 23.7239 16.5824 23.9979L22.6543 27.0782L28.7264 23.9979C29.2663 23.7239 29.9224 23.9459 30.1924 24.494C30.4623 25.042 30.2436 25.708 29.7037 25.9821L25.1009 28.32L29.7037 30.6579C30.2436 30.932 30.4623 31.598 30.1924 32.146C29.9224 32.6941 29.2663 32.9161 28.7264 32.6421L22.6543 29.5618L16.5824 32.6421C16.0422 32.9161 15.3854 32.6941 15.1154 32.146C14.8454 31.598 15.0643 30.932 15.6045 30.6579L20.2076 28.32L15.6045 25.9821C15.0643 25.708 14.8454 25.042 15.1154 24.494Z" fill="black"/>
</svg>
