<svg width="33" height="37" viewBox="0 0 33 37" fill="none" xmlns="http://www.w3.org/2000/svg">
<path d="M29.4643 2.3125H3.53571C1.58371 2.3125 0 3.86621 0 5.78125V31.2188C0 33.1338 1.58371 34.6875 3.53571 34.6875H29.4643C31.4163 34.6875 33 33.1338 33 31.2188V5.78125C33 3.86621 31.4163 2.3125 29.4643 2.3125ZM20.4261 30.0408C19.8074 30.1492 19.579 29.7734 19.579 29.4627C19.579 29.0725 19.5938 27.0779 19.5938 25.4664C19.5938 24.3391 19.2107 23.6236 18.7614 23.2479C21.4868 22.9516 24.3596 22.583 24.3596 17.9652C24.3596 16.65 23.8808 15.9924 23.1 15.1469C23.2252 14.8361 23.6451 13.557 22.9748 11.8949C21.9509 11.5842 19.6085 13.1885 19.6085 13.1885C18.6362 12.9211 17.5828 12.7838 16.5442 12.7838C15.5056 12.7838 14.4522 12.9211 13.4799 13.1885C13.4799 13.1885 11.1375 11.5842 10.1136 11.8949C9.4433 13.5498 9.8558 14.8289 9.98839 15.1469C9.20759 15.9924 8.83929 16.65 8.83929 17.9652C8.83929 22.5613 11.5868 22.9516 14.3123 23.2479C13.9587 23.5586 13.642 24.0934 13.5315 24.8594C12.8317 25.1701 11.0417 25.7049 9.97366 23.8549C9.30335 22.7131 8.09531 22.6191 8.09531 22.6191C6.90201 22.6047 8.01429 23.3563 8.01429 23.3563C8.80982 23.7176 9.36964 25.1051 9.36964 25.1051C10.0842 27.2514 13.502 26.5287 13.502 26.5287C13.502 27.5332 13.5167 29.1664 13.5167 29.4627C13.5167 29.7734 13.2958 30.1492 12.6696 30.0408C7.80804 28.4438 4.40491 23.9055 4.40491 18.6012C4.40491 11.9672 9.57589 6.93027 16.3379 6.93027C23.1 6.93027 28.5804 11.9672 28.5804 18.6012C28.5877 23.9055 25.2877 28.451 20.4261 30.0408ZM13.2 25.6254C13.06 25.6543 12.9275 25.5965 12.9127 25.5025C12.898 25.3941 12.9938 25.3002 13.1337 25.2713C13.2737 25.2568 13.4062 25.3146 13.421 25.4086C13.4431 25.5025 13.3473 25.5965 13.2 25.6254ZM12.5002 25.5604C12.5002 25.6543 12.3897 25.7338 12.2424 25.7338C12.0804 25.7482 11.9699 25.6688 11.9699 25.5604C11.9699 25.4664 12.0804 25.3869 12.2277 25.3869C12.3676 25.3725 12.5002 25.452 12.5002 25.5604ZM11.4911 25.4809C11.4616 25.5748 11.3143 25.6182 11.1891 25.5748C11.0491 25.5459 10.9533 25.4375 10.9828 25.3436C11.0123 25.2496 11.1596 25.2063 11.2848 25.2352C11.4321 25.2785 11.5279 25.3869 11.4911 25.4809ZM10.585 25.0906C10.5188 25.1701 10.3788 25.1557 10.2683 25.0473C10.1578 24.9533 10.1283 24.816 10.202 24.751C10.2683 24.6715 10.4083 24.6859 10.5188 24.7943C10.6145 24.8883 10.6513 25.0328 10.585 25.0906ZM9.91473 24.433C9.84844 24.4764 9.72321 24.433 9.64219 24.3246C9.56116 24.2162 9.56116 24.0934 9.64219 24.0428C9.72321 23.9777 9.84844 24.0283 9.91473 24.1367C9.99576 24.2451 9.99576 24.3752 9.91473 24.433ZM9.43594 23.732C9.36964 23.7971 9.25915 23.7609 9.17813 23.6887C9.0971 23.5947 9.08237 23.4863 9.14866 23.4357C9.21496 23.3707 9.32545 23.4068 9.40647 23.4791C9.4875 23.573 9.50223 23.6814 9.43594 23.732ZM8.94241 23.1973C8.91295 23.2623 8.81719 23.2768 8.73616 23.2262C8.6404 23.1828 8.59621 23.1033 8.62567 23.0383C8.65513 22.9949 8.73616 22.9732 8.83192 23.0094C8.92768 23.06 8.97188 23.1395 8.94241 23.1973Z" fill="black"/>
</svg>
