<svg width="33" height="33" viewBox="0 0 33 33" fill="none" xmlns="http://www.w3.org/2000/svg">
<path d="M29.4643 0.3125H3.53571C1.58371 0.3125 0 1.86621 0 3.78125V29.2188C0 31.1338 1.58371 32.6875 3.53571 32.6875H29.4643C31.4163 32.6875 33 31.1338 33 29.2188V3.78125C33 1.86621 31.4163 0.3125 29.4643 0.3125ZM20.4261 28.0408C19.8074 28.1492 19.579 27.7734 19.579 27.4627C19.579 27.0725 19.5938 25.0779 19.5938 23.4664C19.5938 22.3391 19.2107 21.6236 18.7614 21.2479C21.4868 20.9516 24.3596 20.583 24.3596 15.9652C24.3596 14.65 23.8808 13.9924 23.1 13.1469C23.2252 12.8361 23.6451 11.557 22.9748 9.89492C21.9509 9.58418 19.6085 11.1885 19.6085 11.1885C18.6362 10.9211 17.5828 10.7838 16.5442 10.7838C15.5056 10.7838 14.4522 10.9211 13.4799 11.1885C13.4799 11.1885 11.1375 9.58418 10.1136 9.89492C9.4433 11.5498 9.8558 12.8289 9.98839 13.1469C9.20759 13.9924 8.83929 14.65 8.83929 15.9652C8.83929 20.5613 11.5868 20.9516 14.3123 21.2479C13.9587 21.5586 13.642 22.0934 13.5315 22.8594C12.8317 23.1701 11.0417 23.7049 9.97366 21.8549C9.30335 20.7131 8.09531 20.6191 8.09531 20.6191C6.90201 20.6047 8.01429 21.3563 8.01429 21.3563C8.80982 21.7176 9.36964 23.1051 9.36964 23.1051C10.0842 25.2514 13.502 24.5287 13.502 24.5287C13.502 25.5332 13.5167 27.1664 13.5167 27.4627C13.5167 27.7734 13.2958 28.1492 12.6696 28.0408C7.80804 26.4438 4.40491 21.9055 4.40491 16.6012C4.40491 9.96719 9.57589 4.93027 16.3379 4.93027C23.1 4.93027 28.5804 9.96719 28.5804 16.6012C28.5877 21.9055 25.2877 26.451 20.4261 28.0408ZM13.2 23.6254C13.06 23.6543 12.9275 23.5965 12.9127 23.5025C12.898 23.3941 12.9938 23.3002 13.1337 23.2713C13.2737 23.2568 13.4062 23.3146 13.421 23.4086C13.4431 23.5025 13.3473 23.5965 13.2 23.6254ZM12.5002 23.5604C12.5002 23.6543 12.3897 23.7338 12.2424 23.7338C12.0804 23.7482 11.9699 23.6688 11.9699 23.5604C11.9699 23.4664 12.0804 23.3869 12.2277 23.3869C12.3676 23.3725 12.5002 23.452 12.5002 23.5604ZM11.4911 23.4809C11.4616 23.5748 11.3143 23.6182 11.1891 23.5748C11.0491 23.5459 10.9533 23.4375 10.9828 23.3436C11.0123 23.2496 11.1596 23.2063 11.2848 23.2352C11.4321 23.2785 11.5279 23.3869 11.4911 23.4809ZM10.585 23.0906C10.5188 23.1701 10.3788 23.1557 10.2683 23.0473C10.1578 22.9533 10.1283 22.816 10.202 22.751C10.2683 22.6715 10.4083 22.6859 10.5188 22.7943C10.6145 22.8883 10.6513 23.0328 10.585 23.0906ZM9.91473 22.433C9.84844 22.4764 9.72321 22.433 9.64219 22.3246C9.56116 22.2162 9.56116 22.0934 9.64219 22.0428C9.72321 21.9777 9.84844 22.0283 9.91473 22.1367C9.99576 22.2451 9.99576 22.3752 9.91473 22.433ZM9.43594 21.732C9.36964 21.7971 9.25915 21.7609 9.17813 21.6887C9.0971 21.5947 9.08237 21.4863 9.14866 21.4357C9.21496 21.3707 9.32545 21.4068 9.40647 21.4791C9.4875 21.573 9.50223 21.6814 9.43594 21.732ZM8.94241 21.1973C8.91295 21.2623 8.81719 21.2768 8.73616 21.2262C8.6404 21.1828 8.59621 21.1033 8.62567 21.0383C8.65513 20.9949 8.73616 20.9732 8.83192 21.0094C8.92768 21.06 8.97188 21.1395 8.94241 21.1973Z" fill="black"/>
</svg>
