<svg width="47" height="37" viewBox="0 0 47 37" fill="none" xmlns="http://www.w3.org/2000/svg">
<path d="M39.3916 1.26701C40.1928 0.504255 41.259 0.0825727 42.3652 0.0909426C43.4713 0.0993124 44.531 0.537081 45.3206 1.31187C46.1101 2.08667 46.5678 3.13788 46.597 4.2437C46.6263 5.34952 46.2248 6.42346 45.4773 7.23889L22.7841 35.6195C22.3939 36.0398 21.923 36.3771 21.3994 36.6112C20.8759 36.8453 20.3105 36.9715 19.7371 36.9821C19.1637 36.9927 18.594 36.8876 18.0621 36.673C17.5303 36.4584 17.0471 36.1388 16.6416 35.7333L1.59252 20.6841C1.17342 20.2936 0.83728 19.8227 0.604138 19.2994C0.370997 18.7762 0.245633 18.2114 0.235527 17.6386C0.225422 17.0659 0.330782 16.4969 0.54532 15.9658C0.759858 15.4347 1.07918 14.9522 1.48424 14.5471C1.88929 14.1421 2.37179 13.8227 2.90293 13.6082C3.43408 13.3937 4.00299 13.2883 4.57574 13.2984C5.14849 13.3085 5.71333 13.4339 6.23658 13.667C6.75983 13.9001 7.23075 14.2363 7.62127 14.6554L19.5309 26.5593L39.2836 1.39214C39.3191 1.34835 39.3571 1.30657 39.3973 1.26701H39.3916Z" fill="#A4D081"/>
</svg>
