<svg width="1443" height="111" viewBox="0 0 1443 111" fill="none" xmlns="http://www.w3.org/2000/svg">
<mask id="mask0_107_12" style="mask-type:alpha" maskUnits="userSpaceOnUse" x="-1" y="-1" width="1445" height="113">
<path d="M927.581 24.7873C587.112 78.3668 270.188 187.568 0 24.7873V2.86102e-06L930 1.31314e-05H1206.62C1206.75 -5.51176e-06 1206.88 -5.51686e-06 1207 1.31314e-05H1442L1443 24.7873C1363.65 7.08485 1284.9 0.0114873 1207 1.31314e-05C1206.88 -5.51686e-06 1206.75 -5.51176e-06 1206.62 1.31314e-05C1112.21 0.0139165 1019.05 10.3935 927.581 24.7873Z" fill="black"/>
<path d="M927.581 24.7873C587.112 78.3668 270.188 187.568 0 24.7873V2.86102e-06L930 1.31314e-05M927.581 24.7873C1094.63 -1.50146 1267.35 -14.4 1443 24.7873L1442 1.31314e-05H930M927.581 24.7873L930 1.31314e-05" stroke="black"/>
</mask>
<g mask="url(#mask0_107_12)">
<rect width="1443" height="111" fill="#FFF3E8"/>
</g>
</svg>
