<svg width="390" height="449" viewBox="0 0 390 449" fill="none" xmlns="http://www.w3.org/2000/svg">
<path d="M104.368 288.936L102.651 317.666C102.651 317.666 108.467 334.208 106.843 357.233C105.28 379.418 99.4176 390.643 97.8088 394.53C96.2001 398.417 91.6832 403.283 97.8088 405.226C103.934 407.169 114.268 406.206 118.784 404.573C123.301 402.956 125.544 393.939 126.209 390.301C127.834 381.299 128.731 364.276 125.436 347.485C122.915 334.581 117.562 312.458 117.562 312.458L104.368 288.936Z" fill="#99C23B"/>
<path d="M103.301 284.583C103.301 284.583 109.921 263.703 125.143 247.861C139.73 232.687 154.626 227.712 166.568 226.22C179.732 224.572 185.1 224.743 187.358 226.375C189.616 228.008 188.812 230.573 188.858 232.843C189.152 249.074 189.756 270.109 170.76 289.356C150.48 309.878 136.033 313.562 120.208 315.195C104.399 316.812 106.193 309.567 106.193 309.567L103.301 284.583Z" fill="#99C23B"/>
<path d="M4.6096 271.601C4.03725 274.446 18.9801 307.84 47.8448 318.35C78.9215 329.684 108.219 318.35 108.219 318.35L110.632 288.283L103.285 284.582C103.285 284.582 87.7077 267.31 70.3982 260.936C52.4544 254.328 32.1749 253.815 18.3613 261.231C9.69881 265.895 4.91897 270.093 4.6096 271.601V271.601Z" fill="#99C23B"/>
<path d="M134.083 261.698C119.697 278.831 112.442 296.103 111.684 300.612C110.926 305.121 113.417 304.934 114.825 303.022C117.361 299.57 126.194 283.79 139.343 268.756C150.728 255.759 168.053 241.705 170.589 238.704C172.167 236.839 170.435 234.491 168.053 235.548C165.67 236.59 148.794 244.177 134.083 261.698Z" fill="#E6DC9F"/>
<path d="M64.0871 277.743C43.0496 270.467 27.6582 271.446 24.518 272.503C21.3779 273.561 21.5326 277.012 25.2605 277.463C28.9885 277.914 44.1943 279.437 63.2518 286.324C83.5932 293.694 98.0874 304.81 100.64 306.318C103.177 307.826 104.832 304.81 102.589 302.105C100.872 300.068 87.2902 285.765 64.0871 277.743V277.743Z" fill="#E6DC9F"/>
<path d="M193 426.603C193 463.655 145.924 442.085 119.143 442.085C92.3614 442.085 52 463.655 52 426.603C52 389.551 90.7937 368.802 119.143 388.413C148.984 336.809 174.349 395.639 193 426.603Z" fill="#332011"/>
<g clip-path="url(#clip0_1272_10147)">
<path d="M158.022 178.919C157.989 180.555 156.792 181.975 155.123 182.244C153.246 182.537 151.498 181.264 151.191 179.402C151.154 179.181 148.74 165.806 135.333 156.09C134.966 155.826 134.655 155.492 134.418 155.108C134.18 154.723 134.021 154.296 133.95 153.849C133.878 153.403 133.895 152.947 134 152.508C134.106 152.069 134.296 151.654 134.562 151.289C135.679 149.757 137.818 149.401 139.363 150.518C155.225 162.002 157.882 177.651 157.979 178.313C158.017 178.507 158.026 178.713 158.022 178.919V178.919Z" fill="#424242"/>
<path d="M144.099 44.2689C150.092 41.3856 157.06 41.9934 162.735 45.9194C165.172 47.5869 167.151 49.5942 168.642 51.9034C181.114 71.2648 164.258 95.6622 149.819 114.992C149.728 115.109 142.859 125.097 138.674 124.812C135.263 124.579 132.928 118.717 132.928 118.717C132.803 118.509 130.323 112.261 130.087 111.448C126.024 99.0692 124.645 86.2253 125.954 73.2462C126.247 70.3673 126.888 67.2745 127.924 64.1534C128.317 62.9502 128.766 61.7491 129.295 60.5711C129.774 59.4646 130.306 58.3734 130.887 57.3108C133.72 52.192 137.817 47.555 143.446 44.5945L144.099 44.2689V44.2689Z" fill="#BDBDBD"/>
<path d="M192.291 130.628L207.107 132.959L195.023 141.475L192.291 130.628ZM85.5194 64.9871C84.4631 64.6801 83.579 63.879 83.2045 62.7535C75.8115 40.057 60.6697 42.0997 60.5185 42.1273C58.6454 42.4134 56.8853 41.1287 56.5992 39.2556C56.4612 38.3552 56.6861 37.4368 57.2244 36.702C57.7628 35.9672 58.5708 35.4761 59.4709 35.3364C59.6788 35.3109 80.5585 32.4444 89.736 60.6282C89.9299 61.2212 89.9584 61.8558 89.8184 62.4638C89.6783 63.0718 89.3751 63.63 88.9413 64.0784C88.5076 64.5268 87.9597 64.8484 87.3567 65.0085C86.7537 65.1686 86.1185 65.1612 85.5194 64.9871ZM108.343 63.3156C106.706 62.8397 105.633 61.2105 105.909 59.4722C109.571 36.2802 95.7902 31.8168 95.1998 31.6309C93.3986 31.0787 92.3496 29.1701 92.8886 27.3651C93.4143 25.5562 95.2927 24.5127 97.1054 25.0252C97.4355 25.1212 117.319 31.2008 112.703 60.5306C112.402 62.4048 110.655 63.6868 108.764 63.3949C108.62 63.3961 108.488 63.3578 108.343 63.3156Z" fill="#424242"/>
<path d="M177.048 164.789C191.136 162.568 200.311 146.527 197.543 128.959C194.774 111.391 181.109 98.9488 167.021 101.169C152.934 103.39 143.758 119.431 146.527 136.999C149.296 154.567 162.961 167.009 177.048 164.789Z" fill="#424242"/>
<path d="M164.525 165.807C178.613 163.587 187.788 147.545 185.019 129.977C182.25 112.409 168.585 99.9674 154.498 102.188C140.41 104.408 131.235 120.45 134.004 138.018C136.773 155.586 150.438 168.028 164.525 165.807Z" fill="#FFD55D"/>
<path d="M149.39 168.807C163.478 166.587 172.653 150.545 169.884 132.977C167.115 115.409 153.451 102.967 139.363 105.188C125.276 107.408 116.1 123.45 118.869 141.018C121.638 158.586 135.303 171.028 149.39 168.807Z" fill="#424242"/>
<path d="M135.065 170.258C149.153 168.037 158.328 151.996 155.559 134.427C152.79 116.859 139.125 104.418 125.038 106.638C110.95 108.858 101.775 124.9 104.544 142.468C107.313 160.036 120.978 172.478 135.065 170.258Z" fill="#FFD55D"/>
<path d="M193.892 61.9334C201.211 63.1585 207.164 68.1964 209.817 75.4253C210.968 78.5092 211.468 81.6184 211.352 84.6776C210.283 110.327 179.232 121.736 153.643 130.064C153.484 130.118 140.808 134.81 137.173 131.849C134.22 129.444 135.855 122.588 135.855 122.588C135.875 122.322 137.637 115.03 137.937 114.144C142.188 100.258 149.186 87.6583 158.719 76.6829C160.831 74.2466 163.408 71.8313 166.357 69.6671C167.49 68.8223 168.669 68.0193 169.915 67.2789C171.063 66.5815 172.242 65.9221 173.46 65.3308C179.328 62.4828 186.045 60.8985 193.082 61.8126L193.892 61.9334V61.9334Z" fill="#ECEFF1"/>
<path d="M71.3552 144.475C68.1071 143.53 66.185 142.557 65.9721 142.452C65.1622 142.032 64.5521 141.307 64.2759 140.438C63.9998 139.568 64.0801 138.624 64.4992 137.814C64.9195 137.008 65.6413 136.4 66.5075 136.123C67.3737 135.847 68.3141 135.924 69.1239 136.337C69.3236 136.438 81.5277 142.434 97.314 137.385C99.1147 136.806 101.059 137.801 101.635 139.615C102.21 141.429 101.219 143.36 99.4052 143.935C87.3754 147.785 77.2308 146.182 71.3552 144.475V144.475Z" fill="#424242"/>
<path d="M79.7121 161.596C78.1409 161.139 77.0807 159.614 77.2546 157.932C77.4596 156.044 79.1429 154.686 81.0214 154.874C81.2441 154.896 94.7868 156.04 107.653 145.618C108.003 145.333 108.406 145.119 108.839 144.99C109.272 144.861 109.727 144.818 110.176 144.865C110.625 144.912 111.061 145.047 111.458 145.263C111.855 145.478 112.206 145.77 112.49 146.122C113.678 147.598 113.467 149.756 111.986 150.958C96.7747 163.291 80.9729 161.791 80.3084 161.712C80.1121 161.698 79.9102 161.654 79.7121 161.596V161.596Z" fill="#424242"/>
<path d="M185.297 175.111C185.54 176.729 184.598 178.331 182.998 178.877C181.198 179.48 179.26 178.52 178.645 176.735C178.571 176.524 173.943 163.745 159.093 156.421C158.687 156.222 158.325 155.945 158.026 155.606C157.728 155.267 157.499 154.872 157.353 154.445C157.208 154.017 157.148 153.564 157.178 153.114C157.208 152.663 157.326 152.222 157.527 151.817C158.37 150.12 160.419 149.409 162.13 150.251C179.696 158.905 184.946 173.885 185.153 174.521C185.223 174.705 185.267 174.907 185.297 175.111V175.111Z" fill="#424242"/>
<path d="M144.469 118.038C143.799 116.4 147.257 112.962 146.303 111.512C145.316 110.032 140.38 111.31 139.119 110.058C137.843 108.783 139.581 104.307 138.088 103.277C136.595 102.247 132.62 105.169 130.948 104.394C129.296 103.626 129.201 98.7894 127.432 98.2755C125.684 97.7672 123.044 101.828 121.213 101.603C119.425 101.372 117.66 96.7623 115.814 96.8028C114.031 96.8424 112.921 101.521 111.099 101.838C109.345 102.136 106.181 98.177 104.456 98.7336C102.731 99.2902 103.179 104.133 101.638 104.916C100.03 105.718 95.7797 102.771 94.3848 103.769C92.9412 104.792 94.9543 109.34 93.7539 110.53C92.5189 111.767 87.5632 110.173 86.5766 111.56C85.5849 112.964 89.0374 116.718 88.3428 118.247C87.6431 119.794 82.4593 119.846 82.0671 121.482C81.6697 123.136 86.2626 125.548 86.2074 127.244C86.1522 128.94 81.472 130.772 81.7885 132.48C82.0961 134.147 87.248 134.778 87.9185 136.416C88.5889 138.053 85.1303 141.491 86.0843 142.942C87.0715 144.421 92.0073 143.144 93.2692 144.395C94.5452 145.67 92.8065 150.147 94.2995 151.177C95.7925 152.207 99.7681 149.285 101.44 150.059C103.092 150.828 103.187 155.664 104.955 156.178C106.704 156.686 109.343 152.626 111.175 152.85C112.963 153.081 114.728 157.691 116.574 157.651C118.357 157.611 119.467 152.933 121.289 152.616C123.043 152.318 126.206 156.277 127.931 155.72C129.656 155.163 129.209 150.321 130.75 149.538C132.358 148.736 136.608 151.683 138.003 150.684C139.447 149.661 137.433 145.114 138.634 143.924C139.869 142.686 144.824 144.281 145.811 142.894C146.803 141.49 143.35 137.736 144.045 136.206C144.745 134.659 149.928 134.608 150.321 132.972C150.718 131.318 146.125 128.906 146.18 127.21C146.236 125.514 150.916 123.681 150.599 121.974C150.297 120.289 145.14 119.675 144.469 118.038Z" fill="#F8B551"/>
<path d="M101.98 137.329C124.907 137.863 143.887 121.402 144.372 100.563C144.858 79.7231 126.665 62.3964 103.737 61.8624C80.81 61.3284 61.8302 77.7894 61.3448 98.629C60.8594 119.469 79.0523 136.795 101.98 137.329Z" fill="#FFD55E"/>
<path d="M98.9645 124.381C95.1487 123.272 92.4675 121.018 92.0668 120.672C91.3817 120.072 90.9629 119.224 90.9023 118.315C90.8416 117.406 91.1441 116.511 91.7432 115.824C92.039 115.485 92.3987 115.208 92.8018 115.007C93.205 114.807 93.6436 114.689 94.0927 114.658C94.5417 114.628 94.9924 114.686 95.4188 114.83C95.8453 114.974 96.2392 115.201 96.5779 115.497C96.6721 115.567 100.162 118.486 103.868 118.103C105.861 117.895 107.627 116.747 109.271 114.59C109.545 114.23 109.887 113.928 110.278 113.7C110.669 113.473 111.102 113.325 111.55 113.265C111.998 113.205 112.454 113.235 112.891 113.351C113.329 113.468 113.738 113.67 114.097 113.945C115.609 115.1 115.897 117.26 114.742 118.772C111.905 122.472 108.466 124.551 104.526 124.952C102.501 125.122 100.628 124.865 98.9645 124.381ZM119.76 94.3128C120.788 94.2249 121.75 94.4616 122.638 94.9057C123.987 95.5843 125.126 96.7888 125.848 98.3446C126.282 99.3155 126.581 100.405 126.67 101.576C126.721 102.536 126.613 103.45 126.403 104.319C125.995 106.019 125.115 107.468 123.923 108.467C123.009 109.247 121.911 109.772 120.692 109.876C117.165 110.14 114.08 106.909 113.813 102.607C113.538 98.332 116.225 94.6027 119.76 94.3128ZM85.6887 109.855C82.1798 109.365 79.689 105.519 80.1789 101.223C80.6704 96.9698 83.9351 93.8664 87.4704 94.3642C90.987 94.8278 93.47 98.6996 92.9576 102.975C92.4754 107.245 89.2091 110.305 85.6887 109.855ZM255.217 -69.7903L270.02 -67.464L257.95 -58.9441L255.217 -69.7903Z" fill="#424242"/>
<circle cx="83.7214" cy="103.469" r="3.4375" transform="rotate(16.2062 83.7214 103.469)" fill="white"/>
<circle cx="116.776" cy="103.053" r="3.4375" transform="rotate(16.2062 116.776 103.053)" fill="white"/>
</g>
<g clip-path="url(#clip1_1272_10147)">
<path d="M240.79 243.288C248.205 241.24 255.637 243.91 260.111 249.491L289.621 241.557L276.355 233.889C272.83 231.852 271.609 227.295 273.643 223.764L277.451 217.15C276.251 216.713 275.225 216.12 274.136 215.49C254.652 204.229 247.981 179.32 259.221 159.8C263.402 152.522 269.726 146.716 277.326 143.176C284.927 139.636 293.434 138.536 301.683 140.025C309.932 141.514 317.52 145.52 323.409 151.495C329.299 157.47 333.202 165.123 334.585 173.405L374.706 196.594C378.231 198.631 379.451 203.188 377.418 206.72L344.143 264.511C342.109 268.043 337.561 269.265 334.036 267.228L307.695 252.003L263.935 263.768C262.85 270.844 257.814 276.919 250.474 278.838L240.79 243.288V243.288ZM310.431 159.872C309.415 159.114 308.5 158.329 307.411 157.699C295.041 150.55 279.174 154.815 272.039 167.208C264.903 179.601 269.161 195.498 281.53 202.648C282.62 203.278 283.756 203.678 284.919 204.179L310.431 159.872V159.872Z" fill="#C4C4C4"/>
</g>
<path d="M219.12 300.315C213.585 305.049 210.812 309.138 210.812 312.593C210.812 317.774 214.759 321.124 219.12 321.124C223.482 321.124 227.428 317.774 227.428 312.593C227.428 309.138 224.655 305.049 219.12 300.315ZM214.79 312.801C215.174 312.801 215.486 313.071 215.558 313.446C215.984 315.756 217.926 316.546 219.338 316.432C219.785 316.411 220.159 316.765 220.159 317.212C220.159 317.628 219.826 317.972 219.411 317.993C217.199 318.128 214.613 316.858 214.021 313.706C214.003 313.594 214.01 313.48 214.04 313.371C214.07 313.263 214.124 313.162 214.197 313.075C214.27 312.989 214.361 312.92 214.463 312.873C214.566 312.825 214.677 312.801 214.79 312.801V312.801Z" fill="#55ACEE"/>
<path d="M231.581 334.649C226.046 339.383 223.273 343.472 223.273 346.927C223.273 352.108 227.22 355.458 231.581 355.458C235.943 355.458 239.889 352.108 239.889 346.927C239.889 343.472 237.116 339.383 231.581 334.649ZM227.251 347.135C227.635 347.135 227.947 347.405 228.019 347.78C228.445 350.09 230.387 350.88 231.799 350.766C232.246 350.745 232.62 351.099 232.62 351.546C232.62 351.962 232.287 352.306 231.872 352.327C229.66 352.462 227.074 351.192 226.482 348.04C226.464 347.928 226.471 347.814 226.501 347.705C226.531 347.596 226.585 347.496 226.658 347.409C226.731 347.323 226.822 347.254 226.924 347.207C227.027 347.159 227.138 347.135 227.251 347.135V347.135Z" fill="#55ACEE"/>
<path d="M210.812 357.539C205.277 362.273 202.504 366.362 202.504 369.816C202.504 374.998 206.45 378.348 210.812 378.348C215.173 378.348 219.119 374.998 219.119 369.816C219.119 366.362 216.347 362.273 210.812 357.539ZM206.481 370.024C206.865 370.024 207.177 370.295 207.25 370.669C207.675 372.979 209.617 373.77 211.03 373.656C211.476 373.635 211.85 373.988 211.85 374.436C211.85 374.852 211.518 375.195 211.102 375.216C208.89 375.351 206.305 374.082 205.713 370.93C205.695 370.818 205.701 370.704 205.731 370.595C205.762 370.486 205.815 370.385 205.888 370.299C205.961 370.213 206.052 370.144 206.155 370.096C206.257 370.049 206.368 370.024 206.481 370.024V370.024Z" fill="#55ACEE"/>
<defs>
<clipPath id="clip0_1272_10147">
<rect width="176" height="176" fill="white" transform="translate(70.1211) rotate(16.2062)"/>
</clipPath>
<clipPath id="clip1_1272_10147">
<rect width="148.966" height="127.455" fill="white" transform="matrix(-0.49898 0.866613 0.86579 0.500408 279.436 123.467)"/>
</clipPath>
</defs>
</svg>
