<svg width="35" height="35" viewBox="0 0 35 35" fill="none" xmlns="http://www.w3.org/2000/svg">
<path fill-rule="evenodd" clip-rule="evenodd" d="M1.45801 4.13843C1.45801 3.42754 1.74041 2.74576 2.24308 2.24309C2.74576 1.74041 3.42753 1.45801 4.13843 1.45801H30.858C31.2103 1.45744 31.5593 1.52635 31.8849 1.66082C32.2105 1.79528 32.5064 1.99265 32.7557 2.24163C33.0049 2.4906 33.2026 2.7863 33.3374 3.11178C33.4722 3.43726 33.5415 3.78613 33.5413 4.13843V30.858C33.5417 31.2104 33.4726 31.5594 33.338 31.885C33.2034 32.2106 33.0059 32.5065 32.7568 32.7558C32.5077 33.005 32.2119 33.2027 31.8863 33.3375C31.5608 33.4723 31.2118 33.5415 30.8595 33.5413H4.13843C3.78631 33.5413 3.43764 33.472 3.11234 33.3372C2.78704 33.2024 2.49149 33.0048 2.24257 32.7558C1.99365 32.5067 1.79624 32.211 1.66162 31.8857C1.52701 31.5603 1.45782 31.2116 1.45801 30.8595V4.13843ZM14.1572 13.6905H18.5016V15.8722C19.1286 14.618 20.7328 13.4893 23.1434 13.4893C27.7649 13.4893 28.8601 15.9874 28.8601 20.5709V29.0613H24.1832V21.6151C24.1832 19.0047 23.5561 17.5318 21.9636 17.5318C19.7543 17.5318 18.8355 19.1199 18.8355 21.6151V29.0613H14.1572V13.6905ZM6.13634 28.8616H10.8147V13.4893H6.13634V28.8601V28.8616ZM11.4841 8.47551C11.4929 8.87608 11.4216 9.27437 11.2744 9.64701C11.1272 10.0197 10.9071 10.3591 10.6269 10.6456C10.3467 10.932 10.0122 11.1595 9.64284 11.3149C9.27353 11.4703 8.8769 11.5503 8.47624 11.5503C8.07558 11.5503 7.67895 11.4703 7.30964 11.3149C6.94032 11.1595 6.60576 10.932 6.32559 10.6456C6.04541 10.3591 5.82527 10.0197 5.67808 9.64701C5.53088 9.27437 5.4596 8.87608 5.46843 8.47551C5.48574 7.68926 5.81024 6.94104 6.37243 6.3911C6.93461 5.84115 7.68979 5.5332 8.47624 5.5332C9.26268 5.5332 10.0179 5.84115 10.5801 6.3911C11.1422 6.94104 11.4667 7.68926 11.4841 8.47551Z" fill="black"/>
</svg>
