<svg width="33" height="33" viewBox="0 0 33 33" fill="none" xmlns="http://www.w3.org/2000/svg">
<path fill-rule="evenodd" clip-rule="evenodd" d="M0.458008 3.13843C0.458008 2.42754 0.740408 1.74576 1.24308 1.24309C1.74576 0.740412 2.42753 0.458011 3.13843 0.458011H29.858C30.2103 0.457436 30.5593 0.526353 30.8849 0.660817C31.2105 0.795281 31.5064 0.992651 31.7557 1.24163C32.0049 1.4906 32.2026 1.7863 32.3374 2.11178C32.4722 2.43726 32.5415 2.78613 32.5413 3.13843V29.858C32.5417 30.2104 32.4726 30.5594 32.338 30.885C32.2034 31.2106 32.0059 31.5065 31.7568 31.7558C31.5077 32.005 31.2119 32.2027 30.8863 32.3375C30.5608 32.4723 30.2118 32.5415 29.8595 32.5413H3.13843C2.78631 32.5413 2.43764 32.472 2.11234 32.3372C1.78704 32.2024 1.49149 32.0048 1.24257 31.7558C0.99365 31.5067 0.796242 31.211 0.661624 30.8857C0.527006 30.5603 0.457817 30.2116 0.458008 29.8595V3.13843ZM13.1572 12.6905H17.5016V14.8722C18.1286 13.618 19.7328 12.4893 22.1434 12.4893C26.7649 12.4893 27.8601 14.9874 27.8601 19.5709V28.0613H23.1832V20.6151C23.1832 18.0047 22.5561 16.5318 20.9636 16.5318C18.7543 16.5318 17.8355 18.1199 17.8355 20.6151V28.0613H13.1572V12.6905ZM5.13634 27.8616H9.81468V12.4893H5.13634V27.8601V27.8616ZM10.4841 7.47551C10.4929 7.87608 10.4216 8.27437 10.2744 8.64701C10.1272 9.01966 9.90706 9.35915 9.62689 9.64556C9.34671 9.93197 9.01215 10.1595 8.64284 10.3149C8.27353 10.4703 7.8769 10.5503 7.47624 10.5503C7.07558 10.5503 6.67895 10.4703 6.30964 10.3149C5.94032 10.1595 5.60576 9.93197 5.32559 9.64556C5.04541 9.35915 4.82527 9.01966 4.67808 8.64701C4.53088 8.27437 4.4596 7.87608 4.46843 7.47551C4.48574 6.68926 4.81024 5.94104 5.37243 5.3911C5.93461 4.84115 6.68979 4.5332 7.47624 4.5332C8.26268 4.5332 9.01786 4.84115 9.58005 5.3911C10.1422 5.94104 10.4667 6.68926 10.4841 7.47551Z" fill="black"/>
</svg>
