<svg width="177" height="177" viewBox="0 0 177 177" fill="none" xmlns="http://www.w3.org/2000/svg">
<path d="M95.5387 5.86268C94.0453 7.19018 82.4297 30.2417 82.4297 30.2417L73.7871 65.1024L107.417 62.0187C107.417 62.0187 135.391 9.99729 135.958 8.79424C136.968 6.6094 137.507 5.71057 133.649 5.71057C129.791 5.69674 96.9354 4.61815 95.5387 5.86268Z" fill="#6E9C49"/>
<path d="M112.948 59.8624C111.275 58.9636 61.9915 58.1892 60.8299 59.8624C59.779 61.3835 60.3736 69.3623 60.7746 70.3165C61.4936 71.9759 77.3268 78.4059 77.3268 78.4059V82.4023C77.3268 82.4023 78.4054 82.8448 87.6426 82.8448C96.8798 82.8448 98.7189 82.3746 98.7189 82.3746L98.7881 78.5304C98.7881 78.5304 112.533 71.4504 113.252 70.4686C113.888 69.6527 114.621 60.7612 112.948 59.8624ZM98.6498 72.5013C98.6498 72.5013 98.8434 70.593 97.8893 70.1229C96.9351 69.6389 80.4382 69.7219 79.1383 69.791C77.8385 69.8602 77.8385 72.1833 77.8385 72.1833L67.5089 66.7212L67.3291 64.8959L105.965 65.1033L106.048 67.5647L98.6498 72.5013Z" fill="#FCC11A"/>
<path d="M81.641 71.6846C80.3412 71.6846 79.3594 73.1504 79.3594 75.4735C79.3594 77.6583 80.1061 79.456 81.7516 79.3592C83.3142 79.2762 84.0609 77.2988 83.9503 75.4458C83.812 73.2748 83.2866 71.6846 81.641 71.6846Z" fill="#FDFFFF"/>
<path d="M40.5303 127.343C40.5303 160.475 70.5511 174.262 90.4775 173.667C113.695 172.976 138.668 155.359 136.608 123.748C134.672 94.0863 109.381 79.9263 87.5597 80.0923C62.1989 80.272 40.5303 98.4007 40.5303 127.343Z" fill="#F8932A"/>
<path d="M89.2191 167.721C88.8734 167.721 88.5138 167.721 88.1681 167.707C77.7971 167.362 67.26 163.448 59.7652 156.188C51.7449 148.417 46.7944 138.585 46.7667 127.288C46.6976 97.6125 72.1275 86.7021 88.4862 86.7021H88.6245C110.791 86.7989 129.943 103.365 130.441 126.721C130.662 137.119 126.403 148.127 118.051 156.341C110.265 163.988 98.7743 167.721 89.2191 167.721Z" fill="#FCC11A"/>
<path d="M35.2756 5.14446C34.4044 5.94649 67.7164 65.2691 67.7164 65.2691C67.7164 65.2691 73.3029 65.9882 85.7759 66.0988C98.2489 66.2095 104.43 65.3798 104.43 65.3798C104.43 65.3798 78.5299 5.73906 76.9812 5.14446C76.2207 4.84024 65.9602 4.72961 55.9348 4.61899C45.8956 4.49453 36.1053 4.37008 35.2756 5.14446Z" fill="#A4D081"/>
<path d="M72.3071 93.1328C70.2882 91.4043 60.0139 96.6175 52.7956 108.551C47.9558 116.558 47.5409 126.804 50.6246 126.97C53.7083 127.136 53.6668 117 60.3734 108.136C68.4767 97.4748 75.2248 95.6357 72.3071 93.1328Z" fill="#FEFFFA"/>
<path d="M89.0116 92.5098C86.3151 92.5098 82.1113 110.334 78.8064 112.533C75.5015 114.732 58.3823 112.63 58.1887 115.036C57.9951 117.442 70.8967 127.453 72.404 131.146C73.9113 134.838 65.8909 151.362 68.1034 152.966C70.3021 154.57 84.1164 143.052 88.7212 143.052C93.5195 143.052 105.882 155.345 107.942 153.658C110.113 151.888 103.144 135.736 104.236 132.031C105.343 128.325 120.346 120.415 119.751 116.82C119.157 113.21 101.733 115.921 98.5253 112.92C95.3172 109.919 91.9155 92.5098 89.0116 92.5098Z" fill="#F8932A"/>
</svg>
