<svg width="104" height="104" viewBox="0 0 104 104" fill="none" xmlns="http://www.w3.org/2000/svg">
<path d="M6.79492 51.5871C6.79492 60.5146 9.4332 69.2415 14.3761 76.6644C19.3191 84.0873 26.3446 89.8728 34.5644 93.2892C42.7842 96.7055 51.829 97.5994 60.5551 95.8578C69.2812 94.1161 77.2966 89.8171 83.5878 83.5045C89.8789 77.1918 94.1632 69.149 95.899 60.3931C97.6347 51.6372 96.7439 42.5615 93.3391 34.3136C89.9344 26.0657 84.1686 19.0162 76.771 14.0563C69.3734 9.09651 60.6762 6.44922 51.7791 6.44922C39.8486 6.44922 28.4067 11.2048 19.9705 19.6698C11.5343 28.1348 6.79492 39.6158 6.79492 51.5871ZM26.0739 48.363H65.1137L47.1843 30.2853L51.7791 25.794L77.4844 51.5871L51.7791 77.3802L47.1843 72.7794L65.1137 54.8113H26.0739V48.363Z" fill="#ECDBCC"/>
</svg>
