<svg width="91" height="91" viewBox="0 0 91 91" fill="none" xmlns="http://www.w3.org/2000/svg">
<path d="M0.42627 45.5862C0.42627 54.5136 3.06455 63.2406 8.00747 70.6635C12.9504 78.0864 19.976 83.8718 28.1958 87.2882C36.4156 90.7046 45.4604 91.5984 54.1865 89.8568C62.9125 88.1151 70.9279 83.8162 77.2191 77.5035C83.5103 71.1909 87.7946 63.148 89.5303 54.3921C91.266 45.6362 90.3752 36.5605 86.9705 28.3126C83.5657 20.0648 77.8 13.0152 70.4024 8.05536C63.0047 3.09554 54.3075 0.448242 45.4105 0.448242C33.4799 0.448242 22.038 5.20383 13.6018 13.6688C5.16566 22.1338 0.42627 33.6148 0.42627 45.5862V45.5862ZM19.7052 42.362H58.7451L40.8157 24.2843L45.4105 19.7931L71.1157 45.5862L45.4105 71.3793L40.8157 66.7784L58.7451 48.8103H19.7052V42.362Z" fill="#937356"/>
</svg>
