<svg width="110" height="105" viewBox="0 0 110 105" fill="none" xmlns="http://www.w3.org/2000/svg">
<g clip-path="url(#clip0_1134_9954)">
<path d="M95.7361 46.7401C97.5814 42.5986 95.2194 37.5085 90.4706 35.3926C85.7217 33.2767 80.3576 34.9244 78.5123 39.0658C76.6671 43.2072 79.0291 48.2974 83.7779 50.4133C88.5267 52.5292 93.8909 50.8815 95.7361 46.7401ZM80.9729 40.1621C82.2904 37.2052 86.1214 36.0266 89.5145 37.5384C92.9076 39.0502 94.5931 42.6868 93.2756 45.6437C91.9581 48.6007 88.1271 49.7793 84.734 48.2675C81.3409 46.7557 79.6554 43.1191 80.9729 40.1621Z" fill="black"/>
<path d="M76.8391 55.7255C80.4094 57.3163 85.2289 58.5455 88.2212 58.6469C95.2775 59.2705 100.226 56.5169 102.926 50.4572C106.458 42.5305 101.936 32.7846 92.8463 28.7348C84.0056 24.7957 74.8967 27.9845 71.1851 36.3146C66.9659 45.7841 59.7552 46.2747 59.4596 46.2896C59.3567 46.2946 59.2558 46.3101 59.1589 46.3356L4.17936 61.3291C3.93362 61.3959 3.72325 61.5311 3.57558 61.717C3.42791 61.903 3.34979 62.1311 3.35135 62.3717C3.35291 62.6123 3.43409 62.8543 3.58434 63.0663C3.73459 63.2782 3.94695 63.4503 4.19384 63.5602C27.9405 74.1408 46.5541 65.8821 60.1409 59.8509C67.4081 56.6259 73.1434 54.0788 76.8391 55.7255ZM8.41777 62.7572L60.0204 48.6843C61.3199 48.5741 69.152 47.4963 73.6457 37.4109C76.8037 30.3233 84.4766 27.5774 91.8902 30.8806C99.6261 34.3275 103.471 42.6165 100.466 49.3608C98.1661 54.5215 94.1544 56.7744 88.1279 56.2418C85.844 56.1655 81.4442 55.2055 77.7952 53.5797C72.9061 51.4013 66.6795 54.1641 58.7988 57.6609C46.3153 63.2013 29.4451 70.6911 8.41777 62.7572Z" fill="black"/>
<path d="M65.6119 91.1848C70.3607 93.3007 75.7248 91.653 77.5701 87.5115C79.4154 83.3701 77.0534 78.28 72.3045 76.1641C67.5557 74.0482 62.1916 75.6959 60.3463 79.8373C58.5011 83.9787 60.863 89.0689 65.6119 91.1848ZM71.3485 78.3099C74.7415 79.8217 76.4271 83.4583 75.1096 86.4152C73.7921 89.3722 69.9611 90.5508 66.568 89.039C63.1749 87.5271 61.4894 83.8906 62.8069 80.9336C64.1244 77.9767 67.9554 76.798 71.3485 78.3099Z" fill="black"/>
<path d="M57.7958 42.3488C57.8543 42.5059 57.9457 42.6539 58.0647 42.7838C58.1837 42.9138 58.3279 43.0232 58.4886 43.1054C58.6493 43.1877 58.8232 43.2411 59.0001 43.2625C59.177 43.284 59.3532 43.273 59.5183 43.2303C59.6833 43.1875 59.8338 43.1139 59.9608 43.0137C60.0878 42.9136 60.1887 42.789 60.2576 42.6473C60.3264 42.5056 60.3617 42.3497 60.3615 42.189C60.3612 42.0283 60.3254 41.8659 60.2561 41.7116C55.7129 30.596 48.0396 16.7432 28.8621 8.19843C28.6154 8.08833 28.3454 8.04551 28.0873 8.07553C27.8293 8.10556 27.595 8.20704 27.4151 8.36678C27.2351 8.52653 27.1178 8.73715 27.0783 8.97128C27.0388 9.20541 27.079 9.45221 27.1936 9.67962L45.4085 45.8797C45.56 46.1805 45.8307 46.4259 46.161 46.562C46.4914 46.6981 46.8544 46.7137 47.1701 46.6055C47.4858 46.4972 47.7285 46.2738 47.8446 45.9846C47.9608 45.6954 47.9409 45.3639 47.7895 45.0632L31.0852 11.8662C46.9913 20.0489 53.707 32.3512 57.7958 42.3488Z" fill="black"/>
<path d="M56.9269 66.9689C56.927 66.8117 56.8931 66.6529 56.8269 66.5015C56.7608 66.3502 56.6638 66.2092 56.5415 66.0866C56.4192 65.9641 56.274 65.8624 56.1142 65.7873C55.9543 65.7122 55.7829 65.6653 55.6099 65.6491C55.4368 65.633 55.2654 65.6479 55.1054 65.6931C54.9455 65.7383 54.8001 65.8129 54.6777 65.9126C54.5552 66.0124 54.458 66.1352 54.3917 66.2742C54.3253 66.4133 54.2911 66.5657 54.291 66.7229C54.2973 67.3178 54.3188 67.9139 54.3555 68.5107C54.4712 70.7329 54.6179 73.5012 53.4027 76.2286C49.6912 84.5587 53.4115 93.4637 62.2522 97.4028C71.3415 101.453 81.6119 98.2978 85.1437 90.3711C87.8437 84.3113 86.5818 78.7906 81.4535 74.0187C79.2676 71.7434 73.4955 68.9787 70.2525 67.5337C69.5906 67.2388 68.9068 64.9744 68.4988 63.6199C68.1238 62.3701 67.7327 61.077 67.1878 60.0627C67.0279 59.7651 66.7509 59.5258 66.4176 59.3975C66.0843 59.2693 65.722 59.2626 65.4105 59.3789C65.099 59.4952 64.8638 59.725 64.7566 60.0177C64.6494 60.3105 64.679 60.6422 64.8389 60.9399C65.2672 61.7325 65.6188 62.9025 65.9597 64.0368C66.7055 66.5063 67.4067 68.8376 69.2964 69.6796C74.3946 71.9511 78.2288 74.1276 79.6063 75.5566C83.9748 79.6248 84.9825 84.1141 82.6831 89.2748C81.2343 92.5159 78.3702 94.9661 74.7191 96.0876C71.068 97.2091 66.9283 96.9103 63.2083 95.2569C55.7923 91.9526 52.7053 84.4125 55.8633 77.3249C57.2821 74.1405 57.1123 70.9607 56.9886 68.6372C56.9556 68.0361 56.928 67.476 56.9269 66.9689Z" fill="black"/>
<path d="M59.071 54.8346C59.4966 53.8794 58.9537 52.7095 57.8584 52.2215C56.7631 51.7334 55.5302 52.1122 55.1046 53.0673C54.679 54.0225 55.2219 55.1925 56.3172 55.6805C57.4125 56.1685 58.6454 55.7898 59.071 54.8346Z" fill="black"/>
</g>
<defs>
<clipPath id="clip0_1134_9954">
<rect width="75.1738" height="86.1993" fill="white" transform="translate(0 69.6641) rotate(-65.9841)"/>
</clipPath>
</defs>
</svg>
