<svg width="68" height="74" viewBox="0 0 68 74" fill="none" xmlns="http://www.w3.org/2000/svg">
<path d="M25.5 4.625V18.5H29.75V20.9582C21.0332 21.9687 17.2656 28.9756 17.2656 28.9756L17 29.4844V69.375H46.75V29.4844L46.4844 28.9779C46.4844 28.9779 42.7168 21.9688 34 20.9559V18.5H38.25V4.625H25.5ZM51 4.625C49.8313 4.625 48.875 5.66562 48.875 6.9375C48.875 8.20938 49.8313 9.25 51 9.25C52.1687 9.25 53.125 8.20938 53.125 6.9375C53.125 5.66562 52.1687 4.625 51 4.625ZM29.75 9.25H34V13.875H29.75V9.25ZM44.625 9.25C43.4563 9.25 42.5 10.2906 42.5 11.5625C42.5 12.8344 43.4563 13.875 44.625 13.875C45.7937 13.875 46.75 12.8344 46.75 11.5625C46.75 10.2906 45.7937 9.25 44.625 9.25ZM51 13.875C49.8313 13.875 48.875 14.9156 48.875 16.1875C48.875 17.4594 49.8313 18.5 51 18.5C52.1687 18.5 53.125 17.4594 53.125 16.1875C53.125 14.9156 52.1687 13.875 51 13.875ZM31.875 25.4375C35.5683 25.4375 38.0587 26.5475 39.712 27.75H24.0401C25.6912 26.5475 28.1817 25.4375 31.875 25.4375ZM21.25 32.375H42.5V64.75H21.25V32.375Z" fill="black"/>
<g clip-path="url(#clip0_38_29)">
<path d="M36.8249 41.44C36.8249 42.9801 35.9569 44.3364 34.6379 45.1307V45.88C34.6379 46.494 34.1493 46.99 33.5445 46.99H30.2641C29.6592 46.99 29.1706 46.494 29.1706 45.88V45.1307C27.8516 44.3364 26.9837 42.9801 26.9837 41.44C26.9837 38.9879 29.1877 37 31.9043 37C34.6208 37 36.8249 38.9879 36.8249 41.44ZM29.9907 43.105C30.5955 43.105 31.0842 42.609 31.0842 41.995C31.0842 41.381 30.5955 40.885 29.9907 40.885C29.3859 40.885 28.8972 41.381 28.8972 41.995C28.8972 42.609 29.3859 43.105 29.9907 43.105ZM33.8178 40.885C33.213 40.885 32.7244 41.381 32.7244 41.995C32.7244 42.609 33.213 43.105 33.8178 43.105C34.4226 43.105 34.9113 42.609 34.9113 41.995C34.9113 41.381 34.4226 40.885 33.8178 40.885ZM24.3654 46.494C24.6354 45.9459 25.2922 45.7239 25.8324 45.9979L31.9043 49.0782L37.9764 45.9979C38.5163 45.7239 39.1724 45.9459 39.4424 46.494C39.7123 47.042 39.4936 47.708 38.9537 47.9821L34.3509 50.32L38.9537 52.6579C39.4936 52.932 39.7123 53.598 39.4424 54.146C39.1724 54.6941 38.5163 54.9161 37.9764 54.6421L31.9043 51.5618L25.8324 54.6421C25.2922 54.9161 24.6354 54.6941 24.3654 54.146C24.0954 53.598 24.3143 52.932 24.8545 52.6579L29.4576 50.32L24.8545 47.9821C24.3143 47.708 24.0954 47.042 24.3654 46.494Z" fill="black"/>
</g>
<defs>
<clipPath id="clip0_38_29">
<rect width="15.3085" height="17.76" fill="white" transform="translate(24.25 37)"/>
</clipPath>
</defs>
</svg>
