<svg width="37" height="66" viewBox="0 0 37 66" fill="none" xmlns="http://www.w3.org/2000/svg">
<path d="M8.5 0.625V14.5H12.75V16.9582C4.03325 17.9688 0.265625 24.9756 0.265625 24.9756L0 25.4844V65.375H29.75V25.4844L29.4844 24.9779C29.4844 24.9779 25.7168 17.9688 17 16.9559V14.5H21.25V0.625H8.5ZM34 0.625C32.8312 0.625 31.875 1.66562 31.875 2.9375C31.875 4.20937 32.8312 5.25 34 5.25C35.1688 5.25 36.125 4.20937 36.125 2.9375C36.125 1.66562 35.1688 0.625 34 0.625ZM12.75 5.25H17V9.875H12.75V5.25ZM27.625 5.25C26.4562 5.25 25.5 6.29063 25.5 7.5625C25.5 8.83438 26.4562 9.875 27.625 9.875C28.7938 9.875 29.75 8.83438 29.75 7.5625C29.75 6.29063 28.7938 5.25 27.625 5.25ZM34 9.875C32.8312 9.875 31.875 10.9156 31.875 12.1875C31.875 13.4594 32.8312 14.5 34 14.5C35.1688 14.5 36.125 13.4594 36.125 12.1875C36.125 10.9156 35.1688 9.875 34 9.875ZM14.875 21.4375C18.5683 21.4375 21.0588 22.5475 22.712 23.75H7.04012C8.69125 22.5475 11.1817 21.4375 14.875 21.4375ZM4.25 28.375H25.5V60.75H4.25V28.375Z" fill="#C08552"/>
<path d="M19.8248 37.44C19.8248 38.9801 18.9568 40.3364 17.6378 41.1307V41.88C17.6378 42.494 17.1492 42.99 16.5444 42.99H13.264C12.6591 42.99 12.1705 42.494 12.1705 41.88V41.1307C10.8515 40.3364 9.98356 38.9801 9.98356 37.44C9.98356 34.9879 12.1876 33 14.9042 33C17.6208 33 19.8248 34.9879 19.8248 37.44ZM12.9906 39.105C13.5954 39.105 14.0841 38.609 14.0841 37.995C14.0841 37.381 13.5954 36.885 12.9906 36.885C12.3858 36.885 11.8971 37.381 11.8971 37.995C11.8971 38.609 12.3858 39.105 12.9906 39.105ZM16.8177 36.885C16.2129 36.885 15.7243 37.381 15.7243 37.995C15.7243 38.609 16.2129 39.105 16.8177 39.105C17.4226 39.105 17.9112 38.609 17.9112 37.995C17.9112 37.381 17.4226 36.885 16.8177 36.885ZM7.36536 42.494C7.63534 41.9459 8.29211 41.7239 8.83235 41.9979L14.9042 45.0782L20.9763 41.9979C21.5162 41.7239 22.1723 41.9459 22.4423 42.494C22.7122 43.042 22.4935 43.708 21.9536 43.9821L17.3508 46.32L21.9536 48.6579C22.4935 48.932 22.7122 49.598 22.4423 50.146C22.1723 50.6941 21.5162 50.9161 20.9763 50.6421L14.9042 47.5618L8.83235 50.6421C8.29211 50.9161 7.63534 50.6941 7.36536 50.146C7.09527 49.598 7.3142 48.932 7.85438 48.6579L12.4575 46.32L7.85438 43.9821C7.3142 43.708 7.09527 43.042 7.36536 42.494Z" fill="#C08552"/>
</svg>
