<svg width="156" height="156" viewBox="0 0 156 156" fill="none" xmlns="http://www.w3.org/2000/svg">
<path d="M114.367 98.925C114.367 98.925 120.717 92.5753 127.408 94.4644C134.099 96.3534 138.389 99.7781 138.901 106.822C139.413 113.867 137.731 119.132 132.38 122.605C125.519 127.066 117.28 124.153 117.28 124.153L114.367 98.925Z" fill="#ECF0F2"/>
<path d="M73.3566 51.9192C73.3566 51.9192 78.3291 41.1089 77.9879 26.5204C77.6466 11.932 74.3804 4.2173 67.0679 4.49761C59.0607 4.81449 56.5745 17.721 56.7207 28.4095C56.8913 41.4501 61.6445 51.2854 61.6445 51.2854L73.3566 51.9192ZM56.8913 94.746H44.5332C44.5332 94.746 45.0573 97.0251 44.9354 98.1707C44.8257 99.3164 44.5332 102.168 44.5332 102.168L59.9748 114.295L89.371 97.9392L81.4735 92.5645L56.8913 94.746Z" fill="#A8A8A8"/>
<path d="M23.7161 79.1583C23.4079 79.1579 23.1113 79.0408 22.886 78.8306C22.6606 78.6203 22.5233 78.3325 22.5017 78.025C22.4801 77.7176 22.5757 77.4134 22.7694 77.1736C22.9631 76.9339 23.2404 76.7764 23.5455 76.7329C23.6796 76.7086 26.8483 76.2698 30.3096 76.1479C34.1365 76.0261 35.1602 75.9895 38.4752 76.6233C39.1333 76.7451 39.5721 77.3911 39.438 78.0492C39.304 78.7073 38.6702 79.1339 38.0121 79.012C34.9774 78.427 34.0999 78.4514 30.3949 78.5733C27.0677 78.6829 23.9233 79.1339 23.8868 79.1339C23.8258 79.1461 23.7771 79.1583 23.7161 79.1583V79.1583ZM22.4608 87.6164C21.9124 87.6164 21.4127 87.2386 21.2786 86.6901C21.1202 86.032 21.5224 85.3739 22.1805 85.2154C22.3511 85.1667 26.4705 84.1673 29.0055 83.7164C31.5283 83.2533 36.0865 82.7048 36.2815 82.6804C36.4403 82.6583 36.602 82.6684 36.7569 82.7102C36.9118 82.7519 37.0567 82.8244 37.183 82.9234C37.3092 83.0223 37.4143 83.1457 37.4918 83.2861C37.5693 83.4266 37.6178 83.5812 37.6343 83.7408C37.6552 83.8995 37.6442 84.0607 37.602 84.2152C37.5598 84.3696 37.4872 84.514 37.3884 84.64C37.2897 84.766 37.1668 84.871 37.0269 84.9489C36.8871 85.0268 36.7331 85.076 36.574 85.0936C36.5252 85.0936 31.8939 85.6664 29.4443 86.1173C26.9946 86.5683 22.8021 87.5798 22.7655 87.592C22.6436 87.6042 22.5583 87.6164 22.4608 87.6164V87.6164Z" fill="#8E9395"/>
<path d="M98.6326 105.727L55.5132 132.845C55.5132 132.845 46.592 142.912 48.5907 145.032C49.651 146.153 53.8191 147.153 57.451 146.348C62.6551 145.203 67.1766 134.161 67.1766 134.161C67.1766 134.161 64.8854 149.834 68.432 150.517C71.9785 151.199 77.1217 150.346 79.4129 146.117C81.7042 141.888 82.4963 136.732 84.556 134.563C86.6157 132.394 88.4438 130.785 88.4438 130.785C88.4438 130.785 89.5895 132.162 90.272 133.076C90.9545 133.99 92.222 135.246 92.222 135.246C92.222 135.246 86.8717 138.561 85.0192 141.193C83.1301 143.887 83.5201 147.067 86.2745 148.177C90.272 149.773 107.554 142.802 107.554 142.802L104.117 104.484L98.6326 105.727Z" fill="#A8A8A8"/>
<path d="M92.0031 79.8778C92.0031 79.8778 92.5759 75.7585 91.7715 71.9803C90.9671 68.2022 88.6881 63.8635 88.6881 63.8635C88.6881 63.8635 97.1584 60.6582 103.216 55.1738C109.943 49.08 119.912 37.6725 120.827 28.2882C121.741 18.9038 116.134 10.4457 101.375 19.3669C86.6162 28.2882 75.879 50.3719 75.879 50.3719C75.879 50.3719 64.2156 45.4482 54.7215 50.6035C45.2275 55.7588 40.194 69.0188 39.7309 69.9328C39.2678 70.8469 31.8334 72.9675 31.0778 81.0479C30.3344 89.055 36.1722 95.0878 42.6559 95.0878C47.3115 96.3188 51.9671 96.1238 51.9671 96.1238C51.9671 96.1238 55.5137 100.121 64.6665 100.012C73.8193 99.9019 81.3634 95.0878 81.3634 95.0878C81.3634 95.0878 79.645 101.608 71.4062 105.155C65.2271 107.812 57.6831 107.446 52.1865 105.045C46.69 102.644 44.7521 99.9019 44.7521 99.9019C44.7521 99.9019 42.8021 108.823 44.7521 114.198C46.7021 119.573 50.4681 127.007 50.2365 132.613C50.005 138.219 46.4096 142.339 48.1768 144.618C49.164 145.898 53.2347 146.97 56.4156 143.594C61.7903 137.878 61.5831 131.407 63.5087 131.126C67.5062 130.553 65.5684 142.217 65.4587 144.618C65.349 147.019 65.0078 150.053 67.6281 150.456C73.2343 151.309 74.1484 149.2 76.5493 143.594C78.9503 137.988 78.67 135.075 81.1196 131.699C83.1184 128.957 86.4943 127.129 86.4943 127.129C86.4943 127.129 85.8606 119.524 88.3834 115.514C90.894 111.517 95.8787 108.36 99.535 109.737C103.191 111.114 95.1353 112.077 92.5028 117.805C90.5771 121.998 90.955 126.324 93.7093 129.298C96.4515 132.272 99.7665 134.783 99.7665 134.783C99.7665 134.783 86.6528 139.511 85.4706 144.338C84.6175 147.823 86.0434 149.432 94.0506 148.628C102.058 147.823 112.234 145.081 116.244 140.048C120.242 135.014 125.36 118.512 121.107 106.471C117.67 96.7453 115.22 92.4553 106.409 86.1666C97.6093 79.8778 92.0031 79.8778 92.0031 79.8778Z" fill="#DFDFDF"/>
<path d="M85.1422 53.5762C82.9972 51.3581 86.7388 43.5093 95.2091 34.4784C103.679 25.4474 109.505 22.5834 112.369 24.6431C115.233 26.7028 111.114 35.5143 102.985 44.0943C96.2572 51.1874 88.6888 57.2324 85.1422 53.5762Z" fill="#FFB0B1"/>
<path d="M58.0853 53.1132C61.254 53.7957 58.5118 58.427 55.855 62.8876C53.1981 67.3482 51.2237 69.6638 51.8209 71.8088C52.4181 73.9538 57.0493 78.0732 56.7934 82.9604C56.5375 87.8476 52.4181 93.4295 44.7034 92.8201C36.9887 92.2107 32.2234 86.2632 33.5153 79.8282C34.539 74.7338 41.4493 72.406 42.8143 69.9076C44.1915 67.4213 46.4584 63.241 48.8228 59.7798C52.1743 54.917 54.9043 52.4307 58.0853 53.1132Z" fill="white"/>
<path d="M68.895 84.4113C68.7487 84.4113 68.6147 84.387 68.4684 84.3382C68.4197 84.326 64.0565 82.7051 61.2534 82.0957L54.6234 80.6698C53.9653 80.5235 53.5509 79.8776 53.685 79.2195C53.819 78.5613 54.4772 78.147 55.1353 78.281L61.7653 79.707C64.739 80.3529 69.1265 81.9738 69.3094 82.047C69.9431 82.2785 70.26 82.9854 70.0284 83.6191C69.945 83.8524 69.7911 84.054 69.588 84.196C69.3849 84.3379 69.1427 84.4132 68.895 84.4113V84.4113ZM67.5178 92.5404C67.2984 92.5404 67.079 92.4795 66.8719 92.3576C66.8353 92.3332 63.0815 90.0054 59.6081 88.1041C57.4413 86.9197 55.2117 85.8537 52.9294 84.911C52.6304 84.7898 52.3918 84.5548 52.2661 84.2577C52.1404 83.9605 52.1378 83.6256 52.259 83.3266C52.3803 83.0277 52.6153 82.7891 52.9124 82.6634C53.2095 82.5376 53.5444 82.5351 53.8434 82.6563C53.9775 82.7051 57.2072 84.0213 60.7781 85.9835C64.3125 87.9213 68.115 90.2857 68.1515 90.3101C68.7244 90.6635 68.895 91.4191 68.5415 91.992C68.3344 92.3332 67.9322 92.5404 67.5178 92.5404V92.5404Z" fill="#8E9395"/>
<circle cx="70.0781" cy="70.0781" r="4.26562" fill="#424242"/>
<circle cx="67.6406" cy="70.0781" r="1.82812" fill="white"/>
<path d="M39.0432 77.4715C39.6019 75.9184 43.5133 77.4715 43.5133 77.4715C43.5133 77.4715 45.7484 78.5069 44.6309 79.0246C43.5133 79.5423 38.4844 79.0246 39.0432 77.4715Z" fill="#FFB0B1" stroke="#FFB0B1"/>
<path d="M37.7812 82.7051C39.989 88.2718 39.6094 85.1426 43.9896 83.8771" stroke="black" stroke-linecap="round"/>
</svg>
