<svg width="55" height="59" viewBox="0 0 55 59" fill="none" xmlns="http://www.w3.org/2000/svg">
<g clip-path="url(#clip0_38_33)">
<path d="M43.8281 53.4688C47.1453 53.4688 49.8438 50.5741 49.8438 47.0156C49.8438 43.4572 47.1453 40.5625 43.8281 40.5625C40.5109 40.5625 37.8125 43.4572 37.8125 47.0156C37.8125 50.5741 40.5109 53.4688 43.8281 53.4688ZM43.8281 42.4062C46.1966 42.4062 48.125 44.4731 48.125 47.0156C48.125 49.5582 46.1966 51.625 43.8281 51.625C41.4597 51.625 39.5312 49.5582 39.5312 47.0156C39.5312 44.4731 41.4597 42.4062 43.8281 42.4062Z" fill="#C08552"/>
<path d="M32.1956 44.1578C32.1956 46.8331 32.8092 50.1887 33.6325 52.0877C35.3169 56.6731 38.6306 59 43.4844 59C49.8334 59 55 53.4576 55 46.6468C55 40.0222 50.1566 35.2156 43.4844 35.2156C35.8995 35.2156 33.4245 30.8441 33.3266 30.6634C33.2925 30.6005 33.2522 30.5417 33.2062 30.4882L6.81484 0.291273C6.697 0.156253 6.54403 0.0623795 6.3758 0.0218528C6.20757 -0.0186739 6.03187 -0.00397944 5.87152 0.0640263C5.71118 0.132032 5.57362 0.250204 5.47671 0.403184C5.3798 0.556164 5.32803 0.736877 5.32813 0.921836C5.32813 18.7159 16.39 28.0526 24.4664 34.8671C28.7856 38.5122 32.1956 41.3885 32.1956 44.1578ZM7.1225 3.33899L31.8931 31.6811C32.3538 32.4629 35.4062 37.0593 43.4844 37.0593C49.1614 37.0593 53.2812 41.0916 53.2812 46.6468C53.2812 52.4436 48.8864 57.1562 43.4844 57.1562C39.3508 57.1562 36.6506 55.2756 35.212 51.3595C34.583 49.9103 33.9144 46.8921 33.9144 44.1578C33.9144 40.4942 30.2139 37.3709 25.5303 33.4179C18.1105 27.1566 8.08156 18.6956 7.1225 3.33899Z" fill="#C08552"/>
<path d="M5.15625 47.0156C5.15625 50.5741 7.85469 53.4688 11.1719 53.4688C14.4891 53.4688 17.1875 50.5741 17.1875 47.0156C17.1875 43.4572 14.4891 40.5625 11.1719 40.5625C7.85469 40.5625 5.15625 43.4572 5.15625 47.0156ZM15.4688 47.0156C15.4688 49.5582 13.5403 51.625 11.1719 51.625C8.80344 51.625 6.875 49.5582 6.875 47.0156C6.875 44.4731 8.80344 42.4062 11.1719 42.4062C13.5403 42.4062 15.4688 44.4731 15.4688 47.0156Z" fill="#C08552"/>
<path d="M35.4647 28.5246C35.3771 28.6049 35.3055 28.7033 35.254 28.8139C35.2026 28.9246 35.1725 29.0451 35.1653 29.1685C35.1582 29.2919 35.1743 29.4155 35.2127 29.5321C35.251 29.6487 35.3108 29.7558 35.3885 29.8471C35.4662 29.9383 35.5603 30.0119 35.665 30.0634C35.7698 30.1149 35.8831 30.1433 35.9983 30.1469C36.1135 30.1504 36.2281 30.1291 36.3355 30.0842C36.4428 30.0393 36.5407 29.9716 36.6232 29.8853C42.6989 23.9484 49.6719 15.292 49.6719 0.921836C49.672 0.736877 49.6202 0.556164 49.5233 0.403184C49.4264 0.250204 49.2888 0.132032 49.1285 0.0640263C48.9682 -0.00397944 48.7925 -0.0186739 48.6242 0.0218528C48.456 0.0623795 48.303 0.156253 48.1852 0.291273L29.4164 21.7636C29.2605 21.9421 29.1771 22.1797 29.1845 22.4241C29.192 22.6686 29.2896 22.8999 29.456 23.0671C29.6224 23.2344 29.8438 23.3238 30.0717 23.3159C30.2996 23.3079 30.5152 23.2032 30.6711 23.0247L47.8827 3.33346C47.1505 15.5575 40.9286 23.1833 35.4647 28.5246Z" fill="#C08552"/>
<path d="M18.7533 34.8395C18.8584 34.7958 18.9544 34.7303 19.0358 34.6468C19.1173 34.5633 19.1827 34.4634 19.2282 34.3528C19.2736 34.2422 19.2984 34.123 19.3009 34.0022C19.3035 33.8813 19.2839 33.7611 19.2431 33.6484C19.2024 33.5357 19.1413 33.4327 19.0635 33.3453C18.9857 33.2579 18.8925 33.1878 18.7894 33.139C18.6863 33.0902 18.5753 33.0637 18.4626 33.0609C18.3499 33.0582 18.2379 33.0792 18.1328 33.1229C17.7371 33.2926 17.3451 33.4721 16.9572 33.6613C15.5066 34.3527 13.7002 35.2156 11.5156 35.2156C4.84344 35.2156 0 40.0222 0 46.6468C0 53.4576 5.16656 59 11.5156 59C16.3694 59 19.6831 56.6731 21.3452 52.1375C22.2148 50.1371 22.3438 45.7582 22.3438 43.3281C22.3438 42.8321 23.6534 41.7738 24.4372 41.1414C25.1608 40.5588 25.9084 39.954 26.4241 39.3308C26.5754 39.148 26.6528 38.9081 26.6393 38.664C26.6257 38.4198 26.5224 38.1915 26.3519 38.0291C26.1814 37.8668 25.9578 37.7838 25.7302 37.7983C25.5026 37.8128 25.2898 37.9237 25.1384 38.1066C24.7363 38.5952 24.0591 39.1409 23.4025 39.6701C21.9742 40.8243 20.625 41.9121 20.625 43.3281C20.625 47.1483 20.3122 50.1518 19.7673 51.4111C18.3494 55.2756 15.6492 57.1562 11.5156 57.1562C8.91817 57.1533 6.42788 56.0451 4.5912 54.0749C2.75452 52.1046 1.72148 49.4332 1.71875 46.6468C1.71875 41.0898 5.83859 37.0593 11.5156 37.0593C14.0663 37.0593 16.1408 36.0674 17.6567 35.3428C18.0486 35.1547 18.4147 34.9814 18.7533 34.8395Z" fill="#C08552"/>
<path d="M27.5001 32.8003C28.2651 32.8003 28.8854 32.135 28.8854 31.3142C28.8854 30.4935 28.2651 29.8282 27.5001 29.8282C26.735 29.8282 26.1147 30.4935 26.1147 31.3142C26.1147 32.135 26.735 32.8003 27.5001 32.8003Z" fill="#C08552"/>
</g>
<defs>
<clipPath id="clip0_38_33">
<rect width="55" height="59" fill="white"/>
</clipPath>
</defs>
</svg>
