<svg width="55" height="59" viewBox="0 0 55 59" fill="none" xmlns="http://www.w3.org/2000/svg">
<g clip-path="url(#clip0_608_4260)">
<path d="M43.8281 53.4688C47.1453 53.4688 49.8438 50.5741 49.8438 47.0156C49.8438 43.4572 47.1453 40.5625 43.8281 40.5625C40.5109 40.5625 37.8125 43.4572 37.8125 47.0156C37.8125 50.5741 40.5109 53.4688 43.8281 53.4688ZM43.8281 42.4062C46.1966 42.4062 48.125 44.4731 48.125 47.0156C48.125 49.5582 46.1966 51.625 43.8281 51.625C41.4597 51.625 39.5312 49.5582 39.5312 47.0156C39.5312 44.4731 41.4597 42.4062 43.8281 42.4062Z" fill="black"/>
<path d="M32.1956 44.1578C32.1956 46.8331 32.8092 50.1887 33.6325 52.0878C35.3169 56.6732 38.6306 59 43.4844 59C49.8334 59 55 53.4577 55 46.6469C55 40.0223 50.1566 35.2156 43.4844 35.2156C35.8995 35.2156 33.4245 30.8441 33.3266 30.6634C33.2925 30.6005 33.2522 30.5418 33.2062 30.4883L6.81484 0.291334C6.697 0.156314 6.54403 0.0624406 6.3758 0.0219139C6.20757 -0.0186129 6.03187 -0.00391841 5.87152 0.0640874C5.71118 0.132093 5.57362 0.250265 5.47671 0.403245C5.3798 0.556225 5.32803 0.736938 5.32813 0.921897C5.32813 18.7159 16.39 28.0527 24.4664 34.8672C28.7856 38.5123 32.1956 41.3885 32.1956 44.1578ZM7.1225 3.33905L31.8931 31.6812C32.3538 32.4629 35.4062 37.0594 43.4844 37.0594C49.1614 37.0594 53.2812 41.0917 53.2812 46.6469C53.2812 52.4436 48.8864 57.1563 43.4844 57.1563C39.3508 57.1563 36.6506 55.2756 35.212 51.3595C34.583 49.9103 33.9144 46.8921 33.9144 44.1578C33.9144 40.4943 30.2139 37.371 25.5303 33.418C18.1105 27.1566 8.08156 18.6956 7.1225 3.33905Z" fill="black"/>
<path d="M5.15625 47.0156C5.15625 50.5741 7.85469 53.4688 11.1719 53.4688C14.4891 53.4688 17.1875 50.5741 17.1875 47.0156C17.1875 43.4572 14.4891 40.5625 11.1719 40.5625C7.85469 40.5625 5.15625 43.4572 5.15625 47.0156ZM15.4688 47.0156C15.4688 49.5582 13.5403 51.625 11.1719 51.625C8.80344 51.625 6.875 49.5582 6.875 47.0156C6.875 44.4731 8.80344 42.4062 11.1719 42.4062C13.5403 42.4062 15.4688 44.4731 15.4688 47.0156Z" fill="black"/>
<path d="M35.4647 28.5247C35.3771 28.605 35.3055 28.7034 35.254 28.814C35.2026 28.9246 35.1725 29.0452 35.1653 29.1686C35.1582 29.292 35.1743 29.4156 35.2127 29.5322C35.251 29.6488 35.3108 29.7559 35.3885 29.8471C35.4662 29.9384 35.5603 30.012 35.665 30.0635C35.7698 30.115 35.8831 30.1434 35.9983 30.1469C36.1135 30.1505 36.2281 30.1292 36.3355 30.0843C36.4428 30.0393 36.5407 29.9717 36.6232 29.8854C42.6989 23.9485 49.6719 15.2921 49.6719 0.921897C49.672 0.736938 49.6202 0.556225 49.5233 0.403245C49.4264 0.250265 49.2888 0.132093 49.1285 0.0640874C48.9682 -0.00391841 48.7925 -0.0186129 48.6242 0.0219139C48.456 0.0624406 48.303 0.156314 48.1852 0.291334L29.4164 21.7636C29.2605 21.9421 29.1771 22.1797 29.1845 22.4242C29.192 22.6687 29.2896 22.8999 29.456 23.0672C29.6224 23.2344 29.8438 23.3239 30.0717 23.3159C30.2996 23.308 30.5152 23.2033 30.6711 23.0248L47.8827 3.33352C47.1505 15.5576 40.9286 23.1833 35.4647 28.5247Z" fill="black"/>
<path d="M18.7533 34.8393C18.8584 34.7956 18.9544 34.7302 19.0358 34.6467C19.1173 34.5631 19.1827 34.4632 19.2282 34.3526C19.2736 34.242 19.2984 34.1229 19.3009 34.0021C19.3035 33.8812 19.2839 33.761 19.2431 33.6483C19.2024 33.5356 19.1413 33.4326 19.0635 33.3452C18.9857 33.2578 18.8925 33.1877 18.7894 33.1389C18.6863 33.0901 18.5753 33.0635 18.4626 33.0608C18.3499 33.058 18.2379 33.0791 18.1328 33.1228C17.7371 33.2925 17.3451 33.472 16.9572 33.6612C15.5066 34.3526 13.7002 35.2155 11.5156 35.2155C4.84344 35.2155 0 40.0221 0 46.6467C0 53.4575 5.16656 58.9998 11.5156 58.9998C16.3694 58.9998 19.6831 56.673 21.3452 52.1374C22.2148 50.1369 22.3438 45.758 22.3438 43.328C22.3438 42.832 23.6534 41.7737 24.4372 41.1413C25.1608 40.5587 25.9084 39.9539 26.4241 39.3307C26.5754 39.1478 26.6528 38.9079 26.6393 38.6638C26.6257 38.4197 26.5224 38.1914 26.3519 38.029C26.1814 37.8667 25.9578 37.7836 25.7302 37.7982C25.5026 37.8127 25.2898 37.9236 25.1384 38.1065C24.7363 38.5951 24.0591 39.1408 23.4025 39.67C21.9742 40.8242 20.625 41.912 20.625 43.328C20.625 47.1482 20.3122 50.1517 19.7673 51.411C18.3494 55.2755 15.6492 57.1561 11.5156 57.1561C8.91817 57.1532 6.42788 56.045 4.5912 54.0747C2.75452 52.1045 1.72148 49.4331 1.71875 46.6467C1.71875 41.0897 5.83859 37.0592 11.5156 37.0592C14.0663 37.0592 16.1408 36.0673 17.6567 35.3427C18.0486 35.1546 18.4147 34.9813 18.7533 34.8393Z" fill="black"/>
<path d="M27.5001 32.8003C28.2651 32.8003 28.8854 32.1349 28.8854 31.3142C28.8854 30.4935 28.2651 29.8281 27.5001 29.8281C26.735 29.8281 26.1147 30.4935 26.1147 31.3142C26.1147 32.1349 26.735 32.8003 27.5001 32.8003Z" fill="black"/>
</g>
<defs>
<clipPath id="clip0_608_4260">
<rect width="55" height="59" fill="white"/>
</clipPath>
</defs>
</svg>
