<svg width="43" height="43" viewBox="0 0 43 43" fill="none" xmlns="http://www.w3.org/2000/svg">
<path d="M22.6656 16.1921L22.2927 22.4003C22.2927 22.4003 23.5559 25.9746 23.2031 30.9499C22.8638 35.7437 21.5906 38.1692 21.2413 39.009C20.8919 39.8489 19.9109 40.9003 21.2413 41.3203C22.5716 41.7402 24.8156 41.5319 25.7966 41.1792C26.7775 40.8298 27.2646 38.8814 27.4091 38.0953C27.7618 36.1502 27.9566 32.4717 27.2411 28.8435C26.6935 26.0553 25.5312 21.2749 25.5312 21.2749L22.6656 16.1921Z" fill="#99C23B"/>
<path d="M22.4338 15.2515C22.4338 15.2515 23.8717 10.7399 27.1773 7.31667C30.3452 4.03792 33.5802 2.96292 36.1737 2.64042C39.0325 2.28432 40.1982 2.32128 40.6887 2.67401C41.1792 3.02675 41.0045 3.58104 41.0145 4.07151C41.0784 7.5787 41.2094 12.1239 37.0841 16.2828C32.6799 20.7172 29.5423 21.5134 26.1056 21.8661C22.6724 22.2155 23.062 20.65 23.062 20.65L22.4338 15.2515Z" fill="#99C23B"/>
<path d="M1.001 12.4465C0.876703 13.0612 4.12186 20.2772 10.3905 22.5481C17.1394 24.9971 23.5021 22.5481 23.5021 22.5481L24.0262 16.0511L22.4305 15.2515C22.4305 15.2515 19.0476 11.5193 15.2884 10.1419C11.3915 8.7142 6.98741 8.60334 3.98748 10.2058C2.10623 11.2136 1.06819 12.1206 1.001 12.4465Z" fill="#99C23B"/>
<path d="M29.119 10.3066C25.9948 14.0086 24.4192 17.7409 24.2546 18.7151C24.09 19.6893 24.6309 19.649 24.9366 19.2358C25.4875 18.49 27.4057 15.0802 30.2612 11.8317C32.7337 9.02329 36.4962 5.98641 37.0471 5.33805C37.3898 4.93492 37.0135 4.42766 36.4962 4.6561C35.9788 4.88117 32.3138 6.52055 29.119 10.3066Z" fill="#E6DC9F"/>
<path d="M13.9179 13.7734C9.34914 12.2012 6.00656 12.4129 5.32461 12.6413C4.64265 12.8698 4.67625 13.6155 5.48585 13.713C6.29546 13.8104 9.59773 14.1396 13.7365 15.6278C18.1541 17.2202 21.3018 19.6221 21.8561 19.948C22.407 20.2738 22.7665 19.6221 22.2794 19.0376C21.9065 18.5975 18.9569 15.5069 13.9179 13.7734Z" fill="#E6DC9F"/>
</svg>
