<svg width="47" height="46" viewBox="0 0 47 46" fill="none" xmlns="http://www.w3.org/2000/svg">
<path d="M17.9166 5.20833C18.5416 5.20833 19.1666 5.20833 19.6875 5.3125C19.8958 7.70833 19.8958 12.5 17.0833 15.8333C15 18.4375 11.4583 19.7917 6.66662 19.7917H5.31246C5.10412 15 6.04162 11.25 8.22912 8.85417C10.8333 5.83333 15 5.20833 17.9166 5.20833ZM17.9166 3.125C12.1875 3.125 1.66663 5.3125 3.33329 21.6667C4.47912 21.7708 5.62496 21.875 6.66662 21.875C25.3125 21.875 21.5625 3.4375 21.5625 3.4375C21.5625 3.4375 20.1041 3.125 17.9166 3.125ZM17.7083 7.29167C7.29162 7.29167 7.29162 17.7083 7.29162 17.7083C11.4583 9.375 17.7083 7.29167 17.7083 7.29167Z" fill="#FFF3E8"/>
<path d="M39.9166 14.2083C40.5416 14.2083 41.1666 14.2083 41.6875 14.3125C41.8958 16.7083 41.8958 21.5 39.0833 24.8333C37 27.4375 33.4583 28.7917 28.6666 28.7917H27.3125C27.1041 24 28.0416 20.25 30.2291 17.8542C32.8333 14.8333 37 14.2083 39.9166 14.2083ZM39.9166 12.125C34.1875 12.125 23.6666 14.3125 25.3333 30.6667C26.4791 30.7708 27.625 30.875 28.6666 30.875C47.3125 30.875 43.5625 12.4375 43.5625 12.4375C43.5625 12.4375 42.1041 12.125 39.9166 12.125ZM39.7083 16.2917C29.2916 16.2917 29.2916 26.7083 29.2916 26.7083C33.4583 18.375 39.7083 16.2917 39.7083 16.2917Z" fill="#FFF3E8"/>
<path d="M17.9166 26.2083C18.5416 26.2083 19.1666 26.2083 19.6875 26.3125C19.8958 28.7083 19.8958 33.5 17.0833 36.8333C15 39.4375 11.4583 40.7917 6.66662 40.7917H5.31246C5.10412 36 6.04162 32.25 8.22912 29.8542C10.8333 26.8333 15 26.2083 17.9166 26.2083ZM17.9166 24.125C12.1875 24.125 1.66663 26.3125 3.33329 42.6667C4.47912 42.7708 5.62496 42.875 6.66662 42.875C25.3125 42.875 21.5625 24.4375 21.5625 24.4375C21.5625 24.4375 20.1041 24.125 17.9166 24.125ZM17.7083 28.2917C7.29162 28.2917 7.29162 38.7083 7.29162 38.7083C11.4583 30.375 17.7083 28.2917 17.7083 28.2917Z" fill="#FFF3E8"/>
</svg>
