<svg width="49" height="49" viewBox="0 0 49 49" fill="none" xmlns="http://www.w3.org/2000/svg">
<path d="M38.1501 6.125C39.7251 6.125 41.3001 6.125 42.6126 6.3875C43.1376 12.425 43.1376 24.5 36.0501 32.9C30.8001 39.4625 21.8751 42.875 9.80012 42.875H6.38762C5.86262 30.8 8.22512 21.35 13.7376 15.3125C20.3001 7.7 30.8001 6.125 38.1501 6.125ZM38.1501 0.875C23.7126 0.875 -2.79988 6.3875 1.40012 47.6C4.28762 47.8625 7.17512 48.125 9.80012 48.125C56.7876 48.125 47.3376 1.6625 47.3376 1.6625C47.3376 1.6625 43.6626 0.875 38.1501 0.875ZM37.6251 11.375C11.3751 11.375 11.3751 37.625 11.3751 37.625C21.8751 16.625 37.6251 11.375 37.6251 11.375Z" fill="black"/>
</svg>
