<svg width="54" height="59" viewBox="0 0 54 59" fill="none" xmlns="http://www.w3.org/2000/svg">
<path d="M52.8933 16.2176L39.3199 1.58383C38.8203 1.04836 38.1444 0.747803 37.4399 0.747803C36.7354 0.747803 36.0596 1.04836 35.5599 1.58383C35.31 1.8511 35.1116 2.16908 34.9762 2.51942C34.8408 2.86977 34.7711 3.24555 34.7711 3.62508C34.7711 4.00462 34.8408 4.38039 34.9762 4.73074C35.1116 5.08109 35.31 5.39906 35.5599 5.66633L40.3333 10.9276L25.8799 26.6251L23.2133 23.7501C22.47 22.946 21.5869 22.308 20.6145 21.8727C19.6421 21.4374 18.5995 21.2133 17.5466 21.2133C16.4937 21.2133 15.4511 21.4374 14.4787 21.8727C13.5063 22.308 12.6232 22.946 11.8799 23.7501L2.67994 33.5826C1.93368 34.3861 1.34216 35.3409 0.939427 36.3918C0.536693 37.4428 0.330692 38.5692 0.333276 39.7063V49.6251C0.333276 51.9126 1.17613 54.1064 2.67642 55.7239C4.17671 57.3414 6.21154 58.2501 8.33328 58.2501H17.5333C18.588 58.2529 19.6328 58.0308 20.6076 57.5966C21.5824 57.1624 22.4679 56.5247 23.2133 55.7201L32.3333 45.8588C33.0791 45.0575 33.6708 44.1054 34.0746 43.057C34.4784 42.0086 34.6862 40.8846 34.6862 39.7495C34.6862 38.6143 34.4784 37.4903 34.0746 36.4419C33.6708 35.3935 33.0791 34.4414 32.3333 33.6401L29.6666 30.7651L44.2266 15.1251L49.1066 20.3863C49.3545 20.6558 49.6494 20.8697 49.9744 21.0156C50.2994 21.1616 50.6479 21.2368 50.9999 21.2368C51.352 21.2368 51.7005 21.1616 52.0255 21.0156C52.3504 20.8697 52.6454 20.6558 52.8933 20.3863C53.1555 20.1178 53.3643 19.7945 53.507 19.4361C53.6497 19.0778 53.7233 18.6919 53.7233 18.302C53.7233 17.912 53.6497 17.5261 53.507 17.1678C53.3643 16.8095 53.1555 16.4862 52.8933 16.2176ZM28.5999 41.7763L19.4266 51.6663C19.1774 51.9328 18.8819 52.1436 18.557 52.2867C18.2321 52.4298 17.8842 52.5023 17.5333 52.5001H8.33328C7.62603 52.5001 6.94776 52.1972 6.44766 51.658C5.94756 51.1189 5.66661 50.3876 5.66661 49.6251V39.7063C5.66458 39.328 5.73185 38.9529 5.86455 38.6026C5.99726 38.2523 6.19279 37.9337 6.43994 37.6651L15.6133 27.7751C16.1129 27.2396 16.7888 26.9391 17.4933 26.9391C18.1978 26.9391 18.8736 27.2396 19.3733 27.7751L22.0399 30.6501L19.6666 33.2376C19.1699 33.7763 18.8912 34.5049 18.8912 35.2645C18.8912 36.024 19.1699 36.7527 19.6666 37.2913C19.9283 37.572 20.2412 37.791 20.5855 37.9345C20.9297 38.078 21.2979 38.1429 21.6666 38.1251C22.3662 38.1219 23.0366 37.8225 23.5333 37.2913L25.9333 34.7326L28.5999 37.6076C28.8622 37.8762 29.071 38.1995 29.2137 38.5578C29.3564 38.9161 29.4299 39.302 29.4299 39.692C29.4299 40.0819 29.3564 40.4678 29.2137 40.8261C29.071 41.1845 28.8622 41.5078 28.5999 41.7763Z" fill="black"/>
</svg>
