<svg width="54" height="59" viewBox="0 0 54 59" fill="none" xmlns="http://www.w3.org/2000/svg">
<path d="M52.8933 16.2175L39.3199 1.58377C38.8203 1.0483 38.1444 0.747742 37.4399 0.747742C36.7354 0.747742 36.0596 1.0483 35.5599 1.58377C35.31 1.85104 35.1116 2.16902 34.9762 2.51936C34.8408 2.86971 34.7711 3.24549 34.7711 3.62502C34.7711 4.00456 34.8408 4.38033 34.9762 4.73068C35.1116 5.08102 35.31 5.399 35.5599 5.66627L40.3333 10.9275L25.8799 26.625L23.2133 23.75C22.47 22.9459 21.5869 22.308 20.6145 21.8726C19.6421 21.4373 18.5995 21.2132 17.5466 21.2132C16.4937 21.2132 15.4511 21.4373 14.4787 21.8726C13.5063 22.308 12.6232 22.9459 11.8799 23.75L2.67994 33.5825C1.93368 34.3861 1.34216 35.3408 0.939427 36.3918C0.536693 37.4427 0.330692 38.5692 0.333276 39.7063V49.625C0.333276 51.9125 1.17613 54.1063 2.67642 55.7238C4.17671 57.3413 6.21154 58.25 8.33328 58.25H17.5333C18.588 58.2528 19.6328 58.0307 20.6076 57.5965C21.5824 57.1623 22.4679 56.5246 23.2133 55.72L32.3333 45.8588C33.0791 45.0575 33.6708 44.1053 34.0746 43.057C34.4784 42.0086 34.6862 40.8846 34.6862 39.7494C34.6862 38.6142 34.4784 37.4902 34.0746 36.4418C33.6708 35.3935 33.0791 34.4413 32.3333 33.64L29.6666 30.765L44.2266 15.125L49.1066 20.3863C49.3545 20.6557 49.6494 20.8696 49.9744 21.0156C50.2994 21.1615 50.6479 21.2367 50.9999 21.2367C51.352 21.2367 51.7005 21.1615 52.0255 21.0156C52.3504 20.8696 52.6454 20.6557 52.8933 20.3863C53.1555 20.1177 53.3643 19.7944 53.507 19.4361C53.6497 19.0777 53.7233 18.6919 53.7233 18.3019C53.7233 17.9119 53.6497 17.5261 53.507 17.1677C53.3643 16.8094 53.1555 16.4861 52.8933 16.2175V16.2175ZM28.5999 41.7763L19.4266 51.6663C19.1774 51.9327 18.8819 52.1436 18.557 52.2866C18.2321 52.4297 17.8842 52.5022 17.5333 52.5H8.33328C7.62603 52.5 6.94776 52.1971 6.44766 51.658C5.94756 51.1188 5.66661 50.3875 5.66661 49.625V39.7063C5.66458 39.3279 5.73185 38.9528 5.86455 38.6025C5.99726 38.2523 6.19279 37.9337 6.43994 37.665L15.6133 27.775C16.1129 27.2396 16.7888 26.939 17.4933 26.939C18.1978 26.939 18.8736 27.2396 19.3733 27.775L22.0399 30.65L19.6666 33.2375C19.1699 33.7762 18.8912 34.5049 18.8912 35.2644C18.8912 36.0239 19.1699 36.7526 19.6666 37.2913C19.9283 37.5719 20.2412 37.7909 20.5855 37.9344C20.9297 38.0779 21.2979 38.1428 21.6666 38.125C22.3662 38.1219 23.0366 37.8224 23.5333 37.2913L25.9333 34.7325L28.5999 37.6075C28.8622 37.8761 29.071 38.1994 29.2137 38.5577C29.3564 38.9161 29.4299 39.3019 29.4299 39.6919C29.4299 40.0819 29.3564 40.4677 29.2137 40.8261C29.071 41.1844 28.8622 41.5077 28.5999 41.7763V41.7763Z" fill="#C08552"/>
</svg>
