<svg width="23" height="24" viewBox="0 0 23 24" fill="none" xmlns="http://www.w3.org/2000/svg">
<path d="M0 7.00868H5.42008L13.5738 0.0742188V23.9267L5.42008 16.9923H0V7.00868ZM16.6373 5.87752C18.2397 7.54966 19.0567 9.58244 19.0881 11.9759C19.0881 14.271 18.2712 16.2382 16.6373 17.8775L14.9877 16.1071C16.1189 14.9267 16.6844 13.5333 16.6844 11.9267C16.6844 10.2874 16.1188 8.86116 14.9877 7.64802L16.6373 5.87752ZM19.4652 2.97588C21.8217 5.4349 23 8.40212 23 11.8775C23 15.3529 21.8217 18.3365 19.4652 20.8283L17.7213 19.0087C19.6066 17.0743 20.5492 14.7054 20.5492 11.9022C20.5492 9.09888 19.6066 6.71362 17.7213 4.7464L19.4652 2.97588Z" fill="black"/>
</svg>
