<svg width="136" height="137" viewBox="0 0 136 137" fill="none" xmlns="http://www.w3.org/2000/svg">
<path d="M71.6866 51.5889L70.5072 71.3682C70.5072 71.3682 74.5022 82.7564 73.3866 98.6077C72.3135 113.881 68.2866 121.609 67.1816 124.284C66.0766 126.96 62.9741 130.31 67.1816 131.648C71.3891 132.986 78.4866 132.323 81.5891 131.199C84.6916 130.086 86.2322 123.878 86.6891 121.373C87.8047 115.176 88.421 103.456 86.1579 91.8968C84.426 83.0132 80.7497 67.7827 80.7497 67.7827L71.6866 51.5889Z" fill="#99C23B"/>
<path d="M70.9541 48.5922C70.9541 48.5922 75.5016 34.2179 85.9566 23.3114C95.976 12.8651 106.208 9.44015 114.41 8.41265C123.452 7.27812 127.139 7.39585 128.69 8.51968C130.242 9.64351 129.689 11.4095 129.721 12.9722C129.923 24.1462 130.337 38.6276 117.29 51.878C103.36 66.0062 93.4366 68.5428 82.5672 69.6666C71.7085 70.7797 72.941 65.7921 72.941 65.7921L70.9541 48.5922Z" fill="#99C23B"/>
<path d="M3.16616 39.6552C2.77303 41.6138 13.0368 64.6041 32.863 71.8395C54.2087 79.642 74.3324 71.8395 74.3324 71.8395L75.9899 51.1396L70.943 48.5923C70.943 48.5923 60.2437 36.7011 48.3543 32.3128C36.0293 27.764 22.0999 27.4108 12.6118 32.5162C6.66178 35.7271 3.37866 38.617 3.16616 39.6552V39.6552Z" fill="#99C23B"/>
<path d="M92.0977 32.8371C82.2165 44.632 77.2333 56.5231 76.7127 59.6271C76.1921 62.731 77.9027 62.6025 78.8696 61.286C80.6121 58.9099 86.679 48.0463 95.7102 37.6963C103.53 28.7485 115.43 19.0729 117.173 17.0072C118.256 15.7228 117.066 14.1066 115.43 14.8345C113.794 15.5516 102.202 20.7747 92.0977 32.8371Z" fill="#E6DC9F"/>
<path d="M44.0197 43.8826C29.5697 38.8735 18.9978 39.5478 16.841 40.2756C14.6841 41.0034 14.7903 43.3795 17.351 43.6899C19.9116 44.0003 30.356 45.0492 43.4459 49.7907C57.4178 54.864 67.3734 62.5167 69.1266 63.5549C70.8691 64.5931 72.0059 62.5167 70.4653 60.6544C69.2859 59.2523 59.9572 49.4054 44.0197 43.8826V43.8826Z" fill="#E6DC9F"/>
</svg>
