<svg width="601" height="257" viewBox="0 0 601 257" fill="none" xmlns="http://www.w3.org/2000/svg">
<path d="M600.977 240.718C600.977 240.737 600.982 240.756 600.982 240.775C600.996 240.994 600.987 241.227 600.973 241.455C600.915 248.495 600.716 253.069 600.716 253.069H488.26C487.498 253.193 486.747 253.179 486.004 253.069H226.558C226.144 253.374 225.711 253.664 225.25 253.917C223.442 254.93 221.558 255.178 219.569 254.635C218.308 254.297 217.104 253.817 215.948 253.198C215.872 253.16 215.81 253.112 215.734 253.069H37.0651C35.828 254.354 34.5196 255.506 32.8067 256.182C30.6941 257.015 28.691 256.596 26.6831 255.892C26.2216 255.73 25.7695 255.53 25.3318 255.306C24.2042 254.726 23.4143 253.955 22.8434 253.069H4.68195C4.68195 253.069 3.95398 236.291 4.34413 214.248C2.85963 213.982 1.75577 213.011 1.17053 211.283C0.785128 210.14 0.195133 209.06 0.0714232 207.846C-0.171237 205.557 0.12852 203.353 2.16496 201.968C2.99285 201.406 3.85406 200.959 4.72953 200.621C4.7105 201.106 4.69147 201.587 4.6772 202.063C5.29098 184.985 6.66605 166.212 9.51136 150.109C10.6009 143.95 12.428 138.224 14.7547 132.931C25.7695 107.866 49.1124 90.8636 75.6718 86.8178C75.8716 84.7901 76.3426 82.81 76.9231 80.8489C77.5131 78.8688 78.9643 77.3838 80.5345 76.0796C81.4575 75.3132 82.5614 75.318 83.6272 75.5608C85.8254 76.0605 87.9332 76.8316 89.8888 77.993C90.8975 78.5928 91.4542 79.44 91.6207 80.5871C91.7396 81.4201 92.087 82.215 92.1488 83.0527C90.7119 83.6525 90.3646 84.038 90.612 84.7425C90.8261 85.3517 91.1401 85.7087 91.5731 85.8706H174.358C175.276 85.8706 176.195 85.8896 177.113 85.9229C178.35 82.0389 179.773 78.2881 181.362 74.6802C200.199 31.8036 243.335 4.81055 290.097 4.81055H418.34C465.102 4.81055 508.239 31.8036 527.076 74.6802C530.53 82.5387 533.242 91.0493 534.86 100.193C537.662 116.029 539.499 133.616 540.693 151.052H549.886C569.103 151.052 586.827 162.152 594.568 179.763C595.986 182.995 597.104 186.489 597.766 190.249C600.668 206.666 601.068 227.642 600.977 240.718Z" fill="#50745F"/>
<path d="M582.259 199.45C580.689 196.794 578.187 195.856 575.294 195.675C573.053 195.471 571.321 196.565 569.641 197.793C568.694 198.488 567.752 199.24 567.276 200.345C565.992 203.31 566.667 205.966 568.656 208.384C568.823 208.584 569.008 208.751 569.289 208.812C570.402 209.07 571.502 209.407 572.629 209.612C573.933 209.845 575.256 209.864 576.431 209.117C578.277 207.941 579.961 206.556 581.551 205.052C582.978 203.7 583.04 200.778 582.259 199.45ZM560.468 239.48C560.496 236.386 558.679 234.458 555.615 234.154C553.202 233.916 550.923 234.244 548.777 235.391C547.968 235.829 547.069 236.248 546.646 237.062C545.765 238.738 545.342 240.508 545.78 242.46C546.022 243.497 546.508 244.411 546.822 245.406C547.621 247.976 549.848 248.733 551.984 248.319C552.593 248.2 553.193 248.005 553.792 247.857C557.442 246.972 560.444 243.212 560.468 239.48ZM541.445 175.175C543.239 175.575 545.042 175.874 547.707 176.051C549.163 176.279 550.88 175.037 552.626 173.861C552.855 173.713 552.979 173.494 553.121 173.276C553.902 172.124 554.415 170.829 554.72 169.501C555.134 167.707 555.196 165.883 554.306 164.127C553.088 161.719 551.251 159.886 548.934 158.615C547.807 158.001 546.446 157.639 545.147 158.225C543.548 158.948 541.849 159.258 540.151 159.591C538.528 159.905 536.987 160.291 536.145 162.009C535.098 164.146 534.227 166.317 533.861 168.668C533.737 169.477 533.97 170.239 534.446 170.9C535.312 172.109 536.454 173.023 537.681 173.847C538.819 174.613 540.132 174.88 541.445 175.175ZM528.184 203.31C526.719 201.344 524.868 199.997 522.827 199.854C520.267 199.845 518.102 201.387 517.588 203.186C517.127 204.833 516.779 206.499 516.494 208.175C516.266 209.488 516.28 210.759 516.97 211.997C517.76 213.406 518.94 214.5 519.91 215.757C520.058 215.943 520.362 216.033 520.614 216.085C523.698 216.738 526.158 216.143 528.275 213.644C529.184 212.573 529.326 211.221 529.593 209.907C530.078 207.494 529.655 205.281 528.184 203.31ZM506.397 166.883C506.516 164.517 505.413 162.99 503.804 162.214C503.091 161.871 502.31 161.733 501.535 161.6C498.78 161.143 496.291 161.947 493.955 163.318C493.365 163.661 492.78 164.103 492.485 164.746C491.762 166.345 491.314 167.992 491.719 169.796C491.957 170.858 492.442 171.824 492.775 172.842C493.527 175.137 495.287 176.093 497.543 175.813C498.57 175.689 499.574 175.365 500.588 175.079C503.571 174.232 506.683 170.015 506.397 166.883ZM474.485 205.481C474.647 202.572 473.172 201.125 471.554 200.545C468.095 199.293 464.812 199.95 461.848 201.963C459.812 203.348 459.512 205.557 459.75 207.841C459.873 209.06 460.468 210.136 460.858 211.278C461.648 213.606 463.361 214.567 465.702 214.272C466.706 214.143 467.672 213.834 468.652 213.558C471.683 212.706 474.738 208.475 474.485 205.481ZM600.973 241.484C600.916 248.505 600.716 253.069 600.716 253.069H488.26C488.707 252.998 489.159 252.884 489.616 252.703C491.41 251.998 492.756 250.78 494.041 249.419C495.183 248.21 496.068 246.863 496.301 245.173C496.396 244.516 496.505 243.85 496.153 243.245C495.649 242.393 495.297 241.503 495.05 240.537C494.812 239.599 494.831 238.647 494.626 237.719C494.35 236.462 494.05 235.253 492.799 234.53C490.629 233.264 488.317 232.407 485.852 231.945C485.096 231.807 484.377 231.964 483.697 232.397C482.274 233.302 481.304 234.601 480.409 235.977C479.553 237.295 479.372 238.847 479.025 240.346C478.658 241.922 478.534 243.521 478.339 245.282C478.592 247.948 479.415 250.423 482.146 251.832C482.579 252.056 483.031 252.251 483.488 252.413C484.325 252.703 485.162 252.946 486.005 253.069H446.365C446.365 253.069 444.752 216.024 449.311 190.249C449.977 186.489 451.09 182.995 452.508 179.763C460.254 162.152 477.978 151.052 497.191 151.052H549.886C569.104 151.052 586.827 162.152 594.568 179.763C595.986 182.995 597.104 186.489 597.766 190.249C600.668 206.666 601.068 227.642 600.978 240.718C601.101 237.757 599.322 236.162 597.209 235.653C594.84 235.077 592.523 235.277 590.296 236.262C589.044 236.819 587.698 237.348 587.041 238.652C586.213 240.289 585.885 242.041 586.347 243.892C586.585 244.854 587.051 245.72 587.341 246.644C588.007 248.757 589.677 249.899 591.89 249.714C592.618 249.647 593.303 249.423 594.007 249.295C597.828 248.562 600.749 244.654 600.973 241.484ZM253.004 193.505C252.904 192.163 252.304 191.063 251.172 190.306C249.816 189.392 248.284 189.135 246.728 189.169C244.335 189.088 242.274 189.968 240.333 191.173C239.857 191.472 239.405 191.839 239.167 192.343C238.287 194.205 237.921 196.113 238.544 198.16C238.839 199.126 239.267 200.045 239.643 200.978C240.319 202.668 241.618 203.486 243.464 203.491C244.977 203.496 246.4 203.148 247.741 202.534C251.343 200.892 253.308 197.479 253.004 193.505ZM240.405 137.477C240.638 137.315 240.88 137.096 241.018 136.853C242.079 134.949 242.936 132.974 242.96 130.742C242.993 129.875 242.85 129.052 242.555 128.228C241.846 126.291 240.495 124.839 238.996 123.516C236.931 121.693 234.681 120.67 231.964 122.174C231.854 122.236 231.707 122.236 231.583 122.269C229.827 122.664 228.077 123.064 226.321 123.464C225.617 123.626 225.05 124.006 224.655 124.611C223.185 126.867 222.276 129.337 221.834 131.979C221.72 132.641 221.796 133.283 222.148 133.888C223.152 135.616 224.627 136.853 226.383 137.681C228.814 138.819 231.488 139.033 234.11 139.424C236.512 139.79 238.511 138.776 240.405 137.477ZM216.21 167.683C214.963 166.002 213.189 164.813 211.143 164.189C208.012 163.237 205.205 164.051 202.873 166.188C200.627 168.254 200.661 171.686 203.011 173.742C204.386 174.946 205.809 176.089 207.336 177.107C208.14 177.64 209.011 177.978 210.02 177.926C211.309 177.997 212.499 177.398 213.76 177.274C215.02 177.15 215.644 176.35 216.229 175.422C216.405 175.146 216.553 174.851 216.691 174.565C217.866 172.176 217.761 169.782 216.21 167.683ZM208.05 133.288C209.002 132.212 209.882 131.08 210.786 129.966C212.028 128.438 212.651 126.743 212.208 124.768C211.966 123.649 211.685 122.54 211.423 121.427C211.381 121.222 211.309 121.051 211.147 120.922C208.55 118.761 205.928 118.066 202.816 119.513C201.698 120.041 200.941 121.027 200.252 122.026C199.133 123.616 198.063 125.234 198.334 127.091C198.215 129.285 199.081 131.446 200.152 132.807C202.245 135.478 205.885 135.749 208.05 133.288ZM199.462 216.523C199.3 214.358 198.291 212.782 196.079 212.121C193.371 211.307 190.854 211.768 188.261 212.801C185.102 214.067 184.36 217.256 184.736 219.789C184.926 221.002 185.464 222.088 185.901 223.211C186.672 225.21 187.881 226.024 190.212 225.986C192.006 226.067 193.7 225.143 195.394 224.353C196.574 223.811 197.14 222.535 197.949 221.559C199.171 220.103 199.604 218.37 199.462 216.523ZM183.855 130.275C184.098 128.719 183.246 127.343 183.146 125.834C183.127 125.525 182.837 125.353 182.623 125.149C181.924 124.459 180.953 124.259 180.149 123.773C178.312 122.669 176.48 123.335 174.649 123.735C174.558 123.759 174.477 123.821 174.396 123.878C172.921 124.982 171.76 126.377 170.923 127.99C170.609 128.6 170.109 129.209 170.162 129.975C170.238 131.003 170.043 132.003 170.152 133.06C170.333 134.792 170.975 136.225 172.055 137.467C174.32 140.066 177.955 139.819 179.792 137.567C180.53 136.663 181.338 135.806 182.033 134.854C183.023 133.488 184.236 132.193 183.855 130.275ZM164.105 183.933C161.131 183.423 158.405 184.209 155.969 185.989C155.55 186.298 155.084 186.632 154.889 187.098C154.113 188.926 153.661 190.777 154.08 192.824C154.365 194.228 154.96 195.494 155.445 196.808C155.873 197.993 156.739 198.807 157.948 199.007C158.314 198.926 158.114 198.493 158.457 198.517C159.399 199.459 159.742 199.502 160.56 198.76C160.56 198.117 159.965 197.86 159.528 197.351C160.584 197.455 160.622 198.369 161.069 198.864C162.235 198.755 163.277 198.346 164.2 197.746C166.807 196.037 168.378 193.562 168.696 190.497C169.077 186.917 167.773 184.571 164.105 183.933ZM152.524 238.152C152.671 235.153 150.882 233.549 148.751 233.035C146.381 232.455 144.064 232.659 141.837 233.649C140.591 234.201 139.239 234.73 138.583 236.034C137.76 237.671 137.431 239.423 137.888 241.275C138.126 242.231 138.592 243.102 138.887 244.026C139.549 246.139 141.219 247.281 143.431 247.096C144.159 247.029 144.844 246.805 145.553 246.672C149.659 245.887 152.738 241.413 152.524 238.152ZM136.898 162.142C139.311 161.057 141.1 159.267 142.456 157.087C143.431 155.502 143.788 153.746 142.789 151.961C142.594 151.613 142.527 151.218 142.418 150.847C141.951 149.305 141.794 147.696 141.347 146.149C141.09 145.254 140.667 144.621 139.905 144.15C137.993 142.979 135.923 142.246 133.753 141.68C132.012 141.232 130.675 141.651 129.49 142.884C127.953 144.493 126.75 146.244 126.331 148.524C125.988 150.39 125.598 152.251 125.398 154.146C125.132 156.616 126.236 158.582 127.654 160.433C127.744 160.557 127.882 160.671 128.015 160.752C129.885 161.8 131.807 162.675 134.02 162.623C135.005 162.623 135.966 162.566 136.898 162.142ZM122.581 199.45C121.011 196.794 118.509 195.856 115.611 195.675C113.375 195.471 111.638 196.565 109.958 197.793C109.012 198.488 108.074 199.24 107.598 200.345C106.309 203.31 106.989 205.966 108.978 208.384C109.145 208.584 109.326 208.751 109.606 208.812C110.72 209.07 111.819 209.407 112.942 209.612C114.25 209.845 115.578 209.864 116.753 209.117C118.594 207.941 120.274 206.556 121.868 205.052C123.3 203.7 123.362 200.778 122.581 199.45ZM100.79 239.48C100.814 236.386 98.9959 234.458 95.9365 234.154C93.5147 233.916 91.2451 234.244 89.0992 235.391C88.2904 235.829 87.3864 236.248 86.9581 237.062C86.0826 238.738 85.6592 240.508 86.1017 242.46C86.3348 243.497 86.8297 244.411 87.1342 245.406C87.9383 247.976 90.1698 248.733 92.3062 248.319C92.9152 248.2 93.5052 248.005 94.1094 247.857C97.7589 246.972 100.756 243.212 100.79 239.48ZM81.7624 175.175C83.5561 175.575 85.3642 175.874 88.0287 176.051C89.4846 176.279 91.1975 175.037 92.9437 173.861C93.1721 173.713 93.2958 173.494 93.4433 173.276C94.2236 172.124 94.7375 170.829 95.0373 169.501C95.4464 167.707 95.5178 165.883 94.6281 164.127C93.4005 161.719 91.5734 159.886 89.2515 158.615C88.1286 158.001 86.7678 157.639 85.4641 158.225C83.8606 158.948 82.1668 159.258 80.4682 159.591C78.8409 159.905 77.3041 160.291 76.4619 162.009C75.4199 164.146 74.5444 166.317 74.1828 168.668C74.0544 169.477 74.2923 170.239 74.7633 170.9C75.634 172.109 76.7759 173.023 77.994 173.847C79.1407 174.613 80.4539 174.88 81.7624 175.175ZM68.5017 203.31C67.0363 201.344 65.1901 199.997 63.1394 199.854C60.5844 199.845 58.4195 201.387 57.9104 203.186C57.4393 204.833 57.092 206.499 56.8065 208.175C56.5829 209.488 56.6019 210.759 57.2871 211.997C58.0816 213.406 59.2569 214.5 60.2323 215.757C60.3703 215.943 60.6843 216.033 60.9317 216.085C64.0197 216.738 66.4748 216.143 68.5921 213.644C69.5057 212.573 69.6484 211.221 69.9101 209.907C70.4002 207.494 69.9672 205.281 68.5017 203.31ZM46.7195 166.883C46.8337 164.517 45.7298 162.99 44.1216 162.214C43.4079 161.871 42.6276 161.733 41.852 161.6C39.0971 161.143 36.6134 161.947 34.2677 163.318C33.6825 163.661 33.0925 164.103 32.8022 164.746C32.079 166.345 31.6318 167.992 32.041 169.796C32.2789 170.858 32.7594 171.824 33.0925 172.842C33.849 175.137 35.6095 176.093 37.8648 175.813C38.8925 175.689 39.8965 175.365 40.9052 175.079C43.8837 174.232 47.005 170.015 46.7195 166.883ZM33.7871 140.009C34.8149 139.942 35.7142 139.852 36.5991 139.552C37.4033 139.281 37.9647 138.648 38.707 138.334C39.4444 138.019 39.8869 137.477 40.2581 136.782C40.8671 135.649 41.3048 134.464 41.6427 133.236C42.1898 131.275 41.9091 129.409 40.9385 127.629C39.8774 125.687 38.3311 124.168 36.5278 122.988C34.8958 121.926 33.0544 121.479 31.1607 122.55C30.9371 122.674 30.6849 122.764 30.4327 122.831C28.7294 123.297 26.9736 123.516 25.2703 124.006C24.5375 124.216 23.9809 124.554 23.5479 125.182C22.2156 127.162 21.5019 129.385 20.8643 131.66C20.3743 133.398 20.9357 134.721 22.1633 135.901C23.7477 137.42 25.4701 138.576 27.7016 139.014C29.7571 139.419 31.8078 139.842 33.7871 140.009ZM84.2032 129.047C85.9827 132.365 88.9803 133.755 92.5441 134.054C94.0048 134.173 95.4131 133.64 96.1459 132.284C97.126 130.47 97.9444 128.562 97.9968 126.434C98.0443 125.068 97.3211 122.931 96.4456 122.217C93.4814 119.77 90.1079 119.109 86.43 120.127C85.3404 120.432 84.4031 121.036 83.8559 122.103C82.6378 124.487 82.9994 126.796 84.2032 129.047ZM130.237 102.963C130.247 104.601 130.994 106.062 131.612 107.542C132.164 108.865 133.059 109.717 134.553 109.965C136.489 110.279 138.288 109.798 139.958 108.97C142.874 107.533 144.578 105.077 145.02 101.859C145.254 100.122 144.944 98.4175 143.545 97.1705C142.166 95.9424 140.396 95.8282 138.673 95.6473C138.002 95.6235 137.36 95.7473 136.718 95.8948C135.795 96.0947 134.905 96.4137 134.02 96.7802C131.217 97.9416 130.237 99.6218 130.237 102.963ZM252.828 150.109C260.293 192.353 257.662 253.069 257.662 253.069H226.559C227.853 252.108 228.923 250.918 229.804 249.576C230.884 247.948 231.369 246.115 230.313 244.202C230.132 243.873 230.027 243.483 229.927 243.098C229.485 241.489 229.309 239.818 228.819 238.214C228.581 237.433 228.2 236.876 227.544 236.448C225.298 234.982 222.8 234.149 220.183 233.654C219.583 233.545 219.003 233.673 218.48 233.987C216.686 235.058 215.358 236.6 214.564 238.485C213.465 241.07 213.184 243.869 212.932 246.177C212.898 247.696 212.989 248.733 213.355 249.738C213.626 250.49 214.245 251.023 214.545 251.751C214.783 252.336 215.211 252.746 215.734 253.069H37.0654C37.1225 253.012 37.1796 252.955 37.2367 252.898C38.3786 251.684 39.2541 250.342 39.4968 248.652C39.5872 247.995 39.6966 247.329 39.3398 246.725C38.8402 245.873 38.4928 244.982 38.2454 244.007C38.0028 243.074 38.0218 242.122 37.8172 241.198C37.5365 239.942 37.2462 238.728 35.9949 238C33.8205 236.738 31.5033 235.882 29.0482 235.425C28.2821 235.282 27.5732 235.439 26.8832 235.877C25.4654 236.777 24.4947 238.076 23.6002 239.447C22.7438 240.775 22.563 242.326 22.2156 243.821C21.8493 245.397 21.7255 247.001 21.5352 248.757C21.678 250.323 22.0301 251.813 22.8437 253.069H4.68228C4.68228 253.069 3.9543 236.291 4.34446 214.243C4.85833 214.339 5.41978 214.348 6.02405 214.272C7.02799 214.143 7.99387 213.834 8.96927 213.558C12.0001 212.706 15.0595 208.475 14.7979 205.481C14.9644 202.572 13.4894 201.125 11.8717 200.545C9.37846 199.645 6.98041 199.75 4.72986 200.616C5.36744 183.928 6.74727 165.75 9.51168 150.109C10.6013 143.95 12.4284 138.224 14.755 132.931C25.7699 107.866 49.1128 90.8637 75.6721 86.8178C75.5817 87.7841 75.5436 88.7694 75.6007 89.7642C75.6578 90.7114 75.948 91.5539 76.4429 92.344C76.7379 92.8105 77.0805 93.2626 77.3088 93.7577C77.5753 94.3384 78.0368 94.6954 78.5507 94.9619C79.3643 95.3713 80.1922 95.7758 81.0582 96.0567C82.752 96.6136 84.4602 96.8944 86.2587 96.3661C88.533 95.6997 90.1127 94.1385 91.6162 92.4487C92.3109 91.6586 92.9628 90.8208 93.2007 89.7784C93.4957 88.4457 93.8002 87.0749 92.7677 85.8897C92.2776 86.0134 91.9017 85.9944 91.5734 85.8706H174.358C179.611 85.8706 184.788 86.3894 189.841 87.3652C189.641 87.8269 189.46 88.2934 189.299 88.7694C188.718 90.4829 188.585 92.244 189.184 93.9719C189.494 94.8477 189.855 95.6997 190.712 96.2947C192.682 97.6512 194.837 98.3842 197.259 98.4937C197.806 98.4413 198.396 98.408 198.981 98.3128C202.669 97.7274 203.934 95.4712 203.606 92.2345C203.568 91.8966 203.511 91.5634 203.439 91.2445C222.795 98.6413 238.968 113.311 247.584 132.931C249.916 138.224 251.743 143.95 252.828 150.109ZM403.852 181.091C401.14 180.287 398.623 180.739 396.03 181.781C392.876 183.038 392.129 186.232 392.509 188.759C392.695 189.973 393.237 191.058 393.67 192.191C394.441 194.185 395.65 194.995 397.981 194.957C399.78 195.038 401.469 194.114 403.167 193.329C404.347 192.781 404.913 191.506 405.722 190.535C406.945 189.073 407.378 187.346 407.235 185.499C407.069 183.338 406.065 181.753 403.852 181.091ZM256.92 14.1684C255.497 13.4497 254.008 13.0594 252.371 13.3164C250.863 13.5496 249.511 14.197 248.132 14.7729C246.642 15.3917 245.91 16.6293 245.867 18.1619C245.8 20.4038 246.457 22.4839 247.718 24.364C248.365 25.3398 249.326 25.9443 250.244 26.6154C251.534 27.5436 252.894 28.1481 254.526 27.9767C254.955 27.9291 255.378 27.9148 255.806 27.9339C257.4 28.01 258.552 27.1723 259.208 25.8776C259.851 24.6163 260.274 23.2074 260.203 21.7223C260.15 19.9278 259.717 18.2333 258.904 16.6293C258.409 15.6725 257.924 14.6777 256.92 14.1684ZM363.837 29.2762C364.37 30.5946 365.503 31.3038 366.887 31.4276C369.005 31.6228 371.008 31.0278 372.782 29.9378C375.161 28.486 376.608 26.2775 377.036 23.5263C377.369 21.4319 376.993 19.4471 375.047 18.1572C373.744 17.2861 372.25 17.1148 370.713 17.129C370.061 17.1719 369.395 17.1481 368.757 17.2671C368.086 17.3908 367.43 17.6193 366.783 17.8478C363.095 19.1329 361.787 21.7223 362.486 25.6158C362.724 26.9343 363.347 28.0814 363.837 29.2762ZM274.234 236.534C273.13 236.044 271.912 235.863 270.685 235.872C268.425 235.891 266.36 236.581 264.494 237.805C262.582 239.052 262.182 241.051 262.244 243.136C262.296 244.973 263.143 246.606 263.89 248.238C264.123 248.743 264.475 249.166 264.961 249.476C266.088 250.199 267.226 250.252 268.582 250.071C270.295 249.847 271.789 249.333 273.178 248.357C275.59 246.672 276.946 244.383 277.051 241.455C277.127 239.071 276.447 237.5 274.234 236.534ZM474.485 205.481C474.538 204.552 474.409 203.781 474.171 203.134C473.301 203.562 472.496 204.091 472.03 205.005C471.207 206.642 470.879 208.394 471.336 210.245C471.445 210.693 471.607 211.116 471.778 211.535C473.453 209.822 474.652 207.399 474.485 205.481ZM356.524 202.006C354.15 201.43 351.838 201.63 349.611 202.615C348.359 203.172 347.013 203.705 346.356 205.005C345.533 206.642 345.2 208.394 345.657 210.245C345.895 211.211 346.361 212.073 346.651 213.001C347.322 215.114 348.988 216.252 351.205 216.066C351.928 216.005 352.618 215.781 353.327 215.648C357.433 214.857 360.512 210.388 360.293 207.127C360.445 204.124 358.651 202.52 356.524 202.006ZM447.412 169.948C448.093 171.638 449.382 172.457 451.238 172.462C452.751 172.466 454.173 172.124 455.515 171.51C459.112 169.863 461.072 166.455 460.773 162.48C460.673 161.138 460.078 160.038 458.946 159.277C457.59 158.368 456.057 158.106 454.502 158.144C452.104 158.058 450.048 158.939 448.107 160.153C447.631 160.443 447.179 160.81 446.936 161.319C446.061 163.18 445.694 165.089 446.313 167.131C446.608 168.102 447.036 169.015 447.412 169.948ZM303.705 203.124C301.288 202.886 299.019 203.215 296.868 204.367C296.059 204.8 295.16 205.219 294.732 206.037C293.856 207.713 293.433 209.479 293.875 211.435C294.108 212.468 294.599 213.387 294.908 214.381C295.707 216.952 297.943 217.709 300.075 217.29C300.689 217.176 301.279 216.98 301.883 216.833C305.528 215.947 308.53 212.182 308.563 208.446C308.582 205.357 306.765 203.439 303.705 203.124ZM495.335 65.7508C492.528 66.9122 491.552 68.5924 491.552 71.9338C491.557 73.5807 492.299 75.0372 492.918 76.5175C493.47 77.836 494.374 78.6928 495.858 78.9355C497.8 79.2544 499.603 78.7689 501.268 77.9455C504.19 76.5033 505.888 74.0519 506.331 70.8295C506.569 69.0922 506.255 67.3929 504.856 66.1411C503.476 64.9131 501.711 64.7988 499.984 64.6227C499.318 64.5941 498.666 64.7227 498.033 64.8655C497.105 65.0749 496.22 65.389 495.335 65.7508ZM502.658 115.115C502.401 114.225 501.977 113.592 501.216 113.125C499.298 111.95 497.233 111.217 495.059 110.655C493.318 110.203 491.985 110.627 490.801 111.859C489.269 113.468 488.06 115.215 487.641 117.495C487.303 119.37 486.913 121.222 486.709 123.116C486.442 125.591 487.541 127.553 488.959 129.404C489.059 129.528 489.188 129.642 489.33 129.723C491.196 130.775 493.123 131.646 495.33 131.598C496.32 131.589 497.281 131.541 498.214 131.118C500.621 130.028 502.41 128.243 503.761 126.058C504.746 124.478 505.103 122.717 504.095 120.932C503.909 120.594 503.842 120.194 503.728 119.818C503.267 118.276 503.105 116.667 502.658 115.115ZM342.322 78.9355C344.258 79.2544 346.061 78.7689 347.727 77.9455C350.643 76.5033 352.347 74.0519 352.789 70.8295C353.027 69.0922 352.713 67.3929 351.314 66.1411C349.939 64.9131 348.169 64.7988 346.447 64.6227C345.776 64.5941 345.124 64.7227 344.486 64.8655C343.568 65.0749 342.678 65.389 341.793 65.7508C338.991 66.9122 338.011 68.5924 338.011 71.9338C338.011 73.5807 338.763 75.0372 339.381 76.5175C339.928 77.836 340.832 78.6928 342.322 78.9355ZM398.485 65.2653C400.455 66.6314 402.606 67.3549 405.028 67.4643C405.58 67.412 406.17 67.3786 406.755 67.293C410.442 66.698 411.703 64.4466 411.37 61.2051C411.118 58.6919 409.79 56.669 407.844 55.0887C406.146 53.7227 404.109 53.1943 402.006 53.0611C400.336 52.9563 398.918 53.6132 398.128 55.2077C397.729 56.0264 397.362 56.8784 397.067 57.7447C396.492 59.4583 396.358 61.2194 396.958 62.9472C397.267 63.8183 397.629 64.6751 398.485 65.2653ZM448.949 54.8746C449.596 56.8594 451.128 57.978 453.231 57.9113C453.964 57.8923 454.649 57.6638 455.358 57.5448C459.616 56.8308 462.8 52.3471 462.566 48.8296C462.566 48.7915 462.562 48.663 462.566 48.5345C462.676 46.2926 461.053 44.2268 458.489 43.7841C456.8 43.4938 455.163 43.4462 453.531 43.8889C452.046 44.2887 450.557 44.8218 449.449 45.9165C447.893 47.4445 447.555 49.4245 447.845 51.5379C448.007 52.7136 448.578 53.756 448.949 54.8746ZM294.199 89.1025C293.109 89.4024 292.177 90.0069 291.625 91.0731C290.402 93.4578 290.768 95.7711 291.972 98.0177C293.756 101.34 296.749 102.73 300.318 103.025C301.778 103.144 303.187 102.616 303.919 101.254C304.9 99.4457 305.709 97.5322 305.766 95.4046C305.813 94.0433 305.095 91.9013 304.219 91.1826C301.255 88.7408 297.882 88.0744 294.199 89.1025ZM251.082 142.684C253.109 140.97 254.693 138.129 254.484 135.854C254.607 133.493 253.503 131.96 251.895 131.184C251.182 130.842 250.396 130.699 249.621 130.575C248.536 130.389 247.499 130.413 246.485 130.58C246.856 131.36 247.237 132.131 247.584 132.931C248.945 136.025 250.111 139.29 251.082 142.684ZM389.022 235.334C387.666 234.23 385.976 234.054 384.468 233.968C382.384 233.987 380.647 234.601 378.944 235.406C376.484 236.581 375.847 238.719 375.87 241.16C375.889 243.102 376.741 244.835 377.612 246.525C378.116 247.515 378.977 248.057 380.096 248.243C382.023 248.567 383.835 248.129 385.52 247.31C388.46 245.892 390.164 243.44 390.654 240.237C390.93 238.385 390.563 236.596 389.022 235.334ZM390.92 94.8048C390.901 94.5002 390.606 94.3336 390.397 94.1242C389.697 93.434 388.727 93.2293 387.918 92.7438C386.086 91.6395 384.254 92.3059 382.422 92.7105C382.332 92.7295 382.246 92.7914 382.165 92.8485C380.69 93.9576 379.534 95.3475 378.697 96.9658C378.378 97.5703 377.883 98.1796 377.935 98.9554C378.007 99.974 377.812 100.974 377.921 102.03C378.102 103.763 378.744 105.196 379.829 106.438C382.089 109.037 385.729 108.794 387.561 106.543C388.303 105.633 389.107 104.781 389.797 103.825C390.792 102.454 392.01 101.169 391.624 99.2458C391.872 97.6893 391.02 96.3137 390.92 94.8048ZM192.011 65.0654C193.076 65.865 194.076 66.7551 195.118 67.5928C196.707 68.8685 198.448 69.3683 200.518 68.9399C201.603 68.7162 202.621 68.1735 203.744 68.2497C204.5 67.5976 204.986 66.7837 205.443 65.9555C206.656 63.7945 206.642 61.5003 205.457 59.4583C204.234 57.3497 202.15 55.9884 199.823 55.3125C197.735 54.7175 195.579 55.0031 193.619 56.0169C192.015 56.8404 190.697 57.9209 190.374 59.8819C190.041 61.9048 190.222 63.7088 192.011 65.0654ZM329.637 174.018C331.074 172.671 331.135 169.748 330.35 168.42C328.78 165.769 326.277 164.827 323.38 164.651C321.148 164.441 319.407 165.541 317.727 166.769C316.785 167.459 315.843 168.216 315.372 169.32C314.083 172.281 314.758 174.941 316.752 177.355C316.918 177.559 317.094 177.726 317.375 177.793C318.493 178.04 319.592 178.378 320.715 178.583C322.019 178.816 323.347 178.84 324.527 178.088C326.363 176.907 328.047 175.522 329.637 174.018ZM230.208 65.9602C232.302 68.6305 235.937 68.9018 238.102 66.4362C239.053 65.3605 239.938 64.2324 240.842 63.1186C242.084 61.5859 242.703 59.8962 242.265 57.9161C242.018 56.7975 241.737 55.6885 241.48 54.5747C241.432 54.3748 241.361 54.1987 241.204 54.0654C238.606 51.9092 235.98 51.2142 232.873 52.666C231.75 53.1896 231.003 54.1749 230.303 55.1697C229.195 56.769 228.119 58.3873 228.386 60.2389C228.267 62.4284 229.142 64.5941 230.208 65.9602ZM270.913 168.83C268.353 168.82 266.193 170.358 265.684 172.162C265.213 173.804 264.866 175.47 264.58 177.145C264.356 178.459 264.366 179.735 265.061 180.967C265.851 182.376 267.031 183.471 268.006 184.732C268.144 184.913 268.453 185.009 268.701 185.056C271.789 185.713 274.244 185.118 276.366 182.619C277.275 181.543 277.413 180.192 277.679 178.878C278.169 176.465 277.741 174.251 276.271 172.285C274.81 170.32 272.959 168.968 270.913 168.83ZM321.025 24.9733C322.343 26.444 325.402 26.6392 326.92 25.6777C329.48 24.0451 330.265 21.5557 330.469 19.6089C330.569 16.7578 329.765 15.0728 328.633 13.5068C328.062 12.7072 327.491 11.8885 326.677 11.3316C324.555 9.87981 321.9 9.68942 319.531 10.9984C318.175 11.7457 316.966 12.5786 317.028 14.3826C317.033 14.5635 316.88 14.7444 316.833 14.9348C316.39 16.7197 316.11 18.5046 317.199 20.1611C318.332 21.8698 319.64 23.4454 321.025 24.9733ZM424.003 144.398C424.174 144.122 424.321 143.826 424.464 143.536C425.635 141.147 425.53 138.752 423.984 136.658C422.737 134.978 420.962 133.783 418.916 133.16C415.786 132.212 412.974 133.026 410.647 135.168C408.396 137.229 408.43 140.656 410.78 142.713C412.16 143.917 413.578 145.064 415.1 146.078C415.914 146.611 416.785 146.954 417.793 146.901C419.078 146.968 420.272 146.368 421.533 146.244C422.794 146.125 423.417 145.321 424.003 144.398ZM371.878 152.913C368.9 152.394 366.178 153.184 363.742 154.964C363.314 155.269 362.857 155.602 362.662 156.069C361.882 157.896 361.43 159.753 361.853 161.795C362.139 163.204 362.733 164.465 363.214 165.779C363.647 166.964 364.513 167.778 365.717 167.983C366.088 167.902 365.883 167.464 366.226 167.492C367.173 168.435 367.511 168.468 368.334 167.735C368.329 167.092 367.739 166.831 367.301 166.331C368.357 166.431 368.391 167.34 368.843 167.835C370.009 167.726 371.046 167.321 371.974 166.716C374.576 165.008 376.146 162.533 376.465 159.472C376.846 155.888 375.547 153.541 371.878 152.913ZM284.216 61.3146C284.512 61.7858 284.854 62.2333 285.082 62.733C285.349 63.309 285.806 63.6707 286.324 63.9325C287.138 64.3466 287.966 64.7465 288.822 65.0273C290.526 65.5842 292.234 65.865 294.028 65.3414C296.307 64.6751 297.886 63.1138 299.39 61.4193C300.085 60.634 300.736 59.7962 300.965 58.7538C301.265 57.4163 301.574 56.0502 300.537 54.865C299.409 55.1554 298.757 54.7889 298.386 53.7179C298.138 53.0087 298.476 52.6232 299.918 52.0234C299.856 51.1857 299.514 50.3908 299.39 49.5578C299.228 48.4107 298.671 47.5634 297.663 46.9637C295.702 45.8118 293.599 45.036 291.396 44.5362C290.331 44.2934 289.227 44.2887 288.308 45.0503C286.738 46.364 285.287 47.8395 284.692 49.8244C283.836 52.7183 283.194 55.6695 283.374 58.7348C283.431 59.6868 283.722 60.5245 284.216 61.3146ZM350.225 126.058C351.205 124.478 351.562 122.717 350.558 120.932C350.363 120.594 350.301 120.194 350.187 119.818C349.725 118.276 349.563 116.667 349.121 115.115C348.864 114.225 348.436 113.592 347.679 113.125C345.762 111.95 343.692 111.217 341.522 110.655C339.781 110.203 338.444 110.627 337.259 111.859C335.727 113.468 334.523 115.215 334.1 117.495C333.762 119.37 333.372 121.222 333.172 123.116C332.901 125.591 334 127.553 335.422 129.404C335.518 129.528 335.651 129.642 335.789 129.723C337.654 130.775 339.581 131.646 341.789 131.598C342.778 131.589 343.739 131.541 344.672 131.118C347.08 130.028 348.869 128.243 350.225 126.058ZM448.787 105.824C449.848 103.92 450.709 101.949 450.728 99.7217C450.767 98.8459 450.624 98.0225 450.324 97.199C449.615 95.2665 448.269 93.81 446.765 92.4916C444.695 90.6685 442.45 89.6404 439.733 91.1493C439.623 91.2112 439.48 91.2112 439.352 91.2397C437.601 91.6395 435.845 92.0394 434.094 92.444C433.385 92.601 432.819 92.9866 432.429 93.5816C430.959 95.8377 430.05 98.3081 429.603 100.955C429.493 101.616 429.57 102.254 429.917 102.858C430.921 104.586 432.401 105.829 434.156 106.652C436.583 107.794 439.262 107.999 441.883 108.399C444.286 108.761 446.275 107.752 448.173 106.452C448.411 106.29 448.649 106.071 448.787 105.824ZM527.39 139.609C528.532 140.371 529.845 140.642 531.153 140.942C532.952 141.342 534.755 141.642 537.42 141.813C538.876 142.041 540.589 140.804 542.335 139.628C542.563 139.476 542.692 139.257 542.834 139.038C543.615 137.886 544.129 136.591 544.428 135.268C544.842 133.464 544.909 131.646 544.019 129.894C542.792 127.481 540.965 125.653 538.643 124.382C537.52 123.768 536.159 123.402 534.855 123.992C533.257 124.716 531.563 125.02 529.859 125.353C528.237 125.672 526.695 126.053 525.858 127.776C524.811 129.909 523.94 132.079 523.574 134.435C523.445 135.244 523.683 136.006 524.154 136.663C525.025 137.872 526.167 138.79 527.39 139.609ZM300.713 142.841C300.946 142.684 301.065 142.465 301.212 142.251C301.992 141.094 302.506 139.804 302.811 138.476C303.22 136.677 303.291 134.859 302.397 133.102C301.174 130.689 299.342 128.857 297.025 127.591C295.902 126.972 294.541 126.61 293.238 127.2C291.634 127.924 289.936 128.228 288.237 128.562C286.615 128.881 285.073 129.266 284.231 130.984C283.189 133.117 282.313 135.287 281.952 137.643C281.828 138.453 282.061 139.209 282.532 139.871C283.408 141.08 284.545 141.994 285.768 142.817C286.914 143.584 288.223 143.85 289.536 144.145C291.33 144.545 293.133 144.85 295.798 145.021C297.258 145.25 298.971 144.012 300.713 142.841ZM437.691 212.068C437.259 210.459 437.082 208.789 436.588 207.185C436.354 206.404 435.969 205.847 435.312 205.419C433.062 203.948 430.573 203.12 427.957 202.625C427.357 202.515 426.772 202.648 426.253 202.958C424.459 204.034 423.132 205.571 422.328 207.456C421.238 210.045 420.953 212.835 420.705 215.148C420.667 216.671 420.762 217.704 421.129 218.708C421.4 219.46 422.014 219.993 422.314 220.726C422.59 221.383 423.089 221.831 423.717 222.173C424.869 222.797 426.077 223.268 427.338 223.611C429.327 224.149 431.216 223.906 433.024 222.887C434.918 221.831 436.416 220.317 437.577 218.546C438.648 216.918 439.143 215.091 438.086 213.177C437.901 212.844 437.801 212.454 437.691 212.068ZM337.402 234.458C336.536 233.725 335.556 233.43 334.39 233.673C332.558 234.059 330.807 234.677 329.104 235.439C327.296 236.248 326.125 237.452 325.854 239.59C325.659 241.189 325.412 242.883 324.665 244.335C323.927 245.763 324.132 247.067 324.665 248.405C325.464 250.413 327.082 251.775 328.637 253.15C329.337 253.76 330.136 254.121 331.083 254.302C331.892 254.455 332.615 255.059 333.172 254.921C335.736 254.797 337.697 253.931 339.571 252.85C339.809 252.708 340.038 252.508 340.195 252.236C340.618 251.503 341.07 250.78 341.503 250.056C341.732 249.69 341.917 249.3 341.941 248.867C342.012 247.853 342.117 246.848 342.05 245.82C341.955 244.397 341.598 243.036 341.413 241.636C341.023 238.685 339.614 236.358 337.402 234.458ZM238.93 91.5205C238.706 91.6491 238.459 91.7347 238.202 91.8014C236.503 92.2726 234.743 92.4916 233.044 92.9771C232.311 93.1865 231.75 93.5244 231.321 94.1575C229.989 96.1328 229.271 98.3557 228.638 100.631C228.148 102.368 228.709 103.691 229.937 104.877C231.517 106.395 233.244 107.552 235.475 107.99C237.531 108.389 239.572 108.813 241.561 108.98C242.589 108.913 243.488 108.823 244.373 108.523C245.172 108.251 245.729 107.623 246.481 107.304C247.213 106.99 247.651 106.452 248.027 105.757C248.641 104.624 249.074 103.434 249.416 102.206C249.959 100.245 249.683 98.389 248.712 96.6088C247.646 94.662 246.105 93.1389 244.301 91.9585C242.669 90.897 240.823 90.4496 238.93 91.5205ZM484.087 44.9646C485.652 45.9594 487.427 46.3164 489.207 45.3168C489.449 45.1788 489.706 45.174 489.958 45.0979C491.614 44.5648 493.341 44.3458 495.026 43.9317C495.806 43.7318 496.467 43.37 496.934 42.6561C498.437 40.3761 499.279 37.8439 499.779 35.1926C499.898 34.5501 499.727 33.9408 499.398 33.3887C498.418 31.7513 497.005 30.5137 495.316 29.7283C492.613 28.467 489.673 28.1386 486.737 27.9006C485.524 27.853 484.358 27.972 483.288 28.5527C482.688 28.8811 482.151 29.3238 481.546 29.6379C480.994 29.9235 480.614 30.3281 480.319 30.8517C479.653 32.0273 479.182 33.2792 478.834 34.5881C478.277 36.6539 478.563 38.5912 479.662 40.4475C480.766 42.3276 482.293 43.8222 484.087 44.9646ZM416.323 12.5596C415.229 10.7033 414.943 8.76125 415.495 6.69548C415.847 5.39129 416.314 4.13945 416.985 2.95901C417.28 2.44019 417.66 2.03084 418.207 1.74525C418.812 1.4311 419.354 0.988441 419.949 0.66477C421.019 0.0840708 422.19 -0.0349255 423.398 0.00791273C426.334 0.250665 429.275 0.579093 431.977 1.83569C433.666 2.62106 435.079 3.86338 436.064 5.50076C436.388 6.05291 436.559 6.66217 436.44 7.29522C435.941 9.95597 435.103 12.4834 433.6 14.7682C433.133 15.4726 432.472 15.8391 431.687 16.0343C430.003 16.4579 428.28 16.6769 426.62 17.21C426.372 17.2861 426.11 17.2861 425.873 17.4194C424.093 18.419 422.314 18.0715 420.748 17.0767C418.959 15.9343 417.432 14.4397 416.323 12.5596Z" fill="#90AC8E"/>
</svg>
