<svg width="100" height="78" viewBox="0 0 100 78" fill="none" xmlns="http://www.w3.org/2000/svg">
<path d="M85.9375 13.4062H56.875L50.3125 23.6437H13.75V64.5938H92.5V13.4062H85.9375ZM85.9375 23.6437H60.3125L63.75 18.525H85.9375V23.6437Z" fill="#55381E"/>
<path d="M74.4563 49.8567L79.1438 46.2005C80.8322 46.7222 82.6379 46.9738 84.4535 46.9403C86.2691 46.9068 88.0576 46.5889 89.7125 46.0055C89.9023 45.9381 90.0684 45.8359 90.1965 45.7076C90.3246 45.5793 90.4109 45.4286 90.4481 45.2686C90.4852 45.1085 90.4721 44.9438 90.4099 44.7886C90.3476 44.6334 90.2381 44.4922 90.0906 44.3772L81.7188 37.8472C81.4766 37.6586 81.2845 37.4346 81.1534 37.188C81.0223 36.9415 80.9548 36.6772 80.9548 36.4103C80.9548 36.1433 81.0223 35.879 81.1534 35.6325C81.2845 35.3859 81.4766 35.1619 81.7188 34.9734L90.0813 28.4506C90.2304 28.3358 90.3417 28.1946 90.4056 28.039C90.4695 27.8833 90.4841 27.718 90.4481 27.557C90.4122 27.396 90.3268 27.2442 90.1992 27.1145C90.0717 26.9849 89.9057 26.8813 89.7156 26.8126C87.2872 25.9552 84.5878 25.6777 81.9575 26.0151C79.3273 26.3525 76.8839 27.2897 74.9355 28.7086C72.9871 30.1275 71.6208 31.9645 71.0088 33.9882C70.3969 36.0118 70.5667 38.1314 71.4969 40.0799L66.7031 43.819L74.4563 49.8567Z" fill="#D08B00"/>
<path d="M65.4751 44.767L58.9782 39.6995L51.2251 45.7469L57.722 50.8145L65.4751 56.8619L89.2251 75.3869C89.5509 75.6408 89.9926 75.7835 90.4532 75.7835C90.9138 75.7835 91.3555 75.6408 91.6813 75.3869L96.9782 71.2553C97.3038 71.0012 97.4867 70.6567 97.4867 70.2974C97.4867 69.9382 97.3038 69.5936 96.9782 69.3395L73.2282 50.8145L65.4751 44.767Z" fill="#D08B00"/>
<path d="M93.6124 31.8533L86.6687 37.2694C86.4024 37.4774 86.2529 37.7592 86.2529 38.0531C86.2529 38.347 86.4024 38.6288 86.6687 38.8368L92.0218 43.0122C92.1626 43.1226 92.3317 43.2086 92.5181 43.2646C92.7044 43.3205 92.9038 43.3452 93.1032 43.3369C93.3026 43.3286 93.4975 43.2876 93.6752 43.2165C93.8529 43.1454 94.0093 43.0459 94.1343 42.9244C95.6493 41.4276 96.6153 39.6383 96.9296 37.747C97.2438 35.8557 96.8944 33.9334 95.9187 32.1848C95.8253 32.0199 95.6817 31.8752 95.5003 31.7634C95.3189 31.6517 95.1052 31.5761 94.8779 31.5435C94.6506 31.5108 94.4164 31.5219 94.1959 31.5759C93.9753 31.6299 93.775 31.7252 93.6124 31.8533Z" fill="#D08B00"/>
<path d="M40.4377 57.525L48.8096 64.055C49.0517 64.2436 49.2439 64.4676 49.3749 64.7142C49.506 64.9607 49.5735 65.225 49.5735 65.4919C49.5735 65.7589 49.506 66.0232 49.3749 66.2697C49.2439 66.5163 49.0517 66.7403 48.8096 66.9288L40.4471 73.4516C40.2984 73.5672 40.188 73.7092 40.1252 73.8655C40.0624 74.0217 40.0492 74.1875 40.0867 74.3486C40.1242 74.5097 40.2113 74.6613 40.3405 74.7904C40.4696 74.9194 40.637 75.0221 40.8283 75.0896C43.2524 75.9449 45.9465 76.2224 48.5722 75.8873C51.1979 75.5522 53.6381 74.6194 55.5863 73.206C57.5345 71.7927 58.9038 69.9618 59.5223 67.9434C60.1408 65.925 59.9809 63.809 59.0627 61.8613L64.2408 57.8223L56.4877 51.7749L51.4377 55.7163C49.7425 55.1862 47.9275 54.9289 46.1016 54.9599C44.2757 54.9909 42.4767 55.3096 40.8127 55.8967C40.6231 55.9643 40.4573 56.0667 40.3296 56.1951C40.2018 56.3236 40.1158 56.4743 40.0789 56.6343C40.0421 56.7943 40.0555 56.9589 40.1179 57.114C40.1804 57.2691 40.2901 57.4101 40.4377 57.525Z" fill="#D08B00"/>
<path d="M36.4093 59.0728C34.8943 60.5697 33.9283 62.359 33.614 64.2503C33.2998 66.1415 33.6492 68.0639 34.625 69.8125C34.7185 69.977 34.862 70.1212 35.0432 70.2326C35.2243 70.3441 35.4375 70.4194 35.6644 70.4521C35.8913 70.4847 36.1249 70.4737 36.3451 70.42C36.5653 70.3664 36.7654 70.2716 36.9281 70.144L43.8718 64.7278C44.138 64.5199 44.2876 64.238 44.2876 63.9442C44.2876 63.6503 44.138 63.3685 43.8718 63.1605L38.5218 58.9875C38.3812 58.877 38.2123 58.7908 38.0261 58.7346C37.8398 58.6784 37.6405 58.6536 37.4411 58.6616C37.2417 58.6697 37.0468 58.7105 36.869 58.7813C36.6912 58.8522 36.5345 58.9515 36.4093 59.0728Z" fill="#D08B00"/>
<path d="M40.3844 49.9395C40.7835 50.2508 41.3248 50.4256 41.8891 50.4256C42.4535 50.4256 42.9947 50.2508 43.3938 49.9395L43.7938 49.6275C44.1928 49.3162 44.417 48.8941 44.417 48.4539C44.417 48.0137 44.1928 47.5915 43.7938 47.2802L42.9907 46.6538L44.5719 45.4204L37.1469 39.6289L35.5657 40.8623L34.7625 40.2358C34.3635 39.9246 33.8222 39.7498 33.2579 39.7498C32.6935 39.7498 32.1523 39.9246 31.7532 40.2358L31.3532 40.5478C30.9541 40.8591 30.73 41.2813 30.73 41.7215C30.73 42.1617 30.9541 42.5839 31.3532 42.8952L40.3844 49.9395Z" fill="#D08B00"/>
<path d="M51.875 28.4896L59.2094 34.2104C67.6625 29.8229 72.3906 33.5011 65.8906 28.4336C61.3906 24.926 55.7125 26.5835 51.875 28.4896Z" fill="#D08B00"/>
<path d="M49.6155 28.648C49.2164 28.3367 48.6751 28.1619 48.1108 28.1619C47.5464 28.1619 47.0052 28.3367 46.6061 28.648L37.5749 35.6923C37.1758 36.0036 36.9517 36.4258 36.9517 36.866C36.9517 37.3062 37.1758 37.7283 37.5749 38.0396L38.378 38.6661L45.803 44.4576L46.6061 45.084C46.9646 45.3635 47.4392 45.5339 47.9444 45.5648C48.4497 45.5956 48.9525 45.4848 49.3623 45.2522C49.4521 45.2013 49.5368 45.1451 49.6155 45.084L49.9998 44.7891L57.753 38.7416L58.378 38.2541L58.6623 38.0323C59.0614 37.721 59.2855 37.2989 59.2855 36.8587C59.2855 36.4185 59.0614 35.9963 58.6623 35.685L57.7873 35.0025L50.4248 29.2598L49.6155 28.648Z" fill="#D08B00"/>
</svg>
