<svg width="96" height="49" viewBox="0 0 96 49" fill="none" xmlns="http://www.w3.org/2000/svg">
<path d="M0 10C0 4.47715 4.47715 0 10 0H86C91.5228 0 96 4.47715 96 10V49H0V10Z" fill="#F3E9DC"/>
<path d="M53.6086 23.7945L56.9836 21.1695C58.1993 21.544 59.4994 21.7247 60.8067 21.7006C62.1139 21.6766 63.4016 21.4483 64.5931 21.0295C64.7298 20.9811 64.8494 20.9077 64.9416 20.8156C65.0338 20.7234 65.096 20.6153 65.1227 20.5004C65.1495 20.3855 65.1401 20.2673 65.0952 20.1558C65.0504 20.0444 64.9716 19.943 64.8654 19.8605L58.8376 15.1722C58.6633 15.0368 58.5249 14.876 58.4305 14.699C58.3362 14.522 58.2876 14.3322 58.2876 14.1406C58.2876 13.9489 58.3362 13.7592 58.4305 13.5822C58.5249 13.4052 58.6633 13.2444 58.8376 13.109L64.8586 8.42596C64.966 8.34356 65.0461 8.24216 65.0921 8.13042C65.1382 8.01869 65.1487 7.89994 65.1228 7.78436C65.0969 7.66877 65.0354 7.55978 64.9436 7.46671C64.8517 7.37365 64.7322 7.29927 64.5954 7.24996C62.8469 6.63436 60.9033 6.43512 59.0095 6.67736C57.1157 6.9196 55.3565 7.59247 53.9537 8.61116C52.5508 9.62985 51.5671 10.9488 51.1265 12.4016C50.6859 13.8545 50.8082 15.3763 51.4779 16.7752L48.0264 19.4597L53.6086 23.7945Z" fill="#C08552"/>
<path d="M47.1418 20.1404L42.4641 16.5022L36.8818 20.8439L41.5596 24.4822L47.1418 28.8239L64.2418 42.1239C64.4764 42.3063 64.7945 42.4087 65.1261 42.4087C65.4577 42.4087 65.7758 42.3063 66.0103 42.1239L69.8241 39.1577C70.0585 38.9752 70.1902 38.7279 70.1902 38.4699C70.1902 38.212 70.0585 37.9647 69.8241 37.7822L52.7241 24.4822L47.1418 20.1404Z" fill="#C08552"/>
<path d="M67.4009 10.869L62.4014 14.7575C62.2097 14.9068 62.1021 15.1092 62.1021 15.3202C62.1021 15.5311 62.2097 15.7335 62.4014 15.8828L66.2556 18.8805C66.357 18.9598 66.4788 19.0216 66.6129 19.0617C66.7471 19.1019 66.8907 19.1196 67.0342 19.1137C67.1778 19.1077 67.3181 19.0783 67.4461 19.0272C67.574 18.9762 67.6866 18.9047 67.7766 18.8175C68.8674 17.7429 69.563 16.4582 69.7892 15.1004C70.0155 13.7426 69.7639 12.3624 69.0614 11.107C68.9941 10.9886 68.8907 10.8848 68.7601 10.8045C68.6295 10.7243 68.4757 10.67 68.312 10.6466C68.1483 10.6231 67.9798 10.6311 67.821 10.6699C67.6622 10.7087 67.5179 10.777 67.4009 10.869V10.869Z" fill="#C08552"/>
<path d="M29.1152 29.3L35.143 33.9882C35.3173 34.1236 35.4557 34.2845 35.5501 34.4615C35.6444 34.6385 35.693 34.8282 35.693 35.0199C35.693 35.2115 35.6444 35.4013 35.5501 35.5783C35.4557 35.7553 35.3173 35.9161 35.143 36.0515L29.122 40.7345C29.015 40.8175 28.9354 40.9195 28.8902 41.0316C28.845 41.1438 28.8355 41.2629 28.8625 41.3785C28.8895 41.4942 28.9522 41.603 29.0452 41.6957C29.1382 41.7883 29.2588 41.8621 29.3965 41.9105C31.1418 42.5246 33.0816 42.7238 34.9721 42.4832C36.8626 42.2426 38.6195 41.5729 40.0222 40.5582C41.4249 39.5435 42.4109 38.229 42.8562 36.7799C43.3015 35.3308 43.1864 33.8116 42.5252 32.4133L46.2535 29.5135L40.6712 25.1718L37.0352 28.0015C35.8147 27.6209 34.5079 27.4362 33.1932 27.4584C31.8786 27.4807 30.5833 27.7095 29.3852 28.131C29.2487 28.1795 29.1294 28.253 29.0374 28.3453C28.9454 28.4375 28.8835 28.5457 28.8569 28.6605C28.8304 28.7754 28.84 28.8936 28.885 29.005C28.93 29.1163 29.009 29.2176 29.1152 29.3V29.3Z" fill="#C08552"/>
<path d="M26.2149 30.4113C25.1241 31.4859 24.4285 32.7706 24.2023 34.1284C23.976 35.4862 24.2276 36.8664 24.9301 38.1218C24.9975 38.2399 25.1008 38.3434 25.2313 38.4234C25.3617 38.5035 25.5152 38.5575 25.6786 38.581C25.8419 38.6044 26.0101 38.5965 26.1687 38.558C26.3272 38.5194 26.4713 38.4514 26.5884 38.3598L31.5879 34.4713C31.7796 34.322 31.8872 34.1196 31.8872 33.9087C31.8872 33.6977 31.7796 33.4953 31.5879 33.346L27.7359 30.35C27.6347 30.2706 27.513 30.2088 27.3789 30.1684C27.2449 30.1281 27.1013 30.1103 26.9578 30.1161C26.8142 30.1218 26.6738 30.1511 26.5458 30.202C26.4178 30.2529 26.305 30.3242 26.2149 30.4113V30.4113Z" fill="#C08552"/>
<path d="M29.0767 23.854C29.364 24.0775 29.7537 24.203 30.1601 24.203C30.5664 24.203 30.9561 24.0775 31.2434 23.854L31.5314 23.63C31.8187 23.4065 31.9801 23.1034 31.9801 22.7874C31.9801 22.4714 31.8187 22.1683 31.5314 21.9448L30.9532 21.495L32.0917 20.6095L26.7457 16.4515L25.6072 17.337L25.0289 16.8873C24.7416 16.6638 24.3519 16.5383 23.9456 16.5383C23.5392 16.5383 23.1495 16.6638 22.8622 16.8873L22.5742 17.1113C22.2869 17.3348 22.1255 17.6379 22.1255 17.9539C22.1255 18.27 22.2869 18.573 22.5742 18.7965L29.0767 23.854Z" fill="#C08552"/>
<path d="M37.3501 8.45399L42.6308 12.5612C48.7171 9.41124 52.1213 12.052 47.4413 8.41374C44.2013 5.89549 40.1131 7.08549 37.3501 8.45399V8.45399Z" fill="#C08552"/>
<path d="M35.7234 8.56774C35.4361 8.34428 35.0464 8.21875 34.64 8.21875C34.2337 8.21875 33.844 8.34428 33.5567 8.56774L27.0542 13.6252C26.7669 13.8487 26.6055 14.1518 26.6055 14.4679C26.6055 14.7839 26.7669 15.087 27.0542 15.3105L27.6324 15.7602L32.9784 19.9182L33.5567 20.368C33.8148 20.5686 34.1565 20.691 34.5203 20.7131C34.8841 20.7353 35.2461 20.6557 35.5412 20.4887C35.6058 20.4522 35.6667 20.4118 35.7234 20.368L36.0002 20.1562L41.5824 15.8145L42.0324 15.4645L42.2372 15.3052C42.5245 15.0817 42.6859 14.7786 42.6859 14.4626C42.6859 14.1466 42.5245 13.8435 42.2372 13.62L41.6072 13.13L36.3062 9.00699L35.7234 8.56774Z" fill="#C08552"/>
</svg>
