<svg width="96" height="61" viewBox="0 0 96 61" fill="none" xmlns="http://www.w3.org/2000/svg">
<path d="M0 22C0 16.4772 4.47715 12 10 12H86C91.5228 12 96 16.4772 96 22V61H0V22Z" fill="#F3E9DC"/>
<path d="M53.6086 35.7945L56.9836 33.1695C58.1993 33.5441 59.4994 33.7247 60.8067 33.7007C62.1139 33.6766 63.4016 33.4484 64.5931 33.0295C64.7298 32.9812 64.8494 32.9078 64.9416 32.8156C65.0338 32.7235 65.096 32.6154 65.1227 32.5005C65.1495 32.3856 65.1401 32.2673 65.0952 32.1559C65.0504 32.0444 64.9715 31.9431 64.8654 31.8605L58.8376 27.1723C58.6633 27.0369 58.5249 26.8761 58.4305 26.699C58.3362 26.522 58.2876 26.3323 58.2876 26.1406C58.2876 25.949 58.3362 25.7593 58.4305 25.5822C58.5249 25.4052 58.6633 25.2444 58.8376 25.109L64.8586 20.426C64.966 20.3436 65.0461 20.2422 65.0921 20.1305C65.1382 20.0187 65.1487 19.9 65.1228 19.7844C65.0969 19.6688 65.0354 19.5598 64.9436 19.4668C64.8517 19.3737 64.7322 19.2993 64.5954 19.25C62.8469 18.6344 60.9033 18.4352 59.0095 18.6774C57.1157 18.9197 55.3565 19.5925 53.9537 20.6112C52.5508 21.6299 51.5671 22.9488 51.1265 24.4017C50.6859 25.8546 50.8082 27.3764 51.4779 28.7753L48.0264 31.4598L53.6086 35.7945Z" fill="#C08552"/>
<path d="M47.1421 32.1405L42.4643 28.5023L36.8821 32.844L41.5598 36.4823L47.1421 40.824L64.2421 54.124C64.4767 54.3063 64.7947 54.4087 65.1263 54.4087C65.4579 54.4087 65.776 54.3063 66.0106 54.124L69.8243 51.1578C70.0587 50.9753 70.1904 50.7279 70.1904 50.47C70.1904 50.2121 70.0587 49.9647 69.8243 49.7823L52.7243 36.4823L47.1421 32.1405Z" fill="#C08552"/>
<path d="M67.4009 22.869L62.4014 26.7575C62.2097 26.9068 62.1021 27.1092 62.1021 27.3202C62.1021 27.5311 62.2097 27.7335 62.4014 27.8828L66.2556 30.8805C66.357 30.9598 66.4788 31.0216 66.6129 31.0617C66.7471 31.1019 66.8907 31.1196 67.0342 31.1137C67.1778 31.1077 67.3181 31.0783 67.4461 31.0272C67.574 30.9762 67.6866 30.9047 67.7766 30.8175C68.8674 29.7429 69.563 28.4582 69.7892 27.1004C70.0155 25.7426 69.7639 24.3624 69.0614 23.107C68.9941 22.9886 68.8907 22.8848 68.7601 22.8045C68.6295 22.7243 68.4757 22.67 68.312 22.6466C68.1483 22.6231 67.9798 22.6311 67.821 22.6699C67.6622 22.7087 67.5179 22.777 67.4009 22.869Z" fill="#C08552"/>
<path d="M29.115 41.3L35.1427 45.9882C35.3171 46.1236 35.4554 46.2845 35.5498 46.4615C35.6442 46.6385 35.6928 46.8282 35.6928 47.0199C35.6928 47.2115 35.6442 47.4013 35.5498 47.5783C35.4554 47.7553 35.3171 47.9161 35.1427 48.0515L29.1217 52.7345C29.0147 52.8175 28.9352 52.9195 28.89 53.0316C28.8448 53.1438 28.8353 53.2628 28.8623 53.3785C28.8893 53.4942 28.952 53.603 29.045 53.6957C29.138 53.7883 29.2585 53.8621 29.3962 53.9105C31.1416 54.5246 33.0814 54.7238 34.9718 54.4832C36.8623 54.2426 38.6193 53.5729 40.022 52.5582C41.4247 51.5435 42.4106 50.229 42.8559 48.7799C43.3013 47.3308 43.1861 45.8116 42.525 44.4133L46.2532 41.5135L40.671 37.1718L37.035 40.0015C35.8145 39.6209 34.5076 39.4362 33.193 39.4584C31.8783 39.4807 30.5831 39.7095 29.385 40.131C29.2485 40.1795 29.1291 40.253 29.0371 40.3453C28.9451 40.4375 28.8832 40.5457 28.8567 40.6605C28.8301 40.7754 28.8398 40.8936 28.8848 41.005C28.9297 41.1163 29.0087 41.2176 29.115 41.3Z" fill="#C08552"/>
<path d="M26.2146 42.4113C25.1239 43.4859 24.4283 44.7706 24.202 46.1284C23.9758 47.4862 24.2274 48.8664 24.9299 50.1218C24.9972 50.2399 25.1006 50.3434 25.231 50.4234C25.3614 50.5035 25.515 50.5575 25.6783 50.581C25.8417 50.6044 26.0099 50.5965 26.1684 50.558C26.327 50.5194 26.471 50.4514 26.5882 50.3598L31.5876 46.4713C31.7793 46.322 31.887 46.1196 31.887 45.9087C31.887 45.6977 31.7793 45.4953 31.5876 45.346L27.7356 42.35C27.6344 42.2706 27.5128 42.2088 27.3787 42.1684C27.2446 42.1281 27.1011 42.1103 26.9575 42.1161C26.814 42.1218 26.6736 42.1511 26.5456 42.202C26.4176 42.2529 26.3048 42.3242 26.2146 42.4113Z" fill="#C08552"/>
<path d="M29.0767 35.854C29.364 36.0774 29.7537 36.203 30.1601 36.203C30.5664 36.203 30.9561 36.0774 31.2434 35.854L31.5314 35.63C31.8187 35.4065 31.9801 35.1034 31.9801 34.7874C31.9801 34.4713 31.8187 34.1682 31.5314 33.9447L30.9532 33.495L32.0917 32.6095L26.7457 28.4515L25.6072 29.337L25.0289 28.8872C24.7416 28.6638 24.3519 28.5382 23.9456 28.5382C23.5392 28.5382 23.1495 28.6638 22.8622 28.8872L22.5742 29.1112C22.2869 29.3347 22.1255 29.6378 22.1255 29.9539C22.1255 30.2699 22.2869 30.573 22.5742 30.7965L29.0767 35.854Z" fill="#C08552"/>
<path d="M37.3501 20.454L42.6308 24.5612C48.7171 21.4112 52.1213 24.052 47.4413 20.4137C44.2013 17.8955 40.1131 19.0855 37.3501 20.454Z" fill="#C08552"/>
<path d="M35.7232 20.5677C35.4358 20.3443 35.0461 20.2188 34.6398 20.2188C34.2335 20.2188 33.8438 20.3443 33.5564 20.5677L27.0539 25.6252C26.7666 25.8487 26.6052 26.1518 26.6052 26.4679C26.6052 26.7839 26.7666 27.087 27.0539 27.3105L27.6322 27.7602L32.9782 31.9182L33.5564 32.368C33.8145 32.5686 34.1562 32.691 34.52 32.7131C34.8838 32.7353 35.2458 32.6557 35.5409 32.4887C35.6056 32.4522 35.6665 32.4118 35.7232 32.368L35.9999 32.1562L41.5822 27.8145L42.0322 27.4645L42.2369 27.3052C42.5242 27.0817 42.6856 26.7786 42.6856 26.4626C42.6856 26.1466 42.5242 25.8435 42.2369 25.62L41.6069 25.13L36.3059 21.007L35.7232 20.5677Z" fill="#C08552"/>
</svg>
