<svg width="36" height="75" viewBox="0 0 36 75" fill="none" xmlns="http://www.w3.org/2000/svg">
<path d="M16 0C10.67 4.55 8 8.48 8 11.8C8 16.78 11.8 20 16 20C20.2 20 24 16.78 24 11.8C24 8.48 21.33 4.55 16 0ZM11.83 12C12.2 12 12.5 12.26 12.57 12.62C12.98 14.84 14.85 15.6 16.21 15.49C16.64 15.47 17 15.81 17 16.24C17 16.64 16.68 16.97 16.28 16.99C14.15 17.12 11.66 15.9 11.09 12.87C11.0726 12.7628 11.0787 12.6531 11.1079 12.5485C11.1371 12.4438 11.1887 12.3468 11.259 12.2641C11.3294 12.1813 11.4169 12.1149 11.5155 12.0693C11.6141 12.0237 11.7214 12 11.83 12Z" fill="#55ACEE"/>
<path d="M28 33C22.67 37.55 20 41.48 20 44.8C20 49.78 23.8 53 28 53C32.2 53 36 49.78 36 44.8C36 41.48 33.33 37.55 28 33ZM23.83 45C24.2 45 24.5 45.26 24.57 45.62C24.98 47.84 26.85 48.6 28.21 48.49C28.64 48.47 29 48.81 29 49.24C29 49.64 28.68 49.97 28.28 49.99C26.15 50.12 23.66 48.9 23.09 45.87C23.0726 45.7628 23.0787 45.6531 23.1079 45.5485C23.1371 45.4438 23.1887 45.3468 23.259 45.2641C23.3294 45.1813 23.4169 45.1149 23.5155 45.0693C23.6141 45.0237 23.7214 45 23.83 45Z" fill="#55ACEE"/>
<path d="M8 55C2.67 59.55 0 63.48 0 66.8C0 71.78 3.8 75 8 75C12.2 75 16 71.78 16 66.8C16 63.48 13.33 59.55 8 55ZM3.83 67C4.2 67 4.5 67.26 4.57 67.62C4.98 69.84 6.85 70.6 8.21 70.49C8.64 70.47 9 70.81 9 71.24C9 71.64 8.68 71.97 8.28 71.99C6.15 72.12 3.66 70.9 3.09 67.87C3.07262 67.7628 3.07874 67.6531 3.10792 67.5485C3.13711 67.4438 3.18867 67.3468 3.25905 67.2641C3.32942 67.1813 3.41692 67.1149 3.5155 67.0693C3.61408 67.0237 3.72139 67 3.83 67Z" fill="#55ACEE"/>
</svg>
