<svg width="126" height="126" viewBox="0 0 126 126" fill="none" xmlns="http://www.w3.org/2000/svg">
<path d="M99.2602 70.0696C99.2602 89.1971 84.4552 104.86 65.6777 106.225C92.7152 90.4396 95.9702 62.9296 73.7627 37.0646L73.5002 36.7496C67.7777 30.1346 76.0202 19.5996 76.0202 19.5996H79.5027C82.6177 19.5996 85.1727 22.1546 85.1727 25.2696V25.3046C85.1727 26.5996 84.7177 27.8071 83.9652 28.7696C83.3877 29.5396 82.6002 30.1346 81.7077 30.5196H81.6902C79.6427 32.5496 77.8402 35.9971 83.0902 39.8821C83.1427 39.9171 83.2302 39.9871 83.2827 40.0221C83.4752 40.1446 83.7027 40.2846 83.8952 40.4421C86.4677 42.2446 88.7952 44.3971 90.8077 46.8121C92.6452 48.9996 94.2552 51.4146 95.5152 54.0396C95.5852 54.1446 95.6377 54.2671 95.7077 54.4071C95.9702 54.9846 96.2152 55.5446 96.4427 56.1221C96.6177 56.5946 96.8102 57.0671 96.9677 57.5221C97.1602 58.0121 97.3002 58.4846 97.4402 58.9396C97.4402 58.9571 97.4577 58.9746 97.4577 58.9921C97.5802 59.4296 97.7202 59.8846 97.8427 60.3221C97.8602 60.3921 97.8952 60.4796 97.9127 60.5496C97.9652 60.7596 98.0177 60.9346 98.0527 61.1446C98.1402 61.4071 98.2102 61.6871 98.2627 61.9671C98.3152 62.2471 98.3852 62.4921 98.4377 62.7721C98.4902 62.9821 98.5427 63.2271 98.5952 63.4546C98.5952 63.4721 98.5952 63.5246 98.6127 63.5421C98.7002 64.0496 98.7877 64.5221 98.8577 64.9771C98.9452 65.6071 99.0152 66.1846 99.0852 66.7096C99.1202 67.0771 99.1552 67.4271 99.1727 67.7246C99.2777 69.1946 99.2602 70.0696 99.2602 70.0696Z" fill="#6A462F" stroke="#6A462F" stroke-width="2" stroke-miterlimit="10" stroke-linecap="round" stroke-linejoin="round"/>
<path d="M65.6777 106.225C65.3802 106.26 65.0827 106.277 64.8027 106.277C64.2077 106.312 63.5952 106.33 63.0002 106.33C42.9802 106.33 26.7402 90.0896 26.7402 70.0696V69.8421C26.7402 69.3521 26.7577 68.8796 26.7927 68.3896C26.7927 68.1796 26.8102 67.9696 26.8277 67.7246C26.8452 67.4271 26.8802 67.0771 26.9152 66.7096C26.9677 66.2546 27.0377 65.7471 27.1252 65.2046C27.1602 64.9421 27.2127 64.6621 27.2477 64.3646C27.5452 62.7021 27.9827 60.7246 28.6477 58.6071C29.1181 57.1778 29.6673 55.7757 30.2927 54.4071C30.3452 54.2671 30.4152 54.1446 30.4852 54.0396C31.6577 51.5371 35.1927 46.8121 35.1927 46.8121C37.2052 44.3971 39.5327 42.2446 42.1052 40.4421C42.2977 40.2846 42.5252 40.1446 42.7177 40.0221C42.7702 39.9871 42.8577 39.9171 42.9102 39.8821C48.0727 36.0496 46.4102 32.6371 44.3977 30.6071C43.3652 30.2221 42.4727 29.5396 41.8427 28.6646C41.8077 28.6471 41.7902 28.6296 41.7902 28.6296C41.1077 27.6846 40.7052 26.5471 40.7052 25.3046V25.2696C40.7052 22.1546 43.2427 19.5996 46.3752 19.5996H76.0202C76.0202 19.5996 67.7777 30.1346 73.5002 36.7496L73.7627 37.0646C95.9702 62.9296 92.7152 90.4396 65.6777 106.225Z" fill="#A57939" stroke="#A57939" stroke-width="2" stroke-miterlimit="10" stroke-linecap="round" stroke-linejoin="round"/>
<path d="M28.8508 60.9335C29.01 60.1302 29.199 59.3392 29.4195 58.5622C29.1955 59.39 29.0083 60.181 28.8508 60.9335ZM29.899 56.9277C29.7153 57.4632 29.5753 58.0162 29.4195 58.5622C29.5648 58.0285 29.7205 57.4842 29.899 56.9277ZM28.5515 62.4752C28.6355 61.9887 28.7388 61.469 28.8508 60.9335C28.7493 61.4462 28.6268 61.9485 28.5515 62.4752ZM28.114 66.3427C28.079 66.8152 28.0615 67.2702 28.0615 67.7427C28.0615 67.4802 28.0615 67.0077 28.114 66.3427Z" fill="black"/>
<path d="M74.1267 34.708H51.6689" stroke="black" stroke-width="2" stroke-miterlimit="10" stroke-linecap="round"/>
<path d="M99.2602 70.0733C99.2602 90.0881 83.0237 106.325 63.009 106.325C42.9767 106.325 26.7402 90.0881 26.7402 70.0733V69.8371C26.7402 69.3471 26.7577 68.8746 26.7927 68.3846C26.7927 68.1851 26.812 67.9663 26.8312 67.7318C26.8487 67.4221 26.8837 67.0773 26.9222 66.7133C26.9747 66.2583 27.0307 65.7508 27.1217 65.2066C27.1567 64.9336 27.2127 64.6623 27.2477 64.3701C27.5833 62.4214 28.0511 60.4978 28.6477 58.6126C28.7631 58.2538 28.8839 57.8967 29.01 57.5416C29.3915 56.5266 29.8097 55.4713 30.2997 54.4003C30.354 54.2726 30.4082 54.1466 30.4817 54.0363C31.6612 51.5303 35.1857 46.8088 35.1857 46.8088C37.2037 44.3905 39.53 42.2471 42.1052 40.4336C42.3047 40.2883 42.5217 40.1431 42.723 40.0153C42.7755 39.9803 42.849 39.9243 42.9032 39.8893C48.0797 36.0568 46.4085 32.6426 44.3925 30.6073C43.3689 30.2302 42.4827 29.5532 41.8497 28.6648C41.8147 28.6473 41.7972 28.6298 41.7972 28.6298C41.0881 27.6663 40.706 26.5011 40.707 25.3048V25.2698C40.7116 23.7682 41.31 22.3294 42.3717 21.2675C43.4333 20.2055 44.8719 19.6066 46.3735 19.6016H79.501C81.002 19.6071 82.4399 20.2059 83.5011 21.2675C84.5623 22.329 85.1607 23.7671 85.1657 25.2681V25.3031C85.1657 26.5946 84.7107 27.8108 83.967 28.7733C83.3789 29.5386 82.6031 30.139 81.7147 30.5163H81.6972C79.6445 32.5516 77.8472 36.0026 83.0972 39.8876L83.2775 40.0153C83.477 40.1431 83.6957 40.2883 83.8952 40.4336C86.4704 42.2472 88.7967 44.3905 90.8147 46.8088C92.6701 49.0183 94.2497 51.4453 95.5187 54.0363C95.5905 54.1448 95.6465 54.2726 95.7007 54.4003C96.1739 55.4207 96.5979 56.4631 96.9712 57.5241C97.1532 58.0141 97.2985 58.4866 97.4437 58.9416C97.4437 58.9591 97.4612 58.9766 97.4612 58.9941C97.589 59.4316 97.7167 59.8848 97.8427 60.3206C97.8602 60.3923 97.897 60.4833 97.9162 60.5568C97.9687 60.7563 98.0247 60.9383 98.0615 61.1378C98.1332 61.4108 98.2067 61.6821 98.261 61.9726C98.3152 62.2456 98.3887 62.4993 98.443 62.7723C98.4955 62.9893 98.5515 63.2273 98.5882 63.4618C98.5882 63.4793 98.5882 63.5161 98.6057 63.5353C98.6967 64.0428 98.7877 64.5153 98.8595 64.9703C98.9505 65.6056 99.024 66.1866 99.0782 66.7133C99.1132 67.0773 99.15 67.4221 99.1692 67.7301C99.2777 69.2018 99.2602 70.0751 99.2602 70.0751V70.0733Z" stroke="black" stroke-width="2" stroke-miterlimit="10" stroke-linecap="round" stroke-linejoin="round"/>
<path d="M38.5 35C38.5 35 28 35 28 45.5L38.5 35ZM29.75 31.5C29.75 31.5 26.25 31.5 26.25 28L29.75 31.5Z" fill="black"/>
<path d="M29.75 31.5C29.75 31.5 26.25 31.5 26.25 28M38.5 35C38.5 35 28 35 28 45.5L38.5 35Z" stroke="black" stroke-width="2" stroke-miterlimit="10" stroke-linecap="round" stroke-linejoin="round"/>
</svg>
