<svg width="57" height="55" viewBox="0 0 57 55" fill="none" xmlns="http://www.w3.org/2000/svg">
<path d="M51.3111 34.7462C49.6898 30.1766 46.9696 26.0623 44.1576 22.1039C42.5315 19.8153 40.8215 17.5725 39.2651 15.2396C38.2106 13.6598 36.6225 11.2016 37.5598 9.25679C38.2043 7.91998 39.9269 7.58845 41.2585 8.06359C43.6208 8.9054 44.4394 11.5928 44.5851 13.7668C44.8606 17.8872 51.5581 17.9269 51.7592 13.7668C52.0347 8.11095 48.3012 2.7072 42.5093 1.28179C36.6843 -0.152797 30.4808 3.56887 29.6859 9.38359C28.8816 15.2762 33.6284 20.3041 36.8568 24.805C39.9475 29.1133 43.1316 33.5546 44.4458 38.7139C44.9952 40.8726 45.5398 43.8121 44.1877 45.7936C43.111 47.3733 41.0099 46.8248 39.4598 46.1939C36.9423 45.1687 36.3312 43.1704 36.0462 40.6923C35.7105 37.7666 35.6646 34.8257 35.0455 31.9321C33.8897 26.5344 30.8544 21.1093 25.3777 18.894C19.9453 16.694 13.1654 16.4832 8.39168 20.2278C2.89434 24.5391 2.60301 31.9825 4.50142 38.0539C6.46159 44.3193 10.944 50.2685 18.2717 50.5557C22.4833 50.7207 23.5078 44.828 19.2913 43.8686C14.7329 42.8312 12.8361 38.5183 11.8386 34.4819C10.982 31.0123 11.2353 25.6193 15.6845 24.6598C19.6128 23.8119 23.5679 25.6636 25.4347 28.9896C27.816 33.2322 27.5104 38.0386 28.2562 42.6616C29.089 47.8301 32.4694 51.8115 37.8385 53.0857C42.6835 54.2361 48.1476 53.3408 50.9153 48.9729C53.5832 44.7669 52.8928 39.2028 51.3111 34.7462Z" fill="black"/>
<path d="M26.5414 21.56C28.5649 22.7883 31.8582 27.0508 32.6784 30.6808C33.5255 34.4239 33.6047 36.8805 33.5255 39.904C33.4542 42.6158 31.9453 42.4004 32.0087 39.904C32.072 37.4076 31.6825 33.9426 30.9763 31.3561C30.2702 28.7696 28.0931 24.2825 25.5534 23.1932L13.0324 22.1039C13.0324 22.1039 8.31091 23.0205 7.03633 31.2935C6.64841 33.8128 5.78233 32.9969 5.83774 30.6808C5.89158 28.3647 6.78933 22.3086 12.7157 20.1987C12.7157 20.1987 26.8232 21.0161 26.5414 21.56Z" fill="black"/>
<g opacity="0.85">
<mask id="path-3-inside-1_832_2709" fill="white">
<path d="M40.9117 19.5249C41.2759 19.4164 41.6464 19.2973 42.0153 19.1659C41.4959 18.4524 40.9972 17.7252 40.4889 17.0056C40.3069 17.0682 40.1295 17.1354 39.9395 17.1889C38.8541 17.4934 37.7344 17.6698 36.605 17.7145C34.8327 17.7679 33.0649 17.5127 31.3864 16.9613C31.9326 17.9757 32.5675 18.9642 33.2389 19.9267C34.3947 20.1268 35.5679 20.2322 36.7222 20.191C38.1426 20.1444 39.5508 19.9205 40.9117 19.5249ZM42.8354 27.0966C44.0456 26.7507 45.2083 26.2654 46.2982 25.6513L46.5009 25.5382C46.0284 24.8195 45.546 24.107 45.0537 23.4009C44.1148 23.9386 43.141 24.4016 42.0913 24.6979C41.0605 24.9882 40.0013 25.1578 38.9262 25.1792C38.2976 25.1914 37.6579 25.112 37.023 25.0554C37.6279 25.8988 38.2327 26.7498 38.828 27.6099C38.8977 27.6099 38.9674 27.6236 39.037 27.6236C40.3222 27.6162 41.6002 27.4389 42.8354 27.0966ZM50.5558 32.8547C50.2174 32.0747 49.852 31.3058 49.4601 30.5493C48.3936 31.1626 47.2465 31.6348 46.0496 31.9534C44.8899 32.2689 43.6934 32.4414 42.4887 32.4667C42.2797 32.4697 42.0739 32.456 41.8664 32.4484C42.3003 33.2382 42.7135 34.0373 43.0793 34.8561C44.3681 34.8179 45.668 34.6652 46.903 34.3306C48.1769 33.9801 49.4031 33.4847 50.5558 32.8547ZM52.6616 43.2009C52.7123 42.3514 52.6996 41.4959 52.6236 40.6403C51.1258 40.7931 49.6359 40.842 48.0874 40.5654C46.9063 40.3604 45.7531 40.0268 44.6499 39.5709C44.8494 40.4631 45.0109 41.4393 45.0331 42.4003C45.8628 42.6677 46.7051 42.8968 47.568 43.0343C49.1941 43.2925 50.9579 43.3918 52.6616 43.2009ZM31.76 41.2056C32.9016 40.35 34.3994 39.7985 35.9384 39.5296C35.8609 38.7016 35.788 37.8735 35.7184 37.0454C35.0708 37.0607 34.4232 37.1325 33.7804 37.296C32.3469 37.6628 31.001 38.2948 29.8173 39.1568C29.1444 39.6427 28.5569 40.2385 28.017 40.8695C28.0867 41.479 28.1659 42.0871 28.2624 42.6906C28.3939 43.5095 28.6124 44.2856 28.8704 45.0403C29.1064 44.4735 29.3375 43.9174 29.6985 43.372C30.2685 42.5118 30.8987 41.8503 31.76 41.2056ZM29.6241 33.1695C31.2233 32.1122 33.0235 31.5943 34.8887 31.33C34.6852 30.4913 34.4357 29.6637 34.1414 28.8504C31.988 28.9604 29.8331 29.706 28.093 30.8457C27.5923 31.1833 27.1147 31.5518 26.6633 31.9488C26.9926 33.0228 27.219 34.1182 27.3853 35.2289C28.0186 34.4365 28.7736 33.742 29.6241 33.1695ZM27.4692 25.6742C28.2507 25.0756 29.1165 24.5874 30.0405 24.2243C30.5171 24.0486 31.0159 23.9325 31.5146 23.8348C30.9074 23.0039 30.2163 22.2332 29.4515 21.5339C28.6372 21.7696 27.8541 22.0956 27.1177 22.5056C25.4552 23.4574 24.0729 24.7499 22.8664 26.1921C23.647 26.7497 24.331 27.4296 24.8979 28.2149C25.5961 27.2432 26.5588 26.3831 27.4692 25.6742ZM11.7863 22.4109C11.3588 21.2681 11.1308 20.0856 11.2068 18.8679C11.2131 18.7641 11.24 18.6663 11.2527 18.5639C10.2291 19.0049 9.26984 19.5735 8.39953 20.2552C8.35203 20.2918 8.31244 20.3331 8.26653 20.3713C8.33378 21.2708 8.51511 22.1589 8.80644 23.0159C9.44611 24.8354 10.5655 26.6138 11.9604 28.0988C12.3151 27.1011 12.8772 26.2227 13.7116 25.5871C13.6799 25.5489 13.6404 25.5184 13.6087 25.4802C12.855 24.5436 12.2027 23.5277 11.7863 22.4109ZM4.39211 25.8224C3.94719 27.0385 3.66378 28.3142 3.53711 29.6189C4.18469 30.2728 4.87028 30.8625 5.52736 31.3575C7.37036 32.7463 9.51736 33.7791 11.7942 34.2679C11.5852 33.3431 11.4738 32.4003 11.4617 31.4538C10.1911 30.9548 8.99175 30.3013 7.89286 29.5089C6.56919 28.5403 5.21386 27.2891 4.39211 25.8224ZM5.31361 36.6391C4.8659 36.5174 4.42821 36.3637 4.00419 36.1792C4.14986 36.8239 4.31453 37.4625 4.50769 38.0828C4.64861 38.5335 4.80694 38.9811 4.97319 39.4272C6.12428 39.6503 7.29594 39.7496 8.39636 39.7511C10.1241 39.7462 11.8444 39.5322 13.5169 39.1141C13.1099 38.3255 12.7653 37.5083 12.4861 36.6696C11.221 36.8759 9.94961 37.0378 8.65761 37.0363C7.53001 37.041 6.40635 36.9076 5.31361 36.6391ZM7.97519 44.7592C7.93403 44.7699 7.89128 44.776 7.85011 44.7867C8.43911 45.575 9.09303 46.3038 9.80078 46.9684C10.8489 46.6322 11.8813 46.2411 12.8566 45.7492C14.3478 44.9928 15.7192 44.0343 16.9289 42.9029C16.1489 42.4241 15.4553 41.8255 14.8754 41.1307C13.8142 42.0012 12.6635 42.7645 11.4411 43.4086C10.3359 43.98 9.18328 44.4353 7.97519 44.7592ZM38.258 13.6307C37.8194 12.8378 37.4553 11.9792 37.3365 11.1298C36.0896 11.1325 34.8482 10.9696 33.6474 10.6454C32.5157 10.3285 31.43 9.8753 30.4158 9.29642C30.1989 9.17419 30.0025 9.026 29.7935 8.89308C29.7603 9.06572 29.7159 9.23378 29.6906 9.411C29.5879 10.1844 29.5768 10.9666 29.6574 11.7424C30.3667 12.1167 31.1061 12.4375 31.8788 12.7141C33.8833 13.4321 36.092 13.7499 38.258 13.6307ZM35.313 4.72989C35.4824 6.03461 36.0445 7.17433 36.871 8.21475C37.1196 8.52794 37.3793 8.84419 37.6484 9.15281C38.1488 8.27281 39.1384 7.871 40.1374 7.89086C39.9609 7.71904 39.7949 7.53743 39.6403 7.34697C38.9784 6.54947 38.4021 5.74586 38.1804 4.73447C38.1485 4.57338 38.1337 4.40957 38.1361 4.24558C38.1298 4.01371 38.1361 3.78167 38.1551 3.55044C38.2537 2.60738 38.6659 1.72041 39.3299 1.02197C38.0723 1.10031 36.8391 1.39415 35.6883 1.88975C35.3244 2.79263 35.1956 3.76781 35.313 4.72989ZM43.7839 5.99947C42.8775 6.5791 42.1046 7.33268 41.5134 8.21322C42.4301 8.6135 43.0983 9.29947 43.5701 10.1245C43.597 10.0679 43.6144 10.0068 43.6461 9.95183C44.091 9.15892 44.7497 8.47906 45.4622 8.06503C46.3543 7.54122 47.3757 7.2579 48.4199 7.24461C48.9756 7.23544 49.5424 7.25989 50.0919 7.33628C50.1568 7.34544 50.2201 7.35919 50.285 7.36989C49.7593 6.39203 49.1001 5.48664 48.3249 4.67794C48.2599 4.67947 48.1919 4.67336 48.1285 4.67642C46.5895 4.74822 45.0711 5.16989 43.7839 5.99947ZM47.1215 51.4753C46.939 51.3124 46.7626 51.1432 46.5927 50.9681L46.3869 50.7496L46.257 50.6014C45.7777 50.0181 45.3607 49.3896 45.0125 48.7253L44.9492 48.6016C44.6781 48.0129 44.4737 47.3977 44.3396 46.7667C44.2699 46.4428 44.2731 46.041 44.2889 45.6438C44.2541 45.7018 44.2319 45.7645 44.1939 45.821C43.5036 46.8324 42.3937 46.9668 41.2774 46.7697C41.3123 47.0998 41.3598 47.4114 41.4089 47.6589C41.6384 48.8185 42.1293 49.9475 42.742 50.965C43.2439 51.7977 43.901 52.5539 44.6167 53.2338C45.7285 52.9916 46.792 52.5767 47.7659 52.0054L47.6852 51.9459C47.4915 51.7956 47.3035 51.6387 47.1215 51.4753ZM36.6826 47.251C37.0798 46.5892 37.5473 45.9692 38.0775 45.4009C37.27 44.7424 36.7871 43.9021 36.4863 42.9259C35.4682 43.8059 34.61 44.9028 34.0004 45.8592C33.1945 47.1288 32.6198 48.4946 32.463 49.9827C32.4488 50.1217 32.4614 50.2699 32.4551 50.4135C33.4848 51.3006 34.6632 52.0125 35.94 52.5188C35.7532 51.7977 35.5854 51.0781 35.6107 50.3096C35.6487 49.2203 36.1284 48.1814 36.6826 47.251Z"/>
</mask>
<path d="M40.9117 19.5249C41.2759 19.4164 41.6464 19.2973 42.0153 19.1659C41.4959 18.4524 40.9972 17.7252 40.4889 17.0056C40.3069 17.0682 40.1295 17.1354 39.9395 17.1889C38.8541 17.4934 37.7344 17.6698 36.605 17.7145C34.8327 17.7679 33.0649 17.5127 31.3864 16.9613C31.9326 17.9757 32.5675 18.9642 33.2389 19.9267C34.3947 20.1268 35.5679 20.2322 36.7222 20.191C38.1426 20.1444 39.5508 19.9205 40.9117 19.5249ZM42.8354 27.0966C44.0456 26.7507 45.2083 26.2654 46.2982 25.6513L46.5009 25.5382C46.0284 24.8195 45.546 24.107 45.0537 23.4009C44.1148 23.9386 43.141 24.4016 42.0913 24.6979C41.0605 24.9882 40.0013 25.1578 38.9262 25.1792C38.2976 25.1914 37.6579 25.112 37.023 25.0554C37.6279 25.8988 38.2327 26.7498 38.828 27.6099C38.8977 27.6099 38.9674 27.6236 39.037 27.6236C40.3222 27.6162 41.6002 27.4389 42.8354 27.0966ZM50.5558 32.8547C50.2174 32.0747 49.852 31.3058 49.4601 30.5493C48.3936 31.1626 47.2465 31.6348 46.0496 31.9534C44.8899 32.2689 43.6934 32.4414 42.4887 32.4667C42.2797 32.4697 42.0739 32.456 41.8664 32.4484C42.3003 33.2382 42.7135 34.0373 43.0793 34.8561C44.3681 34.8179 45.668 34.6652 46.903 34.3306C48.1769 33.9801 49.4031 33.4847 50.5558 32.8547ZM52.6616 43.2009C52.7123 42.3514 52.6996 41.4959 52.6236 40.6403C51.1258 40.7931 49.6359 40.842 48.0874 40.5654C46.9063 40.3604 45.7531 40.0268 44.6499 39.5709C44.8494 40.4631 45.0109 41.4393 45.0331 42.4003C45.8628 42.6677 46.7051 42.8968 47.568 43.0343C49.1941 43.2925 50.9579 43.3918 52.6616 43.2009ZM31.76 41.2056C32.9016 40.35 34.3994 39.7985 35.9384 39.5296C35.8609 38.7016 35.788 37.8735 35.7184 37.0454C35.0708 37.0607 34.4232 37.1325 33.7804 37.296C32.3469 37.6628 31.001 38.2948 29.8173 39.1568C29.1444 39.6427 28.5569 40.2385 28.017 40.8695C28.0867 41.479 28.1659 42.0871 28.2624 42.6906C28.3939 43.5095 28.6124 44.2856 28.8704 45.0403C29.1064 44.4735 29.3375 43.9174 29.6985 43.372C30.2685 42.5118 30.8987 41.8503 31.76 41.2056ZM29.6241 33.1695C31.2233 32.1122 33.0235 31.5943 34.8887 31.33C34.6852 30.4913 34.4357 29.6637 34.1414 28.8504C31.988 28.9604 29.8331 29.706 28.093 30.8457C27.5923 31.1833 27.1147 31.5518 26.6633 31.9488C26.9926 33.0228 27.219 34.1182 27.3853 35.2289C28.0186 34.4365 28.7736 33.742 29.6241 33.1695ZM27.4692 25.6742C28.2507 25.0756 29.1165 24.5874 30.0405 24.2243C30.5171 24.0486 31.0159 23.9325 31.5146 23.8348C30.9074 23.0039 30.2163 22.2332 29.4515 21.5339C28.6372 21.7696 27.8541 22.0956 27.1177 22.5056C25.4552 23.4574 24.0729 24.7499 22.8664 26.1921C23.647 26.7497 24.331 27.4296 24.8979 28.2149C25.5961 27.2432 26.5588 26.3831 27.4692 25.6742ZM11.7863 22.4109C11.3588 21.2681 11.1308 20.0856 11.2068 18.8679C11.2131 18.7641 11.24 18.6663 11.2527 18.5639C10.2291 19.0049 9.26984 19.5735 8.39953 20.2552C8.35203 20.2918 8.31244 20.3331 8.26653 20.3713C8.33378 21.2708 8.51511 22.1589 8.80644 23.0159C9.44611 24.8354 10.5655 26.6138 11.9604 28.0988C12.3151 27.1011 12.8772 26.2227 13.7116 25.5871C13.6799 25.5489 13.6404 25.5184 13.6087 25.4802C12.855 24.5436 12.2027 23.5277 11.7863 22.4109ZM4.39211 25.8224C3.94719 27.0385 3.66378 28.3142 3.53711 29.6189C4.18469 30.2728 4.87028 30.8625 5.52736 31.3575C7.37036 32.7463 9.51736 33.7791 11.7942 34.2679C11.5852 33.3431 11.4738 32.4003 11.4617 31.4538C10.1911 30.9548 8.99175 30.3013 7.89286 29.5089C6.56919 28.5403 5.21386 27.2891 4.39211 25.8224ZM5.31361 36.6391C4.8659 36.5174 4.42821 36.3637 4.00419 36.1792C4.14986 36.8239 4.31453 37.4625 4.50769 38.0828C4.64861 38.5335 4.80694 38.9811 4.97319 39.4272C6.12428 39.6503 7.29594 39.7496 8.39636 39.7511C10.1241 39.7462 11.8444 39.5322 13.5169 39.1141C13.1099 38.3255 12.7653 37.5083 12.4861 36.6696C11.221 36.8759 9.94961 37.0378 8.65761 37.0363C7.53001 37.041 6.40635 36.9076 5.31361 36.6391ZM7.97519 44.7592C7.93403 44.7699 7.89128 44.776 7.85011 44.7867C8.43911 45.575 9.09303 46.3038 9.80078 46.9684C10.8489 46.6322 11.8813 46.2411 12.8566 45.7492C14.3478 44.9928 15.7192 44.0343 16.9289 42.9029C16.1489 42.4241 15.4553 41.8255 14.8754 41.1307C13.8142 42.0012 12.6635 42.7645 11.4411 43.4086C10.3359 43.98 9.18328 44.4353 7.97519 44.7592ZM38.258 13.6307C37.8194 12.8378 37.4553 11.9792 37.3365 11.1298C36.0896 11.1325 34.8482 10.9696 33.6474 10.6454C32.5157 10.3285 31.43 9.8753 30.4158 9.29642C30.1989 9.17419 30.0025 9.026 29.7935 8.89308C29.7603 9.06572 29.7159 9.23378 29.6906 9.411C29.5879 10.1844 29.5768 10.9666 29.6574 11.7424C30.3667 12.1167 31.1061 12.4375 31.8788 12.7141C33.8833 13.4321 36.092 13.7499 38.258 13.6307ZM35.313 4.72989C35.4824 6.03461 36.0445 7.17433 36.871 8.21475C37.1196 8.52794 37.3793 8.84419 37.6484 9.15281C38.1488 8.27281 39.1384 7.871 40.1374 7.89086C39.9609 7.71904 39.7949 7.53743 39.6403 7.34697C38.9784 6.54947 38.4021 5.74586 38.1804 4.73447C38.1485 4.57338 38.1337 4.40957 38.1361 4.24558C38.1298 4.01371 38.1361 3.78167 38.1551 3.55044C38.2537 2.60738 38.6659 1.72041 39.3299 1.02197C38.0723 1.10031 36.8391 1.39415 35.6883 1.88975C35.3244 2.79263 35.1956 3.76781 35.313 4.72989ZM43.7839 5.99947C42.8775 6.5791 42.1046 7.33268 41.5134 8.21322C42.4301 8.6135 43.0983 9.29947 43.5701 10.1245C43.597 10.0679 43.6144 10.0068 43.6461 9.95183C44.091 9.15892 44.7497 8.47906 45.4622 8.06503C46.3543 7.54122 47.3757 7.2579 48.4199 7.24461C48.9756 7.23544 49.5424 7.25989 50.0919 7.33628C50.1568 7.34544 50.2201 7.35919 50.285 7.36989C49.7593 6.39203 49.1001 5.48664 48.3249 4.67794C48.2599 4.67947 48.1919 4.67336 48.1285 4.67642C46.5895 4.74822 45.0711 5.16989 43.7839 5.99947ZM47.1215 51.4753C46.939 51.3124 46.7626 51.1432 46.5927 50.9681L46.3869 50.7496L46.257 50.6014C45.7777 50.0181 45.3607 49.3896 45.0125 48.7253L44.9492 48.6016C44.6781 48.0129 44.4737 47.3977 44.3396 46.7667C44.2699 46.4428 44.2731 46.041 44.2889 45.6438C44.2541 45.7018 44.2319 45.7645 44.1939 45.821C43.5036 46.8324 42.3937 46.9668 41.2774 46.7697C41.3123 47.0998 41.3598 47.4114 41.4089 47.6589C41.6384 48.8185 42.1293 49.9475 42.742 50.965C43.2439 51.7977 43.901 52.5539 44.6167 53.2338C45.7285 52.9916 46.792 52.5767 47.7659 52.0054L47.6852 51.9459C47.4915 51.7956 47.3035 51.6387 47.1215 51.4753ZM36.6826 47.251C37.0798 46.5892 37.5473 45.9692 38.0775 45.4009C37.27 44.7424 36.7871 43.9021 36.4863 42.9259C35.4682 43.8059 34.61 44.9028 34.0004 45.8592C33.1945 47.1288 32.6198 48.4946 32.463 49.9827C32.4488 50.1217 32.4614 50.2699 32.4551 50.4135C33.4848 51.3006 34.6632 52.0125 35.94 52.5188C35.7532 51.7977 35.5854 51.0781 35.6107 50.3096C35.6487 49.2203 36.1284 48.1814 36.6826 47.251Z" fill="#DAEDF1" stroke="black" stroke-width="0.8" mask="url(#path-3-inside-1_832_2709)"/>
</g>
</svg>
