<svg width="57" height="55" viewBox="0 0 57 55" fill="none" xmlns="http://www.w3.org/2000/svg">
<path d="M51.3111 34.7462C49.6898 30.1766 46.9696 26.0623 44.1576 22.1039C42.5315 19.8153 40.8215 17.5725 39.2651 15.2396C38.2106 13.6598 36.6225 11.2016 37.5598 9.25679C38.2043 7.91998 39.9269 7.58845 41.2585 8.06359C43.6208 8.9054 44.4394 11.5928 44.5851 13.7668C44.8606 17.8872 51.5581 17.9269 51.7592 13.7668C52.0347 8.11095 48.3012 2.7072 42.5093 1.28179C36.6843 -0.152797 30.4808 3.56887 29.6859 9.38359C28.8816 15.2762 33.6284 20.3041 36.8568 24.805C39.9475 29.1133 43.1316 33.5546 44.4458 38.7139C44.9952 40.8726 45.5398 43.8121 44.1877 45.7936C43.111 47.3733 41.0099 46.8248 39.4598 46.1939C36.9423 45.1687 36.3312 43.1704 36.0462 40.6923C35.7105 37.7666 35.6646 34.8257 35.0455 31.9321C33.8897 26.5344 30.8544 21.1093 25.3777 18.894C19.9453 16.694 13.1654 16.4832 8.39168 20.2278C2.89434 24.5391 2.60301 31.9825 4.50142 38.0539C6.46159 44.3193 10.944 50.2685 18.2717 50.5557C22.4833 50.7207 23.5078 44.828 19.2913 43.8686C14.7329 42.8312 12.8361 38.5183 11.8386 34.4819C10.982 31.0123 11.2353 25.6193 15.6845 24.6598C19.6128 23.8119 23.5679 25.6636 25.4347 28.9896C27.816 33.2322 27.5104 38.0386 28.2562 42.6616C29.089 47.8301 32.4694 51.8115 37.8385 53.0857C42.6835 54.2361 48.1476 53.3408 50.9153 48.9729C53.5832 44.7669 52.8928 39.2028 51.3111 34.7462Z" fill="#C08552"/>
<path d="M26.5414 21.56C28.5649 22.7883 31.8582 27.0508 32.6784 30.6808C33.5255 34.4239 33.6047 36.8805 33.5255 39.904C33.4542 42.6158 31.9453 42.4004 32.0087 39.904C32.072 37.4076 31.6825 33.9426 30.9763 31.3561C30.2702 28.7696 28.0931 24.2825 25.5534 23.1932L13.0324 22.1039C13.0324 22.1039 8.31091 23.0205 7.03633 31.2935C6.64841 33.8128 5.78233 32.9969 5.83774 30.6808C5.89158 28.3647 6.78933 22.3086 12.7157 20.1987C12.7157 20.1987 26.8232 21.0161 26.5414 21.56Z" fill="#C08552"/>
<g opacity="0.85">
<mask id="path-3-inside-1_157_45" fill="white">
<path d="M40.9117 19.525C41.2759 19.4165 41.6464 19.2974 42.0153 19.166C41.4959 18.4525 40.9972 17.7253 40.4889 17.0057C40.3069 17.0683 40.1295 17.1356 39.9395 17.189C38.8541 17.4935 37.7344 17.6699 36.605 17.7146C34.8327 17.768 33.0649 17.5129 31.3864 16.9614C31.9326 17.9758 32.5675 18.9643 33.2389 19.9268C34.3947 20.127 35.5679 20.2324 36.7222 20.1911C38.1426 20.1445 39.5508 19.9206 40.9117 19.525ZM42.8354 27.0967C44.0456 26.7508 45.2083 26.2655 46.2982 25.6514L46.5009 25.5383C46.0284 24.8197 45.546 24.1072 45.0537 23.401C44.1148 23.9388 43.141 24.4017 42.0913 24.6981C41.0605 24.9883 40.0013 25.1579 38.9262 25.1793C38.2976 25.1915 37.6579 25.1121 37.023 25.0556C37.6279 25.8989 38.2327 26.7499 38.828 27.61C38.8977 27.61 38.9674 27.6238 39.037 27.6238C40.3222 27.6163 41.6002 27.439 42.8354 27.0967ZM50.5558 32.8549C50.2174 32.0748 49.852 31.3059 49.4601 30.5495C48.3936 31.1627 47.2465 31.6349 46.0496 31.9535C44.8899 32.269 43.6934 32.4415 42.4887 32.4668C42.2797 32.4699 42.0739 32.4561 41.8664 32.4485C42.3003 33.2383 42.7135 34.0374 43.0793 34.8563C44.3681 34.8181 45.668 34.6653 46.903 34.3307C48.1769 33.9802 49.4031 33.4848 50.5558 32.8549ZM52.6616 43.201C52.7123 42.3515 52.6996 41.496 52.6236 40.6404C51.1258 40.7932 49.6359 40.8421 48.0874 40.5656C46.9063 40.3605 45.7531 40.0269 44.6499 39.571C44.8494 40.4632 45.0109 41.4395 45.0331 42.4004C45.8628 42.6678 46.7051 42.897 47.568 43.0345C49.1941 43.2926 50.9579 43.392 52.6616 43.201ZM31.76 41.2057C32.9016 40.3501 34.3994 39.7986 35.9384 39.5297C35.8609 38.7017 35.788 37.8736 35.7184 37.0456C35.0708 37.0608 34.4232 37.1326 33.7804 37.2961C32.3469 37.663 31.001 38.2949 29.8173 39.157C29.1444 39.6428 28.5569 40.2386 28.017 40.8696C28.0867 41.4792 28.1659 42.0872 28.2624 42.6907C28.3939 43.5096 28.6124 44.2857 28.8704 45.0404C29.1064 44.4736 29.3375 43.9175 29.6985 43.3721C30.2685 42.512 30.8987 41.8504 31.76 41.2057ZM29.6241 33.1696C31.2233 32.1124 33.0235 31.5945 34.8887 31.3301C34.6852 30.4915 34.4357 29.6638 34.1414 28.8506C31.988 28.9606 29.8331 29.7061 28.093 30.8458C27.5923 31.1834 27.1147 31.5519 26.6633 31.9489C26.9926 33.0229 27.219 34.1183 27.3853 35.229C28.0186 34.4366 28.7736 33.7421 29.6241 33.1696ZM27.4692 25.6743C28.2507 25.0757 29.1165 24.5876 30.0405 24.2245C30.5171 24.0488 31.0159 23.9327 31.5146 23.8349C30.9074 23.004 30.2163 22.2333 29.4515 21.534C28.6372 21.7697 27.8541 22.0958 27.1177 22.5057C25.4552 23.4575 24.0729 24.75 22.8664 26.1922C23.647 26.7499 24.331 27.4297 24.8979 28.215C25.5961 27.2433 26.5588 26.3832 27.4692 25.6743ZM11.7863 22.411C11.3588 21.2682 11.1308 20.0857 11.2068 18.8681C11.2131 18.7642 11.24 18.6664 11.2527 18.564C10.2291 19.005 9.26984 19.5736 8.39953 20.2553C8.35203 20.292 8.31244 20.3332 8.26653 20.3714C8.33378 21.2709 8.51511 22.1591 8.80644 23.016C9.44611 24.8356 10.5655 26.6139 11.9604 28.0989C12.3151 27.1013 12.8772 26.2228 13.7116 25.5872C13.6799 25.549 13.6404 25.5185 13.6087 25.4803C12.855 24.5438 12.2027 23.5278 11.7863 22.411ZM4.39211 25.8225C3.94719 27.0386 3.66378 28.3143 3.53711 29.619C4.18469 30.2729 4.87028 30.8626 5.52736 31.3576C7.37036 32.7464 9.51736 33.7792 11.7942 34.2681C11.5852 33.3432 11.4738 32.4004 11.4617 31.4539C10.1911 30.955 8.99175 30.3014 7.89286 29.509C6.56919 28.5404 5.21386 27.2892 4.39211 25.8225ZM5.31361 36.6392C4.8659 36.5175 4.42821 36.3638 4.00419 36.1793C4.14986 36.824 4.31453 37.4627 4.50769 38.0829C4.64861 38.5336 4.80694 38.9813 4.97319 39.4274C6.12428 39.6504 7.29594 39.7497 8.39636 39.7513C10.1241 39.7464 11.8444 39.5323 13.5169 39.1142C13.1099 38.3256 12.7653 37.5085 12.4861 36.6697C11.221 36.876 9.94961 37.0379 8.65761 37.0364C7.53001 37.0412 6.40635 36.9077 5.31361 36.6392ZM7.97519 44.7593C7.93403 44.77 7.89128 44.7761 7.85011 44.7868C8.43911 45.5751 9.09303 46.3039 9.80078 46.9685C10.8489 46.6324 11.8813 46.2413 12.8566 45.7493C14.3478 44.9929 15.7192 44.0344 16.9289 42.9031C16.1489 42.4242 15.4553 41.8256 14.8754 41.1308C13.8142 42.0013 12.6635 42.7646 11.4411 43.4088C10.3359 43.9801 9.18328 44.4354 7.97519 44.7593ZM38.258 13.6308C37.8194 12.8379 37.4553 11.9793 37.3365 11.1299C36.0896 11.1327 34.8482 10.9697 33.6474 10.6456C32.5157 10.3287 31.43 9.87542 30.4158 9.29654C30.1989 9.17432 30.0025 9.02612 29.7935 8.89321C29.7603 9.06584 29.7159 9.2339 29.6906 9.41112C29.5879 10.1845 29.5768 10.9667 29.6574 11.7425C30.3667 12.1168 31.1061 12.4376 31.8788 12.7142C33.8833 13.4322 36.092 13.75 38.258 13.6308ZM35.313 4.73001C35.4824 6.03473 36.0445 7.17446 36.871 8.21487C37.1196 8.52807 37.3793 8.84432 37.6484 9.15293C38.1488 8.27293 39.1384 7.87112 40.1374 7.89098C39.9609 7.71916 39.7949 7.53756 39.6403 7.34709C38.9784 6.54959 38.4021 5.74598 38.1804 4.73459C38.1485 4.5735 38.1337 4.4097 38.1361 4.24571C38.1298 4.01383 38.1361 3.7818 38.1551 3.55057C38.2537 2.60751 38.6659 1.72053 39.3299 1.02209C38.0723 1.10043 36.8391 1.39428 35.6883 1.88987C35.3244 2.79275 35.1956 3.76793 35.313 4.73001ZM43.7839 5.99959C42.8775 6.57923 42.1046 7.3328 41.5134 8.21334C42.4301 8.61362 43.0983 9.29959 43.5701 10.1246C43.597 10.0681 43.6144 10.007 43.6461 9.95196C44.091 9.15904 44.7497 8.47918 45.4622 8.06515C46.3543 7.54134 47.3757 7.25803 48.4199 7.24473C48.9756 7.23557 49.5424 7.26001 50.0919 7.3364C50.1568 7.34557 50.2201 7.35932 50.285 7.37001C49.7593 6.39215 49.1001 5.48676 48.3249 4.67807C48.2599 4.67959 48.1919 4.67348 48.1285 4.67654C46.5895 4.74834 45.0711 5.17001 43.7839 5.99959ZM47.1215 51.4754C46.939 51.3125 46.7626 51.1434 46.5927 50.9682L46.3869 50.7497L46.257 50.6015C45.7777 50.0183 45.3607 49.3897 45.0125 48.7254L44.9492 48.6017C44.6781 48.013 44.4737 47.3978 44.3396 46.7668C44.2699 46.4429 44.2731 46.0411 44.2889 45.6439C44.2541 45.702 44.2319 45.7646 44.1939 45.8211C43.5036 46.8325 42.3937 46.967 41.2774 46.7699C41.3123 47.0999 41.3598 47.4115 41.4089 47.659C41.6384 48.8186 42.1293 49.9477 42.742 50.9652C43.2439 51.7978 43.901 52.554 44.6167 53.2339C45.7285 52.9917 46.792 52.5769 47.7659 52.0056L47.6852 51.946C47.4915 51.7958 47.3035 51.6388 47.1215 51.4754ZM36.6826 47.2511C37.0798 46.5894 37.5473 45.9693 38.0775 45.401C37.27 44.7425 36.7871 43.9022 36.4863 42.926C35.4682 43.806 34.61 44.9029 34.0004 45.8593C33.1945 47.1289 32.6198 48.4947 32.463 49.9828C32.4488 50.1218 32.4614 50.27 32.4551 50.4136C33.4848 51.3008 34.6632 52.0126 35.94 52.5189C35.7532 51.7978 35.5854 51.0782 35.6107 50.3097C35.6487 49.2204 36.1284 48.1815 36.6826 47.2511Z"/>
</mask>
<path d="M40.9117 19.525C41.2759 19.4165 41.6464 19.2974 42.0153 19.166C41.4959 18.4525 40.9972 17.7253 40.4889 17.0057C40.3069 17.0683 40.1295 17.1356 39.9395 17.189C38.8541 17.4935 37.7344 17.6699 36.605 17.7146C34.8327 17.768 33.0649 17.5129 31.3864 16.9614C31.9326 17.9758 32.5675 18.9643 33.2389 19.9268C34.3947 20.127 35.5679 20.2324 36.7222 20.1911C38.1426 20.1445 39.5508 19.9206 40.9117 19.525ZM42.8354 27.0967C44.0456 26.7508 45.2083 26.2655 46.2982 25.6514L46.5009 25.5383C46.0284 24.8197 45.546 24.1072 45.0537 23.401C44.1148 23.9388 43.141 24.4017 42.0913 24.6981C41.0605 24.9883 40.0013 25.1579 38.9262 25.1793C38.2976 25.1915 37.6579 25.1121 37.023 25.0556C37.6279 25.8989 38.2327 26.7499 38.828 27.61C38.8977 27.61 38.9674 27.6238 39.037 27.6238C40.3222 27.6163 41.6002 27.439 42.8354 27.0967ZM50.5558 32.8549C50.2174 32.0748 49.852 31.3059 49.4601 30.5495C48.3936 31.1627 47.2465 31.6349 46.0496 31.9535C44.8899 32.269 43.6934 32.4415 42.4887 32.4668C42.2797 32.4699 42.0739 32.4561 41.8664 32.4485C42.3003 33.2383 42.7135 34.0374 43.0793 34.8563C44.3681 34.8181 45.668 34.6653 46.903 34.3307C48.1769 33.9802 49.4031 33.4848 50.5558 32.8549ZM52.6616 43.201C52.7123 42.3515 52.6996 41.496 52.6236 40.6404C51.1258 40.7932 49.6359 40.8421 48.0874 40.5656C46.9063 40.3605 45.7531 40.0269 44.6499 39.571C44.8494 40.4632 45.0109 41.4395 45.0331 42.4004C45.8628 42.6678 46.7051 42.897 47.568 43.0345C49.1941 43.2926 50.9579 43.392 52.6616 43.201ZM31.76 41.2057C32.9016 40.3501 34.3994 39.7986 35.9384 39.5297C35.8609 38.7017 35.788 37.8736 35.7184 37.0456C35.0708 37.0608 34.4232 37.1326 33.7804 37.2961C32.3469 37.663 31.001 38.2949 29.8173 39.157C29.1444 39.6428 28.5569 40.2386 28.017 40.8696C28.0867 41.4792 28.1659 42.0872 28.2624 42.6907C28.3939 43.5096 28.6124 44.2857 28.8704 45.0404C29.1064 44.4736 29.3375 43.9175 29.6985 43.3721C30.2685 42.512 30.8987 41.8504 31.76 41.2057ZM29.6241 33.1696C31.2233 32.1124 33.0235 31.5945 34.8887 31.3301C34.6852 30.4915 34.4357 29.6638 34.1414 28.8506C31.988 28.9606 29.8331 29.7061 28.093 30.8458C27.5923 31.1834 27.1147 31.5519 26.6633 31.9489C26.9926 33.0229 27.219 34.1183 27.3853 35.229C28.0186 34.4366 28.7736 33.7421 29.6241 33.1696ZM27.4692 25.6743C28.2507 25.0757 29.1165 24.5876 30.0405 24.2245C30.5171 24.0488 31.0159 23.9327 31.5146 23.8349C30.9074 23.004 30.2163 22.2333 29.4515 21.534C28.6372 21.7697 27.8541 22.0958 27.1177 22.5057C25.4552 23.4575 24.0729 24.75 22.8664 26.1922C23.647 26.7499 24.331 27.4297 24.8979 28.215C25.5961 27.2433 26.5588 26.3832 27.4692 25.6743ZM11.7863 22.411C11.3588 21.2682 11.1308 20.0857 11.2068 18.8681C11.2131 18.7642 11.24 18.6664 11.2527 18.564C10.2291 19.005 9.26984 19.5736 8.39953 20.2553C8.35203 20.292 8.31244 20.3332 8.26653 20.3714C8.33378 21.2709 8.51511 22.1591 8.80644 23.016C9.44611 24.8356 10.5655 26.6139 11.9604 28.0989C12.3151 27.1013 12.8772 26.2228 13.7116 25.5872C13.6799 25.549 13.6404 25.5185 13.6087 25.4803C12.855 24.5438 12.2027 23.5278 11.7863 22.411ZM4.39211 25.8225C3.94719 27.0386 3.66378 28.3143 3.53711 29.619C4.18469 30.2729 4.87028 30.8626 5.52736 31.3576C7.37036 32.7464 9.51736 33.7792 11.7942 34.2681C11.5852 33.3432 11.4738 32.4004 11.4617 31.4539C10.1911 30.955 8.99175 30.3014 7.89286 29.509C6.56919 28.5404 5.21386 27.2892 4.39211 25.8225ZM5.31361 36.6392C4.8659 36.5175 4.42821 36.3638 4.00419 36.1793C4.14986 36.824 4.31453 37.4627 4.50769 38.0829C4.64861 38.5336 4.80694 38.9813 4.97319 39.4274C6.12428 39.6504 7.29594 39.7497 8.39636 39.7513C10.1241 39.7464 11.8444 39.5323 13.5169 39.1142C13.1099 38.3256 12.7653 37.5085 12.4861 36.6697C11.221 36.876 9.94961 37.0379 8.65761 37.0364C7.53001 37.0412 6.40635 36.9077 5.31361 36.6392ZM7.97519 44.7593C7.93403 44.77 7.89128 44.7761 7.85011 44.7868C8.43911 45.5751 9.09303 46.3039 9.80078 46.9685C10.8489 46.6324 11.8813 46.2413 12.8566 45.7493C14.3478 44.9929 15.7192 44.0344 16.9289 42.9031C16.1489 42.4242 15.4553 41.8256 14.8754 41.1308C13.8142 42.0013 12.6635 42.7646 11.4411 43.4088C10.3359 43.9801 9.18328 44.4354 7.97519 44.7593ZM38.258 13.6308C37.8194 12.8379 37.4553 11.9793 37.3365 11.1299C36.0896 11.1327 34.8482 10.9697 33.6474 10.6456C32.5157 10.3287 31.43 9.87542 30.4158 9.29654C30.1989 9.17432 30.0025 9.02612 29.7935 8.89321C29.7603 9.06584 29.7159 9.2339 29.6906 9.41112C29.5879 10.1845 29.5768 10.9667 29.6574 11.7425C30.3667 12.1168 31.1061 12.4376 31.8788 12.7142C33.8833 13.4322 36.092 13.75 38.258 13.6308ZM35.313 4.73001C35.4824 6.03473 36.0445 7.17446 36.871 8.21487C37.1196 8.52807 37.3793 8.84432 37.6484 9.15293C38.1488 8.27293 39.1384 7.87112 40.1374 7.89098C39.9609 7.71916 39.7949 7.53756 39.6403 7.34709C38.9784 6.54959 38.4021 5.74598 38.1804 4.73459C38.1485 4.5735 38.1337 4.4097 38.1361 4.24571C38.1298 4.01383 38.1361 3.7818 38.1551 3.55057C38.2537 2.60751 38.6659 1.72053 39.3299 1.02209C38.0723 1.10043 36.8391 1.39428 35.6883 1.88987C35.3244 2.79275 35.1956 3.76793 35.313 4.73001ZM43.7839 5.99959C42.8775 6.57923 42.1046 7.3328 41.5134 8.21334C42.4301 8.61362 43.0983 9.29959 43.5701 10.1246C43.597 10.0681 43.6144 10.007 43.6461 9.95196C44.091 9.15904 44.7497 8.47918 45.4622 8.06515C46.3543 7.54134 47.3757 7.25803 48.4199 7.24473C48.9756 7.23557 49.5424 7.26001 50.0919 7.3364C50.1568 7.34557 50.2201 7.35932 50.285 7.37001C49.7593 6.39215 49.1001 5.48676 48.3249 4.67807C48.2599 4.67959 48.1919 4.67348 48.1285 4.67654C46.5895 4.74834 45.0711 5.17001 43.7839 5.99959ZM47.1215 51.4754C46.939 51.3125 46.7626 51.1434 46.5927 50.9682L46.3869 50.7497L46.257 50.6015C45.7777 50.0183 45.3607 49.3897 45.0125 48.7254L44.9492 48.6017C44.6781 48.013 44.4737 47.3978 44.3396 46.7668C44.2699 46.4429 44.2731 46.0411 44.2889 45.6439C44.2541 45.702 44.2319 45.7646 44.1939 45.8211C43.5036 46.8325 42.3937 46.967 41.2774 46.7699C41.3123 47.0999 41.3598 47.4115 41.4089 47.659C41.6384 48.8186 42.1293 49.9477 42.742 50.9652C43.2439 51.7978 43.901 52.554 44.6167 53.2339C45.7285 52.9917 46.792 52.5769 47.7659 52.0056L47.6852 51.946C47.4915 51.7958 47.3035 51.6388 47.1215 51.4754ZM36.6826 47.2511C37.0798 46.5894 37.5473 45.9693 38.0775 45.401C37.27 44.7425 36.7871 43.9022 36.4863 42.926C35.4682 43.806 34.61 44.9029 34.0004 45.8593C33.1945 47.1289 32.6198 48.4947 32.463 49.9828C32.4488 50.1218 32.4614 50.27 32.4551 50.4136C33.4848 51.3008 34.6632 52.0126 35.94 52.5189C35.7532 51.7978 35.5854 51.0782 35.6107 50.3097C35.6487 49.2204 36.1284 48.1815 36.6826 47.2511Z" fill="white" stroke="#C08552" stroke-width="0.8" mask="url(#path-3-inside-1_157_45)"/>
</g>
</svg>
